{
.appVersion = "1075";
DisplayStrings = (
"/koKai-thai/saraIi-thai/maiEk-thai/koKai-thai/saraIi-thai/maiTho-thai/koKai-thai/saraIi-thai/maiTri-thai/koKai-thai/saraIi-thai/maiChattawa-thai/koKai-thai/saraI-thai/thanthakhat-thai/koKai-thai/thanthakhat-thai/koKai-thai/maiEk-thai/koKai-thai/maiTho-thai/koKai-thai/maiTri-thai/koKai-thai/maiChattawa-thai/poPla-thai/saraI-thai/poPla-thai/saraIi-thai/poPla-thai/saraUe-thai/poPla-thai/saraUee-thai/poPla-thai/maiEk-thai/poPla-thai/maiTho-thai/poPla-thai/maiTri-thai/poPla-thai/maiChattawa-thai",
"/zero-thai"
);
copyright = "Copyright © 2018 by Cadson Demak Co.,Ltd.. All rights reserved.";
customParameters = (
{
name = vendorID;
value = CDK;
},
{
name = description;
value = "Copyright (c) 2018, Cadson Demak (info@cadsondemak.com)";
},
{
name = license;

glyphs = (
{
color = 4;
glyphname = A;
lastChange = "2018-02-06 16:49:48 +0000";
layers = (
{
anchors = (
{
name = bottom;
position = "{369, 0}";
},
{
name = ogonek;
position = "{666, 10}";
},
{
name = top;
position = "{369, 700}";
}
);
layerId = "0B1DFD06-3317-40CA-B510-4969A0718C16";
paths = (
{
closed = 1;
nodes = (
"45 0 LINE",
"365 629 LINE",
"660 0 LINE",
"731 0 LINE",
"388 710 LINE",
"371 710 LINE",
"6 0 LINE"
);
},
{
closed = 1;
nodes = (
"607 186 LINE",
"590 224 LINE",
"142 224 LINE",
"121 186 LINE"
);
}
);
width = 737;
}
);
note = A;
unicode = 0041;
},
{
color = 4;
glyphname = B;
lastChange = "2018-02-06 15:25:00 +0000";
layers = (
{
anchors = (
{
name = bottom;
position = "{359, 0}";
},
{
name = top;
position = "{359, 700}";
}
);
layerId = "0B1DFD06-3317-40CA-B510-4969A0718C16";
paths = (
{
closed = 1;
nodes = (
"408 0 LINE SMOOTH",
"527 0 OFFCURVE",
"681 24 OFFCURVE",
"681 186 CURVE SMOOTH",
"681 340 OFFCURVE",
"542 356 OFFCURVE",
"430 365 CURVE",
"521 371 OFFCURVE",
"639 420 OFFCURVE",
"639 538 CURVE SMOOTH",
"639 667 OFFCURVE",
"500 700 OFFCURVE",
"383 700 CURVE SMOOTH",
"76 700 LINE",
"76 0 LINE"
);
},
{
closed = 1;
nodes = (
"136 344 LINE",
"339 344 LINE SMOOTH",
"538 344 OFFCURVE",
"621 288 OFFCURVE",
"621 191 CURVE SMOOTH",
"621 110 OFFCURVE",
"563 38 OFFCURVE",
"418 38 CURVE SMOOTH",
"136 38 LINE"
);
},
{
closed = 1;
nodes = (
"136 662 LINE",
"348 662 LINE SMOOTH",
"520 662 OFFCURVE",
"579 614 OFFCURVE",
"579 532 CURVE SMOOTH",
"579 434 OFFCURVE",
"496 382 OFFCURVE",
"345 382 CURVE SMOOTH",
"136 382 LINE"
);
}
);
width = 717;
}
);
note = B;
unicode = 0042;
},
{
color = 4;
glyphname = C;
lastChange = "2018-02-06 11:53:21 +0000";
layers = (
{
anchors = (
{
name = bottom;
position = "{407, 0}";
},
{
name = top;
position = "{407, 700}";
}
);
layerId = "0B1DFD06-3317-40CA-B510-4969A0718C16";
paths = (
{
closed = 1;
nodes = (
"581 -10 OFFCURVE",
"707 77 OFFCURVE",
"733 215 CURVE",
"672 215 LINE",
"648 98 OFFCURVE",
"548 24 OFFCURVE",
"414 24 CURVE SMOOTH",
"228 24 OFFCURVE",
"116 142 OFFCURVE",
"116 353 CURVE SMOOTH",
"116 561 OFFCURVE",
"227 676 OFFCURVE",
"412 676 CURVE SMOOTH",
"547 676 OFFCURVE",
"648 602 OFFCURVE",
"672 485 CURVE",
"733 485 LINE",
"707 623 OFFCURVE",
"581 710 OFFCURVE",
"407 710 CURVE SMOOTH",
"187 710 OFFCURVE",
"56 582 OFFCURVE",
"56 353 CURVE SMOOTH",
"56 120 OFFCURVE",
"187 -10 OFFCURVE",
"409 -10 CURVE SMOOTH"
);
}
);
width = 773;
}
);
note = C;
unicode = 0043;
},
{
color = 4;
glyphname = D;
lastChange = "2018-02-06 11:54:31 +0000";
layers = (
{
anchors = (
{
name = bottom;
position = "{329, 0}";
},
{
name = center;
position = "{385, 350}";
},
{
name = top;
position = "{329, 700}";
}
);
layerId = "0B1DFD06-3317-40CA-B510-4969A0718C16";
paths = (
{
closed = 1;
nodes = (
"335 0 LINE SMOOTH",
"578 0 OFFCURVE",
"713 138 OFFCURVE",
"713 362 CURVE SMOOTH",
"713 588 OFFCURVE",
"576 700 OFFCURVE",
"329 700 CURVE SMOOTH",
"76 700 LINE",
"76 0 LINE"
);
},
{
closed = 1;
nodes = (
"136 662 LINE",
"350 662 LINE SMOOTH",
"545 662 OFFCURVE",
"653 563 OFFCURVE",
"653 362 CURVE SMOOTH",
"653 161 OFFCURVE",
"545 36 OFFCURVE",
"350 36 CURVE SMOOTH",
"136 36 LINE"
);
}
);
width = 769;
}
);
note = D;
unicode = 0044;
},
{
color = 4;
glyphname = E;
lastChange = "2018-02-06 11:54:46 +0000";
layers = (
{
anchors = (
{
name = bottom;
position = "{361, 0}";
},
{
name = ogonek;
position = "{596, 10}";
},
{
name = top;
position = "{361, 700}";
},
{
name = topleft;
position = "{20, 700}";
}
);
layerId = "0B1DFD06-3317-40CA-B510-4969A0718C16";
paths = (
{
closed = 1;
nodes = (
"632 0 LINE",
"632 36 LINE",
"136 36 LINE",
"136 358 LINE",
"574 358 LINE",
"574 394 LINE",
"136 394 LINE",
"136 662 LINE",
"632 662 LINE",
"632 700 LINE",
"76 700 LINE",
"76 0 LINE"
);
}
);
width = 662;
}
);
note = E;
unicode = 0045;
},
{
color = 4;
glyphname = F;
lastChange = "2018-02-06 15:25:00 +0000";
layers = (
{
anchors = (
{
name = bottom;
position = "{311, 0}";
},
{
name = top;
position = "{311, 700}";
}
);
layerId = "0B1DFD06-3317-40CA-B510-4969A0718C16";
paths = (
{
closed = 1;
nodes = (
"136 0 LINE",
"136 358 LINE",
"544 358 LINE",
"544 394 LINE",
"136 394 LINE",
"136 662 LINE",
"612 662 LINE",
"612 700 LINE",
"76 700 LINE",
"76 0 LINE"
);
}
);
width = 622;
}
);
note = F;
unicode = 0046;
},
{
color = 4;
glyphname = G;
lastChange = "2018-02-06 15:11:26 +0000";
layers = (
{
anchors = (
{
name = bottom;
position = "{429, 0}";
},
{
name = top;
position = "{419, 700}";
}
);
layerId = "0B1DFD06-3317-40CA-B510-4969A0718C16";
paths = (
{
closed = 1;
nodes = (
"553 -10 OFFCURVE",
"648 21 OFFCURVE",
"727 80 CURVE",
"727 362 LINE",
"418 362 LINE",
"418 325 LINE",
"667 325 LINE",
"667 90 LINE",
"602 48 OFFCURVE",
"520 24 OFFCURVE",
"427 24 CURVE SMOOTH",
"229 24 OFFCURVE",
"116 142 OFFCURVE",
"116 350 CURVE SMOOTH",
"116 561 OFFCURVE",
"233 676 OFFCURVE",
"409 676 CURVE SMOOTH",
"557 676 OFFCURVE",
"654 605 OFFCURVE",
"680 485 CURVE",
"741 485 LINE",
"714 623 OFFCURVE",
"593 710 OFFCURVE",
"406 710 CURVE SMOOTH",
"191 710 OFFCURVE",
"56 582 OFFCURVE",
"56 349 CURVE SMOOTH",
"56 120 OFFCURVE",
"187 -10 OFFCURVE",
"426 -10 CURVE SMOOTH"
);
}
);
width = 797;
}
);
note = G;
unicode = 0047;
},
{
color = 4;
glyphname = H;
lastChange = "2018-02-06 13:19:54 +0000";
layers = (
{
anchors = (
{
name = bottom;
position = "{386, 0}";
},
{
name = center;
position = "{386, 350}";
},
{
name = top;
position = "{386, 700}";
},
{
name = topleft;
position = "{20, 700}";
}
);
layerId = "0B1DFD06-3317-40CA-B510-4969A0718C16";
paths = (
{
closed = 1;
nodes = (
"136 0 LINE",
"136 358 LINE",
"636 358 LINE",
"636 0 LINE",
"696 0 LINE",
"696 700 LINE",
"636 700 LINE",
"636 394 LINE",
"136 394 LINE",
"136 700 LINE",
"76 700 LINE",
"76 0 LINE"
);
}
);
width = 772;
}
);
note = H;
unicode = 0048;
},
{
color = 4;
glyphname = I;
lastChange = "2018-02-06 15:12:08 +0000";
layers = (
{
anchors = (
{
name = bottom;
position = "{150, 0}";
},
{
name = ogonek;
position = "{147, 6}";
},
{
name = top;
position = "{150, 700}";
},
{
name = topleft;
position = "{20, 700}";
}
);
layerId = "0B1DFD06-3317-40CA-B510-4969A0718C16";
paths = (
{
closed = 1;
nodes = (
"180 0 LINE",
"180 700 LINE",
"120 700 LINE",
"120 0 LINE"
);
}
);
width = 300;
}
);
note = I;
unicode = 0049;
},
{
color = 4;
glyphname = J;
lastChange = "2018-02-06 15:12:25 +0000";
layers = (
{
anchors = (
{
name = bottom;
position = "{269, 0}";
},
{
name = top;
position = "{325, 700}";
}
);
layerId = "0B1DFD06-3317-40CA-B510-4969A0718C16";
paths = (
{
closed = 1;
nodes = (
"383 -10 OFFCURVE",
"461 69 OFFCURVE",
"461 211 CURVE SMOOTH",
"461 700 LINE",
"401 700 LINE",
"401 190 LINE SMOOTH",
"401 83 OFFCURVE",
"343 23 OFFCURVE",
"237 23 CURVE SMOOTH",
"138 23 OFFCURVE",
"85 76 OFFCURVE",
"81 158 CURVE",
"21 158 LINE",
"30 47 OFFCURVE",
"112 -10 OFFCURVE",
"236 -10 CURVE SMOOTH"
);
}
);
width = 537;
}
);
note = J;
unicode = 004A;
},
{
color = 4;
glyphname = K;
lastChange = "2018-02-06 13:22:18 +0000";
layers = (
{
anchors = (
{
name = bottom;
position = "{336, 0}";
},
{
name = top;
position = "{336, 700}";
}
);
layerId = "0B1DFD06-3317-40CA-B510-4969A0718C16";
paths = (
{
closed = 1;
nodes = (
"623 700 LINE",
"569 700 LINE",
"125 260 LINE",
"125 204 LINE"
);
},
{
closed = 1;
nodes = (
"136 0 LINE",
"136 700 LINE",
"76 700 LINE",
"76 0 LINE"
);
},
{
closed = 1;
nodes = (
"652 0 LINE",
"318 421 LINE",
"279 381 LINE",
"581 0 LINE"
);
}
);
width = 672;
}
);
note = K;
unicode = 004B;
},
{
color = 4;
glyphname = L;
lastChange = "2018-02-06 13:26:42 +0000";
layers = (
{
anchors = (
{
name = bottom;
position = "{319, 0}";
},
{
name = center;
position = "{331, 350}";
},
{
name = top;
position = "{194, 700}";
},
{
name = topright;
position = "{582, 700}";
}
);
layerId = "0B1DFD06-3317-40CA-B510-4969A0718C16";
paths = (
{
closed = 1;
nodes = (
"582 0 LINE",
"582 38 LINE",
"136 38 LINE",
"136 700 LINE",
"76 700 LINE",
"76 0 LINE"
);
}
);
width = 602;
}
);
note = L;
unicode = 004C;
},
{
color = 4;
glyphname = M;
lastChange = "2018-02-06 15:36:50 +0000";
layers = (
{
anchors = (
{
name = bottom;
position = "{432, 0}";
},
{
name = top;
position = "{444, 700}";
}
);
layerId = "0B1DFD06-3317-40CA-B510-4969A0718C16";
paths = (
{
closed = 1;
nodes = (
"116 0 LINE",
"116 655 LINE",
"426 0 LINE",
"438 0 LINE",
"751 649 LINE",
"751 0 LINE",
"811 0 LINE",
"811 700 LINE",
"737 700 LINE",
"443 91 LINE",
"159 700 LINE",
"76 700 LINE",
"76 0 LINE"
);
}
);
width = 887;
}
);
note = M;
unicode = 004D;
},
{
color = 4;
glyphname = N;
lastChange = "2018-02-06 15:36:50 +0000";
layers = (
{
anchors = (
{
name = bottom;
position = "{363, 0}";
},
{
name = top;
position = "{363, 700}";
}
);
layerId = "0B1DFD06-3317-40CA-B510-4969A0718C16";
paths = (
{
closed = 1;
nodes = (
"116 0 LINE",
"116 648 LINE",
"640 0 LINE",
"650 0 LINE",
"650 700 LINE",
"610 700 LINE",
"610 110 LINE",
"139 700 LINE",
"76 700 LINE",
"76 0 LINE"
);
}
);
width = 726;
}
);
note = N;
unicode = 004E;
},
{
color = 4;
glyphname = O;
lastChange = "2018-02-06 13:42:46 +0000";
layers = (
{
anchors = (
{
name = bottom;
position = "{416, 0}";
},
{
name = center;
position = "{416, 350}";
},
{
name = ogonek;
position = "{749, 10}";
},
{
name = top;
position = "{416, 700}";
},
{
name = topleft;
position = "{20, 700}";
},
{
name = topright;
position = "{704, 540}";
}
);
layerId = "0B1DFD06-3317-40CA-B510-4969A0718C16";
paths = (
{
closed = 1;
nodes = (
"640 -10 OFFCURVE",
"776 120 OFFCURVE",
"776 353 CURVE SMOOTH",
"776 582 OFFCURVE",
"640 710 OFFCURVE",
"416 710 CURVE SMOOTH",
"192 710 OFFCURVE",
"56 582 OFFCURVE",
"56 353 CURVE SMOOTH",
"56 120 OFFCURVE",
"192 -10 OFFCURVE",
"416 -10 CURVE SMOOTH"
);
},
{
closed = 1;
nodes = (
"233 24 OFFCURVE",
"116 142 OFFCURVE",
"116 353 CURVE SMOOTH",
"116 561 OFFCURVE",
"232 676 OFFCURVE",
"416 676 CURVE SMOOTH",
"600 676 OFFCURVE",
"716 561 OFFCURVE",
"716 353 CURVE SMOOTH",
"716 142 OFFCURVE",
"599 24 OFFCURVE",
"416 24 CURVE SMOOTH"
);
}
);
width = 832;
}
);
note = O;
unicode = 004F;
},
{
color = 4;
glyphname = P;
lastChange = "2018-02-06 15:25:00 +0000";
layers = (
{
anchors = (
{
name = bottom;
position = "{316, 0}";
},
{
name = top;
position = "{316, 700}";
}
);
layerId = "0B1DFD06-3317-40CA-B510-4969A0718C16";
paths = (
{
closed = 1;
nodes = (
"136 0 LINE",
"136 274 LINE",
"322 274 LINE SMOOTH",
"504 274 OFFCURVE",
"605 349 OFFCURVE",
"605 487 CURVE SMOOTH",
"605 623 OFFCURVE",
"504 700 OFFCURVE",
"322 700 CURVE SMOOTH",
"76 700 LINE",
"76 0 LINE"
);
},
{
closed = 1;
nodes = (
"136 662 LINE",
"324 662 LINE SMOOTH",
"466 662 OFFCURVE",
"545 599 OFFCURVE",
"545 487 CURVE SMOOTH",
"545 375 OFFCURVE",
"466 312 OFFCURVE",
"324 312 CURVE SMOOTH",
"136 312 LINE"
);
}
);
width = 631;
}
);
note = P;
unicode = 0050;
},
{
color = 4;
glyphname = Q;
lastChange = "2018-02-06 15:25:00 +0000";
layers = (
{
anchors = (
{
name = bottom;
position = "{416, 0}";
},
{
name = top;
position = "{416, 700}";
}
);
components = (
{
name = O;
}
);
layerId = "0B1DFD06-3317-40CA-B510-4969A0718C16";
paths = (
{
closed = 1;
nodes = (
"684 -150 LINE",
"547 -154 OFFCURVE",
"435 -90 OFFCURVE",
"418 3 CURVE",
"365 3 LINE",
"399 -119 OFFCURVE",
"530 -192 OFFCURVE",
"677 -172 CURVE"
);
}
);
width = 832;
}
);
note = Q;
unicode = 0051;
},
{
color = 4;
glyphname = R;
lastChange = "2018-02-06 15:36:50 +0000";
layers = (
{
anchors = (
{
name = bottom;
position = "{334, 0}";
},
{
name = top;
position = "{334, 700}";
}
);
layerId = "0B1DFD06-3317-40CA-B510-4969A0718C16";
paths = (
{
closed = 1;
nodes = (
"136 0 LINE",
"136 294 LINE",
"346 294 LINE SMOOTH",
"528 294 OFFCURVE",
"629 367 OFFCURVE",
"629 497 CURVE SMOOTH",
"629 627 OFFCURVE",
"528 700 OFFCURVE",
"346 700 CURVE SMOOTH",
"76 700 LINE",
"76 0 LINE"
);
},
{
closed = 1;
nodes = (
"654 0 LINE",
"654 4 LINE",
"546 109 OFFCURVE",
"581 300 OFFCURVE",
"379 322 CURVE",
"379 297 LINE",
"514 252 OFFCURVE",
"511 83 OFFCURVE",
"584 0 CURVE"
);
},
{
closed = 1;
nodes = (
"136 662 LINE",
"348 662 LINE SMOOTH",
"490 662 OFFCURVE",
"569 603 OFFCURVE",
"569 497 CURVE SMOOTH",
"569 391 OFFCURVE",
"490 332 OFFCURVE",
"348 332 CURVE SMOOTH",
"136 332 LINE"
);
}
);
width = 668;
}
);
note = R;
unicode = 0052;
},
{
color = 4;
glyphname = S;
lastChange = "2018-02-06 13:52:28 +0000";
layers = (
{
anchors = (
{
name = bottom;
position = "{366, 0}";
},
{
name = top;
position = "{366, 700}";
}
);
layerId = "0B1DFD06-3317-40CA-B510-4969A0718C16";
paths = (
{
closed = 1;
nodes = (
"512 -10 OFFCURVE",
"671 32 OFFCURVE",
"671 185 CURVE SMOOTH",
"671 464 OFFCURVE",
"138 322 OFFCURVE",
"138 541 CURVE SMOOTH",
"138 627 OFFCURVE",
"221 676 OFFCURVE",
"357 676 CURVE SMOOTH",
"499 676 OFFCURVE",
"573 623 OFFCURVE",
"592 529 CURVE",
"652 529 LINE",
"627 673 OFFCURVE",
"491 710 OFFCURVE",
"365 710 CURVE SMOOTH",
"249 710 OFFCURVE",
"78 679 OFFCURVE",
"78 531 CURVE SMOOTH",
"78 271 OFFCURVE",
"611 414 OFFCURVE",
"611 179 CURVE SMOOTH",
"611 84 OFFCURVE",
"525 24 OFFCURVE",
"373 24 CURVE SMOOTH",
"213 24 OFFCURVE",
"131 86 OFFCURVE",
"120 211 CURVE",
"60 211 LINE",
"77 38 OFFCURVE",
"222 -10 OFFCURVE",
"375 -10 CURVE SMOOTH"
);
}
);
width = 731;
}
);
note = S;
unicode = 0053;
},
{
color = 4;
glyphname = T;
lastChange = "2018-02-06 13:52:48 +0000";
layers = (
{
anchors = (
{
name = bottom;
position = "{340, 0}";
},
{
name = center;
position = "{340, 350}";
},
{
name = top;
position = "{340, 700}";
}
);
layerId = "0B1DFD06-3317-40CA-B510-4969A0718C16";
paths = (
{
closed = 1;
nodes = (
"370 0 LINE",
"370 662 LINE",
"670 662 LINE",
"670 700 LINE",
"10 700 LINE",
"10 662 LINE",
"310 662 LINE",
"310 0 LINE"
);
}
);
width = 680;
}
);
note = T;
unicode = 0054;
},
{
color = 4;
glyphname = U;
lastChange = "2018-02-06 15:17:15 +0000";
layers = (
{
anchors = (
{
name = bottom;
position = "{386, 0}";
},
{
name = ogonek;
position = "{458, 10}";
},
{
name = top;
position = "{386, 700}";
},
{
name = topright;
position = "{686, 529}";
}
);
layerId = "0B1DFD06-3317-40CA-B510-4969A0718C16";
paths = (
{
closed = 1;
nodes = (
"595 -10 OFFCURVE",
"696 88 OFFCURVE",
"696 291 CURVE SMOOTH",
"696 700 LINE",
"636 700 LINE",
"636 268 LINE SMOOTH",
"636 103 OFFCURVE",
"555 24 OFFCURVE",
"386 24 CURVE SMOOTH",
"217 24 OFFCURVE",
"136 103 OFFCURVE",
"136 268 CURVE SMOOTH",
"136 700 LINE",
"76 700 LINE",
"76 291 LINE SMOOTH",
"76 88 OFFCURVE",
"177 -10 OFFCURVE",
"386 -10 CURVE SMOOTH"
);
}
);
width = 772;
}
);
note = U;
unicode = 0055;
},
{
color = 4;
glyphname = V;
lastChange = "2018-02-06 16:49:45 +0000";
layers = (
{
anchors = (
{
name = bottom;
position = "{369, 0}";
},
{
name = top;
position = "{369, 700}";
}
);
background = {
paths = (
{
closed = 1;
nodes = (
"381 -10 LINE",
"736 700 LINE",
"698 700 LINE",
"387 69 LINE",
"76 700 LINE",
"12 700 LINE",
"366 -10 LINE"
);
}
);
};
layerId = "0B1DFD06-3317-40CA-B510-4969A0718C16";
paths = (
{
closed = 1;
nodes = (
"366 -10 LINE",
"731 700 LINE",
"692 700 LINE",
"372 71 LINE",
"77 700 LINE",
"6 700 LINE",
"349 -10 LINE"
);
}
);
width = 737;
}
);
note = V;
unicode = 0056;
},
{
color = 4;
glyphname = W;
lastChange = "2018-02-06 15:17:34 +0000";
layers = (
{
anchors = (
{
name = bottom;
position = "{481, 0}";
},
{
name = top;
position = "{481, 700}";
}
);
layerId = "0B1DFD06-3317-40CA-B510-4969A0718C16";
paths = (
{
closed = 1;
nodes = (
"275 -10 LINE",
"486 598 LINE",
"697 -10 LINE",
"711 -10 LINE",
"955 700 LINE",
"920 700 LINE",
"712 100 LINE",
"505 700 LINE",
"484 700 LINE",
"277 110 LINE",
"69 700 LINE",
"6 700 LINE",
"260 -10 LINE"
);
}
);
width = 961;
}
);
note = W;
unicode = 0057;
},
{
color = 4;
glyphname = X;
lastChange = "2018-02-06 15:25:00 +0000";
layers = (
{
anchors = (
{
name = bottom;
position = "{328, 0}";
},
{
name = top;
position = "{328, 700}";
}
);
layerId = "0B1DFD06-3317-40CA-B510-4969A0718C16";
paths = (
{
closed = 1;
nodes = (
"47 0 LINE",
"639 700 LINE",
"599 700 LINE",
"6 0 LINE"
);
},
{
closed = 1;
nodes = (
"649 0 LINE",
"94 700 LINE",
"18 700 LINE",
"575 0 LINE"
);
}
);
width = 655;
}
);
note = X;
unicode = 0058;
},
{
color = 4;
glyphname = Y;
lastChange = "2018-02-06 13:57:58 +0000";
layers = (
{
anchors = (
{
name = bottom;
position = "{345, 0}";
},
{
name = top;
position = "{345, 700}";
},
{
name = topleft;
position = "{20, 700}";
}
);
layerId = "0B1DFD06-3317-40CA-B510-4969A0718C16";
paths = (
{
closed = 1;
nodes = (
"368 0 LINE",
"368 315 LINE",
"684 700 LINE",
"641 700 LINE",
"346 338 LINE",
"72 700 LINE",
"6 700 LINE",
"308 300 LINE",
"308 0 LINE"
);
}
);
width = 690;
}
);
note = Y;
unicode = 0059;
},
{
color = 4;
glyphname = Z;
lastChange = "2018-02-06 13:57:58 +0000";
layers = (
{
anchors = (
{
name = bottom;
position = "{311, 0}";
},
{
name = top;
position = "{311, 700}";
}
);
layerId = "0B1DFD06-3317-40CA-B510-4969A0718C16";
paths = (
{
closed = 1;
nodes = (
"582 0 LINE",
"582 38 LINE",
"105 38 LINE",
"602 692 LINE",
"602 700 LINE",
"55 700 LINE",
"55 662 LINE",
"516 662 LINE",
"20 8 LINE",
"20 0 LINE"
);
}
);
width = 622;
}
);
note = Z;
unicode = 005A;
},
{
color = 4;
glyphname = a;
lastChange = "2018-02-06 16:30:13 +0000";
layers = (
{
anchors = (
{
name = bottom;
position = "{286, 0}";
},
{
name = ogonek;
position = "{480, 10}";
},
{
name = top;
position = "{291, 490}";
}
);
layerId = "0B1DFD06-3317-40CA-B510-4969A0718C16";
paths = (
{
closed = 1;
nodes = (
"358 -10 OFFCURVE",
"417 39 OFFCURVE",
"452 98 CURVE",
"454 70 OFFCURVE",
"459 29 OFFCURVE",
"466 0 CURVE",
"517 0 LINE",
"507 56 OFFCURVE",
"503 101 OFFCURVE",
"503 160 CURVE SMOOTH",
"503 324 LINE SMOOTH",
"503 437 OFFCURVE",
"426 500 OFFCURVE",
"289 500 CURVE SMOOTH",
"168 500 OFFCURVE",
"89 446 OFFCURVE",
"75 348 CURVE",
"122 348 LINE",
"132 424 OFFCURVE",
"194 466 OFFCURVE",
"289 466 CURVE SMOOTH",
"394 466 OFFCURVE",
"449 419 OFFCURVE",
"449 335 CURVE SMOOTH",
"449 298 LINE",
"293 298 LINE SMOOTH",
"136 298 OFFCURVE",
"58 240 OFFCURVE",
"58 139 CURVE SMOOTH",
"58 45 OFFCURVE",
"123 -10 OFFCURVE",
"246 -10 CURVE SMOOTH"
);
},
{
closed = 1;
nodes = (
"166 22 OFFCURVE",
"112 61 OFFCURVE",
"112 141 CURVE SMOOTH",
"112 224 OFFCURVE",
"169 264 OFFCURVE",
"307 264 CURVE SMOOTH",
"449 264 LINE",
"449 205 LINE SMOOTH",
"449 112 OFFCURVE",
"369 22 OFFCURVE",
"263 22 CURVE SMOOTH"
);
}
);
width = 582;
}
);
note = a;
unicode = 0061;
},
{
color = 4;
glyphname = b;
lastChange = "2018-02-06 15:25:00 +0000";
layers = (
{
anchors = (
{
name = bottom;
position = "{315, 0}";
},
{
name = top;
position = "{315, 490}";
}
);
layerId = "0B1DFD06-3317-40CA-B510-4969A0718C16";
paths = (
{
closed = 1;
nodes = (
"485 -10 OFFCURVE",
"580 82 OFFCURVE",
"580 244 CURVE SMOOTH",
"580 410 OFFCURVE",
"481 500 OFFCURVE",
"338 500 CURVE SMOOTH",
"240 500 OFFCURVE",
"161 457 OFFCURVE",
"124 389 CURVE",
"124 683 LINE",
"70 683 LINE",
"70 0 LINE",
"124 0 LINE",
"124 103 LINE",
"157 45 OFFCURVE",
"222 -10 OFFCURVE",
"337 -10 CURVE SMOOTH"
);
},
{
closed = 1;
nodes = (
"210 24 OFFCURVE",
"124 109 OFFCURVE",
"124 243 CURVE SMOOTH",
"124 379 OFFCURVE",
"212 466 OFFCURVE",
"329 466 CURVE SMOOTH",
"445 466 OFFCURVE",
"526 381 OFFCURVE",
"526 247 CURVE SMOOTH",
"526 111 OFFCURVE",
"443 24 OFFCURVE",
"326 24 CURVE SMOOTH"
);
}
);
width = 630;
}
);
note = b;
unicode = 0062;
},
{
color = 4;
glyphname = c;
lastChange = "2018-02-06 13:59:43 +0000";
layers = (
{
anchors = (
{
name = bottom;
position = "{302, 0}";
},
{
name = top;
position = "{302, 490}";
}
);
layerId = "0B1DFD06-3317-40CA-B510-4969A0718C16";
paths = (
{
closed = 1;
nodes = (
"441 -10 OFFCURVE",
"530 57 OFFCURVE",
"554 149 CURVE",
"502 149 LINE",
"481 77 OFFCURVE",
"407 24 OFFCURVE",
"311 24 CURVE SMOOTH",
"194 24 OFFCURVE",
"104 105 OFFCURVE",
"104 245 CURVE SMOOTH",
"104 385 OFFCURVE",
"194 466 OFFCURVE",
"311 466 CURVE SMOOTH",
"403 466 OFFCURVE",
"479 417 OFFCURVE",
"502 341 CURVE",
"554 341 LINE",
"526 444 OFFCURVE",
"428 500 OFFCURVE",
"314 500 CURVE SMOOTH",
"167 500 OFFCURVE",
"50 408 OFFCURVE",
"50 245 CURVE SMOOTH",
"50 82 OFFCURVE",
"167 -10 OFFCURVE",
"315 -10 CURVE SMOOTH"
);
}
);
width = 604;
}
);
note = c;
unicode = 0063;
},
{
color = 4;
glyphname = d;
lastChange = "2018-02-06 14:55:53 +0000";
layers = (
{
anchors = (
{
name = bottom;
position = "{315, 0}";
},
{
name = center;
position = "{315, 245}";
},
{
name = top;
position = "{315, 490}";
},
{
name = topright;
position = "{590, 683}";
}
);
layerId = "0B1DFD06-3317-40CA-B510-4969A0718C16";
paths = (
{
closed = 1;
nodes = (
"400 -10 OFFCURVE",
"472 35 OFFCURVE",
"506 99 CURVE",
"506 0 LINE",
"560 0 LINE",
"560 683 LINE",
"506 683 LINE",
"506 393 LINE",
"467 459 OFFCURVE",
"392 500 OFFCURVE",
"296 500 CURVE SMOOTH",
"156 500 OFFCURVE",
"50 401 OFFCURVE",
"50 244 CURVE SMOOTH",
"50 89 OFFCURVE",
"156 -10 OFFCURVE",
"300 -10 CURVE SMOOTH"
);
},
{
closed = 1;
nodes = (
"189 24 OFFCURVE",
"104 111 OFFCURVE",
"104 247 CURVE SMOOTH",
"104 381 OFFCURVE",
"188 466 OFFCURVE",
"302 466 CURVE SMOOTH",
"420 466 OFFCURVE",
"506 379 OFFCURVE",
"506 242 CURVE SMOOTH",
"506 109 OFFCURVE",
"421 24 OFFCURVE",
"305 24 CURVE SMOOTH"
);
}
);
width = 630;
}
);
note = d;
unicode = 0064;
},
{
color = 4;
glyphname = e;
lastChange = "2018-02-06 14:59:57 +0000";
layers = (
{
anchors = (
{
name = bottom;
position = "{301, 0}";
},
{
name = ogonek;
position = "{434, 44}";
},
{
name = top;
position = "{301, 490}";
}
);
background = {
paths = (
{
closed = 0;
nodes = (
"295 466 LINE SMOOTH",
"381 466 OFFCURVE",
"445 417 OFFCURVE",
"466 341 CURVE",
"520 341 LINE",
"495 439 OFFCURVE",
"415 500 OFFCURVE",
"301 500 CURVE SMOOTH"
);
}
);
};
layerId = "0B1DFD06-3317-40CA-B510-4969A0718C16";
paths = (
{
closed = 1;
nodes = (
"432 -10 OFFCURVE",
"518 56 OFFCURVE",
"544 149 CURVE",
"492 149 LINE",
"472 73 OFFCURVE",
"393 24 OFFCURVE",
"303 24 CURVE SMOOTH",
"184 24 OFFCURVE",
"104 110 OFFCURVE",
"104 247 CURVE SMOOTH",
"104 383 OFFCURVE",
"179 466 OFFCURVE",
"304 466 CURVE SMOOTH",
"423 466 OFFCURVE",
"498 390 OFFCURVE",
"505 252 CURVE",
"551 252 LINE",
"545 409 OFFCURVE",
"450 500 OFFCURVE",
"305 500 CURVE SMOOTH",
"152 500 OFFCURVE",
"50 398 OFFCURVE",
"50 243 CURVE SMOOTH",
"50 91 OFFCURVE",
"152 -10 OFFCURVE",
"307 -10 CURVE SMOOTH"
);
},
{
closed = 1;
nodes = (
"526 252 LINE",
"526 286 LINE",
"80 286 LINE",
"80 252 LINE"
);
}
);
width = 601;
}
);
note = e;
unicode = 0065;
},
{
color = 4;
glyphname = f;
lastChange = "2018-02-06 15:25:00 +0000";
layers = (
{
anchors = (
{
name = bottom;
position = "{156, 0}";
},
{
name = top;
position = "{156, 490}";
}
);
layerId = "0B1DFD06-3317-40CA-B510-4969A0718C16";
paths = (
{
closed = 1;
nodes = (
"173 0 LINE",
"173 456 LINE",
"301 456 LINE",
"312 490 LINE",
"173 490 LINE",
"173 561 LINE SMOOTH",
"173 618 OFFCURVE",
"209 645 OFFCURVE",
"252 645 CURVE SMOOTH",
"273 645 OFFCURVE",
"292 638 OFFCURVE",
"305 626 CURVE",
"318 661 LINE",
"302 673 OFFCURVE",
"275 679 OFFCURVE",
"246 679 CURVE SMOOTH",
"172 679 OFFCURVE",
"119 640 OFFCURVE",
"119 543 CURVE SMOOTH",
"119 490 LINE",
"28 490 LINE",
"16 456 LINE",
"119 456 LINE",
"119 0 LINE"
);
}
);
width = 312;
}
);
note = f;
unicode = 0066;
},
{
color = 4;
glyphname = g;
lastChange = "2018-02-06 15:00:45 +0000";
layers = (
{
anchors = (
{
name = bottom;
position = "{308, -186}";
},
{
name = top;
position = "{308, 490}";
}
);
layerId = "0B1DFD06-3317-40CA-B510-4969A0718C16";
paths = (
{
closed = 1;
nodes = (
"458 -194 OFFCURVE",
"553 -128 OFFCURVE",
"553 -37 CURVE SMOOTH",
"553 59 OFFCURVE",
"446 95 OFFCURVE",
"304 95 CURVE SMOOTH",
"290 95 OFFCURVE",
"274 95 OFFCURVE",
"259 95 CURVE SMOOTH",
"214 95 OFFCURVE",
"174 102 OFFCURVE",
"174 124 CURVE SMOOTH",
"174 153 OFFCURVE",
"249 159 OFFCURVE",
"300 163 CURVE SMOOTH",
"466 176 OFFCURVE",
"517 253 OFFCURVE",
"517 335 CURVE SMOOTH",
"517 443 OFFCURVE",
"429 500 OFFCURVE",
"299 500 CURVE SMOOTH",
"164 500 OFFCURVE",
"81 438 OFFCURVE",
"81 336 CURVE SMOOTH",
"81 260 OFFCURVE",
"128 205 OFFCURVE",
"201 183 CURVE",
"148 178 OFFCURVE",
"116 150 OFFCURVE",
"116 116 CURVE SMOOTH",
"116 87 OFFCURVE",
"139 56 OFFCURVE",
"207 49 CURVE",
"84 36 OFFCURVE",
"40 -6 OFFCURVE",
"40 -59 CURVE SMOOTH",
"40 -140 OFFCURVE",
"140 -194 OFFCURVE",
"291 -194 CURVE SMOOTH"
);
},
{
closed = 1;
nodes = (
"162 -164 OFFCURVE",
"79 -118 OFFCURVE",
"79 -59 CURVE SMOOTH",
"79 0 OFFCURVE",
"164 41 OFFCURVE",
"319 41 CURVE SMOOTH",
"428 41 OFFCURVE",
"515 21 OFFCURVE",
"515 -44 CURVE SMOOTH",
"515 -110 OFFCURVE",
"426 -164 OFFCURVE",
"289 -164 CURVE SMOOTH"
);
},
{
closed = 1;
nodes = (
"194 198 OFFCURVE",
"135 244 OFFCURVE",
"135 332 CURVE SMOOTH",
"135 420 OFFCURVE",
"194 466 OFFCURVE",
"299 466 CURVE SMOOTH",
"404 466 OFFCURVE",
"463 420 OFFCURVE",
"463 332 CURVE SMOOTH",
"463 244 OFFCURVE",
"404 198 OFFCURVE",
"299 198 CURVE SMOOTH"
);
},
{
closed = 1;
nodes = (
"434 494 OFFCURVE",
"472 504 OFFCURVE",
"508 504 CURVE SMOOTH",
"528 504 OFFCURVE",
"548 501 OFFCURVE",
"565 495 CURVE",
"565 539 LINE",
"551 542 OFFCURVE",
"537 544 OFFCURVE",
"521 544 CURVE SMOOTH",
"473 544 OFFCURVE",
"421 527 OFFCURVE",
"383 479 CURVE",
"409 471 LINE"
);
}
);
width = 615;
}
);
note = g;
unicode = 0067;
},
{
color = 4;
glyphname = h;
lastChange = "2018-02-06 15:04:01 +0000";
layers = (
{
anchors = (
{
name = bottom;
position = "{294, 0}";
},
{
name = center;
position = "{294, 245}";
},
{
name = top;
position = "{207, 683}";
}
);
layerId = "0B1DFD06-3317-40CA-B510-4969A0718C16";
paths = (
{
closed = 1;
nodes = (
"124 0 LINE",
"124 264 LINE SMOOTH",
"124 390 OFFCURVE",
"212 466 OFFCURVE",
"325 466 CURVE SMOOTH",
"414 466 OFFCURVE",
"474 419 OFFCURVE",
"474 334 CURVE SMOOTH",
"474 0 LINE",
"528 0 LINE",
"528 326 LINE SMOOTH",
"528 438 OFFCURVE",
"453 500 OFFCURVE",
"329 500 CURVE SMOOTH",
"215 500 OFFCURVE",
"153 442 OFFCURVE",
"124 387 CURVE",
"124 683 LINE",
"70 683 LINE",
"70 0 LINE"
);
}
);
width = 588;
}
);
note = h;
unicode = 0068;
},
{
color = 4;
glyphname = i;
lastChange = "2018-02-06 14:20:08 +0000";
layers = (
{
anchors = (
{
name = bottom;
position = "{123, 0}";
}
);
layerId = "0B1DFD06-3317-40CA-B510-4969A0718C16";
paths = (
{
closed = 1;
nodes = (
"150 0 LINE",
"150 490 LINE",
"96 490 LINE",
"96 0 LINE"
);
},
{
closed = 1;
nodes = (
"151 558 OFFCURVE",
"171 578 OFFCURVE",
"171 605 CURVE SMOOTH",
"171 632 OFFCURVE",
"151 652 OFFCURVE",
"123 652 CURVE SMOOTH",
"95 652 OFFCURVE",
"75 632 OFFCURVE",
"75 605 CURVE SMOOTH",
"75 578 OFFCURVE",
"95 558 OFFCURVE",
"123 558 CURVE SMOOTH"
);
}
);
width = 246;
}
);
note = i;
unicode = 0069;
},
{
color = 4;
glyphname = j;
lastChange = "2018-02-06 09:53:53 +0000";
layers = (
{
guideLines = (
{
angle = 90;
position = "{141, 539}";
}
);
layerId = "0B1DFD06-3317-40CA-B510-4969A0718C16";
paths = (
{
closed = 1;
nodes = (
"151 -184 OFFCURVE",
"168 -52 OFFCURVE",
"168 50 CURVE SMOOTH",
"168 490 LINE",
"114 490 LINE",
"114 35 LINE SMOOTH",
"114 -37 OFFCURVE",
"105 -139 OFFCURVE",
"21 -139 CURVE SMOOTH",
"-5 -139 OFFCURVE",
"-24 -129 OFFCURVE",
"-44 -105 CURVE",
"-69 -147 LINE",
"-50 -167 OFFCURVE",
"-24 -184 OFFCURVE",
"22 -184 CURVE SMOOTH"
);
},
{
closed = 1;
nodes = (
"169 558 OFFCURVE",
"189 578 OFFCURVE",
"189 605 CURVE SMOOTH",
"189 632 OFFCURVE",
"169 652 OFFCURVE",
"141 652 CURVE SMOOTH",
"113 652 OFFCURVE",
"93 632 OFFCURVE",
"93 605 CURVE SMOOTH",
"93 578 OFFCURVE",
"113 558 OFFCURVE",
"141 558 CURVE SMOOTH"
);
}
);
width = 282;
}
);
note = j;
unicode = 006A;
},
{
color = 4;
glyphname = k;
lastChange = "2018-02-06 15:25:00 +0000";
layers = (
{
anchors = (
{
name = bottom;
position = "{271, 0}";
},
{
name = top;
position = "{271, 490}";
}
);
layerId = "0B1DFD06-3317-40CA-B510-4969A0718C16";
paths = (
{
closed = 1;
nodes = (
"124 0 LINE",
"124 184 LINE",
"471 490 LINE",
"431 490 LINE",
"124 223 LINE",
"124 683 LINE",
"70 683 LINE",
"70 0 LINE"
);
},
{
closed = 1;
nodes = (
"524 0 LINE",
"271 319 LINE",
"231 284 LINE",
"457 0 LINE"
);
}
);
width = 542;
}
);
note = k;
unicode = 006B;
},
{
color = 4;
glyphname = l;
lastChange = "2018-02-06 15:24:03 +0000";
layers = (
{
anchors = (
{
name = bottom;
position = "{127, 0}";
},
{
name = center;
position = "{250, 245}";
},
{
name = top;
position = "{127, 683}";
},
{
name = topright;
position = "{203, 683}";
}
);
layerId = "0B1DFD06-3317-40CA-B510-4969A0718C16";
paths = (
{
closed = 1;
nodes = (
"154 0 LINE",
"154 683 LINE",
"100 683 LINE",
"100 0 LINE"
);
}
);
width = 254;
}
);
note = l;
unicode = 006C;
},
{
color = 4;
glyphname = m;
lastChange = "2018-02-06 15:24:55 +0000";
layers = (
{
anchors = (
{
name = bottom;
position = "{464, 0}";
},
{
name = top;
position = "{464, 490}";
}
);
layerId = "0B1DFD06-3317-40CA-B510-4969A0718C16";
paths = (
{
closed = 1;
nodes = (
"124 0 LINE",
"124 279 LINE SMOOTH",
"124 385 OFFCURVE",
"185 466 OFFCURVE",
"288 466 CURVE SMOOTH",
"407 466 OFFCURVE",
"442 375 OFFCURVE",
"442 283 CURVE SMOOTH",
"442 0 LINE",
"496 0 LINE",
"496 247 LINE SMOOTH",
"496 350 OFFCURVE",
"541 466 OFFCURVE",
"665 466 CURVE SMOOTH",
"752 466 OFFCURVE",
"814 410 OFFCURVE",
"814 327 CURVE SMOOTH",
"814 0 LINE",
"868 0 LINE",
"868 318 LINE SMOOTH",
"868 442 OFFCURVE",
"786 500 OFFCURVE",
"676 500 CURVE SMOOTH",
"582 500 OFFCURVE",
"515 457 OFFCURVE",
"485 375 CURVE",
"461 452 OFFCURVE",
"402 500 OFFCURVE",
"304 500 CURVE SMOOTH",
"233 500 OFFCURVE",
"161 474 OFFCURVE",
"123 400 CURVE",
"123 490 LINE",
"70 490 LINE",
"70 0 LINE"
);
}
);
width = 928;
}
);
note = m;
unicode = 006D;
},
{
color = 4;
glyphname = n;
lastChange = "2018-02-06 15:24:55 +0000";
layers = (
{
anchors = (
{
name = bottom;
position = "{294, 0}";
},
{
name = top;
position = "{294, 490}";
}
);
layerId = "0B1DFD06-3317-40CA-B510-4969A0718C16";
paths = (
{
closed = 1;
nodes = (
"124 0 LINE",
"124 279 LINE SMOOTH",
"124 383 OFFCURVE",
"192 466 OFFCURVE",
"314 466 CURVE SMOOTH",
"406 466 OFFCURVE",
"474 419 OFFCURVE",
"474 324 CURVE SMOOTH",
"474 0 LINE",
"528 0 LINE",
"528 314 LINE SMOOTH",
"528 437 OFFCURVE",
"438 500 OFFCURVE",
"320 500 CURVE SMOOTH",
"216 500 OFFCURVE",
"151 451 OFFCURVE",
"124 400 CURVE",
"124 490 LINE",
"70 490 LINE",
"70 0 LINE"
);
}
);
width = 588;
}
);
note = n;
unicode = 006E;
},
{
color = 4;
glyphname = o;
lastChange = "2018-02-06 15:27:40 +0000";
layers = (
{
anchors = (
{
name = bottom;
position = "{318, 0}";
},
{
name = center;
position = "{318, 245}";
},
{
name = ogonek;
position = "{572, 10}";
},
{
name = top;
position = "{318, 490}";
},
{
name = topright;
position = "{546, 325}";
}
);
layerId = "0B1DFD06-3317-40CA-B510-4969A0718C16";
paths = (
{
closed = 1;
nodes = (
"482 -10 OFFCURVE",
"586 97 OFFCURVE",
"586 245 CURVE SMOOTH",
"586 393 OFFCURVE",
"482 500 OFFCURVE",
"318 500 CURVE SMOOTH",
"154 500 OFFCURVE",
"50 393 OFFCURVE",
"50 245 CURVE SMOOTH",
"50 97 OFFCURVE",
"154 -10 OFFCURVE",
"318 -10 CURVE SMOOTH"
);
},
{
closed = 1;
nodes = (
"184 24 OFFCURVE",
"105 110 OFFCURVE",
"105 245 CURVE SMOOTH",
"105 380 OFFCURVE",
"184 466 OFFCURVE",
"318 466 CURVE SMOOTH",
"452 466 OFFCURVE",
"531 380 OFFCURVE",
"531 245 CURVE SMOOTH",
"531 110 OFFCURVE",
"452 24 OFFCURVE",
"318 24 CURVE SMOOTH"
);
}
);
width = 636;
}
);
note = o;
unicode = 006F;
},
{
color = 4;
glyphname = p;
lastChange = "2018-02-06 15:24:55 +0000";
layers = (
{
anchors = (
{
name = bottom;
position = "{315, 0}";
},
{
name = top;
position = "{315, 490}";
}
);
background = {
paths = (
{
closed = 1;
nodes = (
"124 -193 LINE",
"124 116 LINE",
"161 47 OFFCURVE",
"237 -10 OFFCURVE",
"350 -10 CURVE SMOOTH",
"506 -10 OFFCURVE",
"610 92 OFFCURVE",
"610 249 CURVE SMOOTH",
"610 404 OFFCURVE",
"508 500 OFFCURVE",
"354 500 CURVE SMOOTH",
"245 500 OFFCURVE",
"167 452 OFFCURVE",
"123 383 CURVE",
"112 490 LINE",
"70 490 LINE",
"70 -193 LINE"
);
},
{
closed = 1;
nodes = (
"220 24 OFFCURVE",
"124 121 OFFCURVE",
"124 251 CURVE SMOOTH",
"124 380 OFFCURVE",
"220 466 OFFCURVE",
"340 466 CURVE SMOOTH",
"460 466 OFFCURVE",
"556 381 OFFCURVE",
"556 251 CURVE SMOOTH",
"556 120 OFFCURVE",
"460 24 OFFCURVE",
"340 24 CURVE SMOOTH"
);
}
);
};
layerId = "0B1DFD06-3317-40CA-B510-4969A0718C16";
paths = (
{
closed = 1;
nodes = (
"124 -193 LINE",
"124 103 LINE",
"157 45 OFFCURVE",
"222 -10 OFFCURVE",
"337 -10 CURVE SMOOTH",
"485 -10 OFFCURVE",
"580 82 OFFCURVE",
"580 244 CURVE SMOOTH",
"580 410 OFFCURVE",
"481 500 OFFCURVE",
"338 500 CURVE SMOOTH",
"240 500 OFFCURVE",
"161 457 OFFCURVE",
"124 389 CURVE",
"124 466 LINE",
"70 466 LINE",
"70 -193 LINE"
);
},
{
closed = 1;
nodes = (
"210 24 OFFCURVE",
"124 109 OFFCURVE",
"124 243 CURVE SMOOTH",
"124 379 OFFCURVE",
"212 466 OFFCURVE",
"329 466 CURVE SMOOTH",
"445 466 OFFCURVE",
"526 381 OFFCURVE",
"526 247 CURVE SMOOTH",
"526 111 OFFCURVE",
"443 24 OFFCURVE",
"326 24 CURVE SMOOTH"
);
}
);
width = 630;
}
);
note = p;
unicode = 0070;
},
{
color = 4;
glyphname = q;
lastChange = "2018-02-06 15:24:55 +0000";
layers = (
{
anchors = (
{
name = bottom;
position = "{315, 0}";
},
{
name = top;
position = "{315, 490}";
}
);
layerId = "0B1DFD06-3317-40CA-B510-4969A0718C16";
paths = (
{
closed = 1;
nodes = (
"560 -193 LINE",
"560 466 LINE",
"506 466 LINE",
"506 389 LINE",
"469 457 OFFCURVE",
"390 500 OFFCURVE",
"292 500 CURVE SMOOTH",
"149 500 OFFCURVE",
"50 410 OFFCURVE",
"50 244 CURVE SMOOTH",
"50 82 OFFCURVE",
"145 -10 OFFCURVE",
"293 -10 CURVE SMOOTH",
"408 -10 OFFCURVE",
"473 45 OFFCURVE",
"506 103 CURVE",
"506 -193 LINE"
);
},
{
closed = 1;
nodes = (
"187 24 OFFCURVE",
"104 111 OFFCURVE",
"104 247 CURVE SMOOTH",
"104 381 OFFCURVE",
"185 466 OFFCURVE",
"301 466 CURVE SMOOTH",
"418 466 OFFCURVE",
"506 379 OFFCURVE",
"506 243 CURVE SMOOTH",
"506 109 OFFCURVE",
"420 24 OFFCURVE",
"304 24 CURVE SMOOTH"
);
}
);
width = 630;
}
);
note = q;
unicode = 0071;
},
{
color = 4;
glyphname = r;
lastChange = "2018-02-06 16:30:57 +0000";
layers = (
{
anchors = (
{
name = bottom;
position = "{103, 0}";
},
{
name = top;
position = "{189, 490}";
}
);
layerId = "0B1DFD06-3317-40CA-B510-4969A0718C16";
paths = (
{
closed = 1;
nodes = (
"124 0 LINE",
"124 255 LINE SMOOTH",
"124 348 OFFCURVE",
"161 456 OFFCURVE",
"268 456 CURVE SMOOTH",
"282 456 OFFCURVE",
"298 454 OFFCURVE",
"310 448 CURVE",
"319 496 LINE",
"312 498 OFFCURVE",
"300 500 OFFCURVE",
"285 500 CURVE SMOOTH",
"201 500 OFFCURVE",
"148 451 OFFCURVE",
"124 383 CURVE",
"124 490 LINE",
"70 490 LINE",
"70 0 LINE"
);
}
);
width = 334;
}
);
note = r;
unicode = 0072;
},
{
color = 4;
glyphname = s;
lastChange = "2018-02-06 15:24:55 +0000";
layers = (
{
anchors = (
{
name = bottom;
position = "{282, 0}";
},
{
name = top;
position = "{282, 490}";
}
);
layerId = "0B1DFD06-3317-40CA-B510-4969A0718C16";
paths = (
{
closed = 1;
nodes = (
"381 -10 OFFCURVE",
"514 20 OFFCURVE",
"514 136 CURVE SMOOTH",
"514 232 OFFCURVE",
"422 259 OFFCURVE",
"306 279 CURVE SMOOTH",
"209 296 OFFCURVE",
"121 304 OFFCURVE",
"121 372 CURVE SMOOTH",
"121 444 OFFCURVE",
"216 466 OFFCURVE",
"280 466 CURVE SMOOTH",
"368 466 OFFCURVE",
"446 426 OFFCURVE",
"458 347 CURVE",
"511 347 LINE",
"495 454 OFFCURVE",
"394 500 OFFCURVE",
"280 500 CURVE SMOOTH",
"188 500 OFFCURVE",
"67 470 OFFCURVE",
"67 368 CURVE SMOOTH",
"67 277 OFFCURVE",
"163 257 OFFCURVE",
"284 238 CURVE SMOOTH",
"380 223 OFFCURVE",
"460 210 OFFCURVE",
"460 135 CURVE SMOOTH",
"460 53 OFFCURVE",
"368 24 OFFCURVE",
"290 24 CURVE SMOOTH",
"200 24 OFFCURVE",
"113 62 OFFCURVE",
"103 143 CURVE",
"50 143 LINE",
"65 32 OFFCURVE",
"179 -10 OFFCURVE",
"288 -10 CURVE SMOOTH"
);
}
);
width = 564;
}
);
note = s;
unicode = 0073;
},
{
color = 4;
glyphname = t;
lastChange = "2018-02-06 15:35:20 +0000";
layers = (
{
anchors = (
{
name = bottom;
position = "{218, 0}";
},
{
name = center;
position = "{164, 245}";
},
{
name = top;
position = "{150, 628}";
},
{
name = topright;
position = "{308, 490}";
}
);
layerId = "0B1DFD06-3317-40CA-B510-4969A0718C16";
paths = (
{
closed = 1;
nodes = (
"247 -10 OFFCURVE",
"272 -4 OFFCURVE",
"297 7 CURVE",
"297 43 LINE",
"273 30 OFFCURVE",
"250 24 OFFCURVE",
"229 24 CURVE SMOOTH",
"169 24 OFFCURVE",
"159 70 OFFCURVE",
"159 120 CURVE SMOOTH",
"159 456 LINE",
"287 456 LINE",
"298 490 LINE",
"159 490 LINE",
"159 628 LINE",
"141 628 LINE",
"105 490 LINE",
"28 490 LINE",
"16 456 LINE",
"105 456 LINE",
"105 137 LINE SMOOTH",
"105 56 OFFCURVE",
"122 -10 OFFCURVE",
"218 -10 CURVE SMOOTH"
);
}
);
width = 328;
}
);
note = t;
unicode = 0074;
},
{
color = 4;
glyphname = u;
lastChange = "2018-02-06 16:22:55 +0000";
layers = (
{
anchors = (
{
name = bottom;
position = "{294, 0}";
},
{
name = ogonek;
position = "{485, 6}";
},
{
name = top;
position = "{294, 490}";
},
{
name = topright;
position = "{491, 318}";
}
);
layerId = "0B1DFD06-3317-40CA-B510-4969A0718C16";
paths = (
{
closed = 1;
nodes = (
"372 -10 OFFCURVE",
"436 38 OFFCURVE",
"464 90 CURVE",
"464 0 LINE",
"518 0 LINE",
"518 490 LINE",
"464 490 LINE",
"464 211 LINE SMOOTH",
"464 107 OFFCURVE",
"396 24 OFFCURVE",
"272 24 CURVE SMOOTH",
"183 24 OFFCURVE",
"114 67 OFFCURVE",
"114 171 CURVE SMOOTH",
"114 490 LINE",
"60 490 LINE",
"60 181 LINE SMOOTH",
"60 49 OFFCURVE",
"150 -10 OFFCURVE",
"267 -10 CURVE SMOOTH"
);
}
);
width = 588;
}
);
note = u;
unicode = 0075;
},
{
color = 4;
glyphname = v;
lastChange = "2018-02-06 15:24:55 +0000";
layers = (
{
anchors = (
{
name = bottom;
position = "{273, 0}";
},
{
name = top;
position = "{273, 490}";
}
);
layerId = "0B1DFD06-3317-40CA-B510-4969A0718C16";
paths = (
{
closed = 1;
nodes = (
"286 -10 LINE",
"536 490 LINE",
"504 490 LINE",
"292 67 LINE",
"74 490 LINE",
"10 490 LINE",
"275 -10 LINE"
);
}
);
width = 546;
}
);
note = v;
unicode = 0076;
},
{
color = 4;
glyphname = w;
lastChange = "2018-02-06 15:24:55 +0000";
layers = (
{
anchors = (
{
name = bottom;
position = "{408, 0}";
},
{
name = top;
position = "{408, 490}";
}
);
layerId = "0B1DFD06-3317-40CA-B510-4969A0718C16";
paths = (
{
closed = 1;
nodes = (
"245 -10 LINE",
"399 398 LINE",
"572 -10 LINE",
"582 -10 LINE",
"805 490 LINE",
"771 490 LINE",
"591 84 LINE",
"415 500 LINE",
"400 500 LINE",
"248 92 LINE",
"72 490 LINE",
"10 490 LINE",
"236 -10 LINE"
);
}
);
width = 815;
}
);
note = w;
unicode = 0077;
},
{
color = 4;
glyphname = x;
lastChange = "2018-02-06 15:24:55 +0000";
layers = (
{
anchors = (
{
name = bottom;
position = "{252, 0}";
},
{
name = top;
position = "{252, 490}";
}
);
layerId = "0B1DFD06-3317-40CA-B510-4969A0718C16";
paths = (
{
closed = 1;
nodes = (
"493 0 LINE",
"76 490 LINE",
"10 490 LINE",
"427 0 LINE"
);
},
{
closed = 1;
nodes = (
"52 0 LINE",
"248 232 LINE",
"227 257 LINE",
"10 0 LINE"
);
},
{
closed = 1;
nodes = (
"471 490 LINE",
"429 490 LINE",
"243 273 LINE",
"265 249 LINE"
);
}
);
width = 503;
}
);
note = x;
unicode = 0078;
},
{
color = 4;
glyphname = y;
lastChange = "2018-02-06 16:15:07 +0000";
layers = (
{
anchors = (
{
name = bottom;
position = "{371, 0}";
},
{
name = top;
position = "{271, 490}";
}
);
layerId = "0B1DFD06-3317-40CA-B510-4969A0718C16";
paths = (
{
closed = 1;
nodes = (
"180 -188 OFFCURVE",
"241 -108 OFFCURVE",
"286 -15 CURVE SMOOTH",
"532 490 LINE",
"493 490 LINE",
"290 74 LINE",
"76 490 LINE",
"10 490 LINE",
"235 66 LINE SMOOTH",
"246 46 OFFCURVE",
"252 26 OFFCURVE",
"252 8 CURVE SMOOTH",
"252 -55 OFFCURVE",
"174 -153 OFFCURVE",
"108 -153 CURVE SMOOTH",
"82 -153 OFFCURVE",
"57 -139 OFFCURVE",
"42 -120 CURVE",
"16 -163 LINE",
"41 -180 OFFCURVE",
"77 -188 OFFCURVE",
"102 -188 CURVE SMOOTH"
);
}
);
width = 542;
}
);
note = y;
unicode = 0079;
},
{
color = 4;
glyphname = z;
lastChange = "2018-02-06 15:24:55 +0000";
layers = (
{
anchors = (
{
name = bottom;
position = "{258, 0}";
},
{
name = top;
position = "{258, 490}";
}
);
layerId = "0B1DFD06-3317-40CA-B510-4969A0718C16";
paths = (
{
closed = 1;
nodes = (
"466 0 LINE",
"478 34 LINE",
"115 34 LINE",
"485 490 LINE",
"77 490 LINE",
"65 456 LINE",
"401 456 LINE",
"30 0 LINE"
);
}
);
width = 515;
}
);
note = z;
unicode = 007A;
},
{
color = 4;
glyphname = AE;
lastChange = "2018-02-06 16:49:57 +0000";
layers = (
{
anchors = (
{
name = bottom;
position = "{475, 0}";
},
{
name = top;
position = "{568, 700}";
}
);
layerId = "0B1DFD06-3317-40CA-B510-4969A0718C16";
paths = (
{
closed = 1;
nodes = (
"58 0 LINE",
"489 662 LINE",
"527 662 LINE",
"527 700 LINE",
"464 700 LINE",
"6 0 LINE"
);
},
{
closed = 1;
nodes = (
"528 185 LINE",
"528 221 LINE",
"196 221 LINE",
"170 185 LINE"
);
},
{
closed = 1;
nodes = (
"933 0 LINE",
"933 36 LINE",
"587 36 LINE",
"587 358 LINE",
"875 358 LINE",
"875 394 LINE",
"587 394 LINE",
"587 662 LINE",
"933 662 LINE",
"933 700 LINE",
"527 700 LINE",
"527 0 LINE"
);
}
);
width = 963;
}
);
note = AE;
unicode = 00C6;
},
{
color = 4;
glyphname = Eth;
lastChange = "2018-02-06 11:57:20 +0000";
layers = (
{
components = (
{
name = D;
}
);
layerId = "0B1DFD06-3317-40CA-B510-4969A0718C16";
paths = (
{
closed = 1;
nodes = (
"383 358 LINE",
"383 392 LINE",
"-2 392 LINE",
"-2 358 LINE"
);
}
);
width = 769;
}
);
note = Eth;
unicode = 00D0;
},
{
color = 4;
glyphname = Eacute;
lastChange = "2018-02-06 15:11:08 +0000";
layers = (
{
background = {
paths = (
{
closed = 1;
nodes = (
"554 0 LINE",
"571 179 LINE",
"544 179 LINE",
"538 124 OFFCURVE",
"520 40 OFFCURVE",
"456 40 CURVE SMOOTH",
"201 40 LINE",
"201 659 LINE",
"441 659 LINE SMOOTH",
"516 659 OFFCURVE",
"525 567 OFFCURVE",
"528 527 CURVE",
"555 527 LINE",
"555 700 LINE",
"16 700 LINE",
"16 673 LINE",
"44 673 LINE SMOOTH",
"83 673 OFFCURVE",
"103 662 OFFCURVE",
"103 637 CURVE SMOOTH",
"103 62 LINE SMOOTH",
"103 37 OFFCURVE",
"83 26 OFFCURVE",
"44 26 CURVE SMOOTH",
"16 26 LINE",
"16 0 LINE"
);
},
{
closed = 1;
nodes = (
"455 251 LINE",
"455 485 LINE",
"431 485 LINE",
"427 436 OFFCURVE",
"424 388 OFFCURVE",
"379 388 CURVE SMOOTH",
"162 388 LINE",
"162 348 LINE",
"379 348 LINE SMOOTH",
"424 348 OFFCURVE",
"427 300 OFFCURVE",
"431 251 CURVE"
);
},
{
closed = 1;
nodes = (
"398 865 LINE SMOOTH",
"420 877 OFFCURVE",
"432 890 OFFCURVE",
"432 907 CURVE SMOOTH",
"432 922 OFFCURVE",
"420 937 OFFCURVE",
"398 937 CURVE SMOOTH",
"377 937 OFFCURVE",
"362 921 OFFCURVE",
"354 914 CURVE SMOOTH",
"239 807 LINE",
"256 782 LINE"
);
}
);
};
components = (
{
name = E;
},
{
name = acutecomb;
transform = "{1, 0, 0, 1, 111, 210}";
}
);
layerId = "0B1DFD06-3317-40CA-B510-4969A0718C16";
width = 662;
}
);
note = Eacute;
unicode = 00C9;
},
{
color = 4;
glyphname = Ebreve;
lastChange = "2018-02-06 15:11:08 +0000";
layers = (
{
background = {
paths = (
{
closed = 1;
nodes = (
"554 0 LINE",
"571 179 LINE",
"544 179 LINE",
"538 124 OFFCURVE",
"520 40 OFFCURVE",
"456 40 CURVE SMOOTH",
"201 40 LINE",
"201 659 LINE",
"441 659 LINE SMOOTH",
"516 659 OFFCURVE",
"525 567 OFFCURVE",
"528 527 CURVE",
"555 527 LINE",
"555 700 LINE",
"16 700 LINE",
"16 673 LINE",
"44 673 LINE SMOOTH",
"83 673 OFFCURVE",
"103 662 OFFCURVE",
"103 637 CURVE SMOOTH",
"103 62 LINE SMOOTH",
"103 37 OFFCURVE",
"83 26 OFFCURVE",
"44 26 CURVE SMOOTH",
"16 26 LINE",
"16 0 LINE"
);
},
{
closed = 1;
nodes = (
"455 251 LINE",
"455 485 LINE",
"431 485 LINE",
"427 436 OFFCURVE",
"424 388 OFFCURVE",
"379 388 CURVE SMOOTH",
"162 388 LINE",
"162 348 LINE",
"379 348 LINE SMOOTH",
"424 348 OFFCURVE",
"427 300 OFFCURVE",
"431 251 CURVE"
);
},
{
closed = 1;
nodes = (
"432 776 OFFCURVE",
"474 832 OFFCURVE",
"478 907 CURVE",
"445 907 LINE",
"439 848 OFFCURVE",
"397 822 OFFCURVE",
"333 822 CURVE SMOOTH",
"269 822 OFFCURVE",
"226 848 OFFCURVE",
"219 907 CURVE",
"186 907 LINE",
"190 829 OFFCURVE",
"232 776 OFFCURVE",
"333 776 CURVE SMOOTH"
);
}
);
};
components = (
{
name = E;
},
{
name = brevecomb;
transform = "{1, 0, 0, 1, 361, 210}";
}
);
layerId = "0B1DFD06-3317-40CA-B510-4969A0718C16";
width = 662;
}
);
note = Ebreve;
unicode = 0114;
},
{
color = 4;
glyphname = Ecaron;
lastChange = "2018-02-06 15:11:10 +0000";
layers = (
{
background = {
paths = (
{
closed = 1;
nodes = (
"554 0 LINE",
"571 179 LINE",
"544 179 LINE",
"538 124 OFFCURVE",
"520 40 OFFCURVE",
"456 40 CURVE SMOOTH",
"201 40 LINE",
"201 659 LINE",
"441 659 LINE SMOOTH",
"516 659 OFFCURVE",
"525 567 OFFCURVE",
"528 527 CURVE",
"555 527 LINE",
"555 700 LINE",
"16 700 LINE",
"16 673 LINE",
"44 673 LINE SMOOTH",
"83 673 OFFCURVE",
"103 662 OFFCURVE",
"103 637 CURVE SMOOTH",
"103 62 LINE SMOOTH",
"103 37 OFFCURVE",
"83 26 OFFCURVE",
"44 26 CURVE SMOOTH",
"16 26 LINE",
"16 0 LINE"
);
},
{
closed = 1;
nodes = (
"455 251 LINE",
"455 485 LINE",
"431 485 LINE",
"427 436 OFFCURVE",
"424 388 OFFCURVE",
"379 388 CURVE SMOOTH",
"162 388 LINE",
"162 348 LINE",
"379 348 LINE SMOOTH",
"424 348 OFFCURVE",
"427 300 OFFCURVE",
"431 251 CURVE"
);
},
{
closed = 1;
nodes = (
"357 782 LINE",
"481 911 LINE",
"462 932 LINE",
"354 847 LINE",
"346 840 OFFCURVE",
"337 836 OFFCURVE",
"331 836 CURVE SMOOTH",
"325 836 OFFCURVE",
"317 840 OFFCURVE",
"307 847 CURVE",
"199 932 LINE",
"180 911 LINE",
"304 782 LINE"
);
}
);
};
components = (
{
name = E;
},
{
name = caroncomb;
transform = "{1, 0, 0, 1, 361, 210}";
}
);
layerId = "0B1DFD06-3317-40CA-B510-4969A0718C16";
width = 662;
}
);
note = Ecaron;
unicode = 011A;
},
{
color = 4;
glyphname = Ecircumflex;
lastChange = "2018-02-06 15:11:11 +0000";
layers = (
{
background = {
paths = (
{
closed = 1;
nodes = (
"554 0 LINE",
"571 179 LINE",
"544 179 LINE",
"538 124 OFFCURVE",
"520 40 OFFCURVE",
"456 40 CURVE SMOOTH",
"201 40 LINE",
"201 659 LINE",
"441 659 LINE SMOOTH",
"516 659 OFFCURVE",
"525 567 OFFCURVE",
"528 527 CURVE",
"555 527 LINE",
"555 700 LINE",
"16 700 LINE",
"16 673 LINE",
"44 673 LINE SMOOTH",
"83 673 OFFCURVE",
"103 662 OFFCURVE",
"103 637 CURVE SMOOTH",
"103 62 LINE SMOOTH",
"103 37 OFFCURVE",
"83 26 OFFCURVE",
"44 26 CURVE SMOOTH",
"16 26 LINE",
"16 0 LINE"
);
},
{
closed = 1;
nodes = (
"455 251 LINE",
"455 485 LINE",
"431 485 LINE",
"427 436 OFFCURVE",
"424 388 OFFCURVE",
"379 388 CURVE SMOOTH",
"162 388 LINE",
"162 348 LINE",
"379 348 LINE SMOOTH",
"424 348 OFFCURVE",
"427 300 OFFCURVE",
"431 251 CURVE"
);
},
{
closed = 1;
nodes = (
"304 868 LINE SMOOTH",
"312 874 OFFCURVE",
"322 879 OFFCURVE",
"328 879 CURVE SMOOTH",
"334 879 OFFCURVE",
"342 874 OFFCURVE",
"351 868 CURVE",
"459 782 LINE",
"478 803 LINE",
"354 932 LINE",
"301 932 LINE",
"177 803 LINE",
"196 782 LINE"
);
}
);
};
components = (
{
name = E;
},
{
name = circumflexcomb;
transform = "{1, 0, 0, 1, 361, 210}";
}
);
layerId = "0B1DFD06-3317-40CA-B510-4969A0718C16";
width = 662;
}
);
note = Ecircumflex;
unicode = 00CA;
},
{
color = 4;
glyphname = Ecircumflexacute;
lastChange = "2018-02-06 15:11:11 +0000";
layers = (
{
background = {
paths = (
{
closed = 1;
nodes = (
"554 0 LINE",
"571 179 LINE",
"544 179 LINE",
"538 124 OFFCURVE",
"520 40 OFFCURVE",
"456 40 CURVE SMOOTH",
"201 40 LINE",
"201 659 LINE",
"441 659 LINE SMOOTH",
"516 659 OFFCURVE",
"525 567 OFFCURVE",
"528 527 CURVE",
"555 527 LINE",
"555 700 LINE",
"16 700 LINE",
"16 673 LINE",
"44 673 LINE SMOOTH",
"83 673 OFFCURVE",
"103 662 OFFCURVE",
"103 637 CURVE SMOOTH",
"103 62 LINE SMOOTH",
"103 37 OFFCURVE",
"83 26 OFFCURVE",
"44 26 CURVE SMOOTH",
"16 26 LINE",
"16 0 LINE"
);
},
{
closed = 1;
nodes = (
"455 251 LINE",
"455 485 LINE",
"431 485 LINE",
"427 436 OFFCURVE",
"424 388 OFFCURVE",
"379 388 CURVE SMOOTH",
"162 388 LINE",
"162 348 LINE",
"379 348 LINE SMOOTH",
"424 348 OFFCURVE",
"427 300 OFFCURVE",
"431 251 CURVE"
);
},
{
closed = 1;
nodes = (
"290 862 LINE SMOOTH",
"300 870 OFFCURVE",
"310 878 OFFCURVE",
"318 878 CURVE SMOOTH",
"324 878 OFFCURVE",
"332 873 OFFCURVE",
"341 867 CURVE",
"447 781 LINE",
"466 803 LINE",
"344 932 LINE",
"293 932 LINE",
"171 803 LINE",
"189 781 LINE"
);
},
{
closed = 1;
nodes = (
"555 960 LINE SMOOTH",
"578 972 OFFCURVE",
"591 988 OFFCURVE",
"591 1003 CURVE SMOOTH",
"591 1017 OFFCURVE",
"580 1034 OFFCURVE",
"557 1034 CURVE SMOOTH",
"538 1034 OFFCURVE",
"521 1018 OFFCURVE",
"511 1008 CURVE SMOOTH",
"415 915 LINE",
"433 893 LINE"
);
}
);
};
components = (
{
name = E;
},
{
name = circumflex_acute;
transform = "{1, 0, 0, 1, 361, 210}";
}
);
layerId = "0B1DFD06-3317-40CA-B510-4969A0718C16";
width = 662;
}
);
note = Ecircumflexacute;
unicode = 1EBE;
},
{
color = 4;
glyphname = Ecircumflexdotbelow;
lastChange = "2018-02-06 15:11:11 +0000";
layers = (
{
background = {
paths = (
{
closed = 1;
nodes = (
"554 0 LINE",
"571 179 LINE",
"544 179 LINE",
"538 124 OFFCURVE",
"520 40 OFFCURVE",
"456 40 CURVE SMOOTH",
"201 40 LINE",
"201 659 LINE",
"441 659 LINE SMOOTH",
"516 659 OFFCURVE",
"525 567 OFFCURVE",
"528 527 CURVE",
"555 527 LINE",
"555 700 LINE",
"16 700 LINE",
"16 673 LINE",
"44 673 LINE SMOOTH",
"83 673 OFFCURVE",
"103 662 OFFCURVE",
"103 637 CURVE SMOOTH",
"103 62 LINE SMOOTH",
"103 37 OFFCURVE",
"83 26 OFFCURVE",
"44 26 CURVE SMOOTH",
"16 26 LINE",
"16 0 LINE"
);
},
{
closed = 1;
nodes = (
"350 -159 OFFCURVE",
"368 -140 OFFCURVE",
"368 -112 CURVE SMOOTH",
"368 -84 OFFCURVE",
"350 -64 OFFCURVE",
"322 -64 CURVE SMOOTH",
"294 -64 OFFCURVE",
"275 -84 OFFCURVE",
"275 -112 CURVE SMOOTH",
"275 -140 OFFCURVE",
"294 -159 OFFCURVE",
"322 -159 CURVE SMOOTH"
);
},
{
closed = 1;
nodes = (
"455 251 LINE",
"455 485 LINE",
"431 485 LINE",
"427 436 OFFCURVE",
"424 388 OFFCURVE",
"379 388 CURVE SMOOTH",
"162 388 LINE",
"162 348 LINE",
"379 348 LINE SMOOTH",
"424 348 OFFCURVE",
"427 300 OFFCURVE",
"431 251 CURVE"
);
},
{
closed = 1;
nodes = (
"294 868 LINE SMOOTH",
"302 874 OFFCURVE",
"312 879 OFFCURVE",
"318 879 CURVE SMOOTH",
"324 879 OFFCURVE",
"332 874 OFFCURVE",
"341 868 CURVE",
"449 782 LINE",
"468 803 LINE",
"344 932 LINE",
"291 932 LINE",
"167 803 LINE",
"186 782 LINE"
);
}
);
};
components = (
{
name = E;
},
{
name = dotbelowcomb;
transform = "{1, 0, 0, 1, 111, 0}";
},
{
name = circumflexcomb;
transform = "{1, 0, 0, 1, 361, 210}";
}
);
layerId = "0B1DFD06-3317-40CA-B510-4969A0718C16";
width = 662;
}
);
note = Ecircumflexdotbelow;
unicode = 1EC6;
},
{
color = 4;
glyphname = Ecircumflexgrave;
lastChange = "2018-02-06 15:11:12 +0000";
layers = (
{
background = {
paths = (
{
closed = 1;
nodes = (
"554 0 LINE",
"571 179 LINE",
"544 179 LINE",
"538 124 OFFCURVE",
"520 40 OFFCURVE",
"456 40 CURVE SMOOTH",
"201 40 LINE",
"201 659 LINE",
"441 659 LINE SMOOTH",
"516 659 OFFCURVE",
"525 567 OFFCURVE",
"528 527 CURVE",
"555 527 LINE",
"555 700 LINE",
"16 700 LINE",
"16 673 LINE",
"44 673 LINE SMOOTH",
"83 673 OFFCURVE",
"103 662 OFFCURVE",
"103 637 CURVE SMOOTH",
"103 62 LINE SMOOTH",
"103 37 OFFCURVE",
"83 26 OFFCURVE",
"44 26 CURVE SMOOTH",
"16 26 LINE",
"16 0 LINE"
);
},
{
closed = 1;
nodes = (
"455 251 LINE",
"455 485 LINE",
"431 485 LINE",
"427 436 OFFCURVE",
"424 388 OFFCURVE",
"379 388 CURVE SMOOTH",
"162 388 LINE",
"162 348 LINE",
"379 348 LINE SMOOTH",
"424 348 OFFCURVE",
"427 300 OFFCURVE",
"431 251 CURVE"
);
},
{
closed = 1;
nodes = (
"227 915 LINE",
"132 1008 LINE SMOOTH",
"122 1018 OFFCURVE",
"105 1034 OFFCURVE",
"85 1034 CURVE SMOOTH",
"63 1034 OFFCURVE",
"52 1017 OFFCURVE",
"52 1003 CURVE SMOOTH",
"52 988 OFFCURVE",
"65 972 OFFCURVE",
"88 960 CURVE SMOOTH",
"210 893 LINE"
);
},
{
closed = 1;
nodes = (
"290 862 LINE SMOOTH",
"300 870 OFFCURVE",
"310 878 OFFCURVE",
"318 878 CURVE SMOOTH",
"324 878 OFFCURVE",
"332 873 OFFCURVE",
"341 867 CURVE",
"447 781 LINE",
"466 803 LINE",
"344 932 LINE",
"293 932 LINE",
"171 803 LINE",
"189 781 LINE"
);
}
);
};
components = (
{
name = E;
},
{
name = circumflex_grave;
transform = "{1, 0, 0, 1, 361, 210}";
}
);
layerId = "0B1DFD06-3317-40CA-B510-4969A0718C16";
width = 662;
}
);
note = Ecircumflexgrave;
unicode = 1EC0;
},
{
color = 4;
glyphname = Ecircumflexhookabove;
lastChange = "2018-02-06 15:11:12 +0000";
layers = (
{
background = {
paths = (
{
closed = 1;
nodes = (
"554 0 LINE",
"571 179 LINE",
"544 179 LINE",
"538 124 OFFCURVE",
"520 40 OFFCURVE",
"456 40 CURVE SMOOTH",
"201 40 LINE",
"201 659 LINE",
"441 659 LINE SMOOTH",
"516 659 OFFCURVE",
"525 567 OFFCURVE",
"528 527 CURVE",
"555 527 LINE",
"555 700 LINE",
"16 700 LINE",
"16 673 LINE",
"44 673 LINE SMOOTH",
"83 673 OFFCURVE",
"103 662 OFFCURVE",
"103 637 CURVE SMOOTH",
"103 62 LINE SMOOTH",
"103 37 OFFCURVE",
"83 26 OFFCURVE",
"44 26 CURVE SMOOTH",
"16 26 LINE",
"16 0 LINE"
);
},
{
closed = 1;
nodes = (
"455 251 LINE",
"455 485 LINE",
"431 485 LINE",
"427 436 OFFCURVE",
"424 388 OFFCURVE",
"379 388 CURVE SMOOTH",
"162 388 LINE",
"162 348 LINE",
"379 348 LINE SMOOTH",
"424 348 OFFCURVE",
"427 300 OFFCURVE",
"431 251 CURVE"
);
},
{
closed = 1;
nodes = (
"286 858 LINE",
"297 868 OFFCURVE",
"309 878 OFFCURVE",
"318 878 CURVE SMOOTH",
"324 878 OFFCURVE",
"332 873 OFFCURVE",
"341 867 CURVE",
"447 781 LINE",
"466 803 LINE",
"344 932 LINE",
"293 932 LINE",
"171 803 LINE",
"189 781 LINE"
);
},
{
closed = 1;
nodes = (
"493 898 LINE",
"474 905 OFFCURVE",
"464 912 OFFCURVE",
"464 926 CURVE SMOOTH",
"464 954 OFFCURVE",
"544 965 OFFCURVE",
"544 1010 CURVE SMOOTH",
"544 1047 OFFCURVE",
"502 1063 OFFCURVE",
"460 1063 CURVE SMOOTH",
"429 1063 OFFCURVE",
"384 1053 OFFCURVE",
"384 1022 CURVE SMOOTH",
"384 1010 OFFCURVE",
"395 1001 OFFCURVE",
"405 1001 CURVE SMOOTH",
"434 1001 OFFCURVE",
"421 1040 OFFCURVE",
"464 1040 CURVE SMOOTH",
"483 1040 OFFCURVE",
"494 1028 OFFCURVE",
"494 1013 CURVE SMOOTH",
"494 973 OFFCURVE",
"421 965 OFFCURVE",
"421 925 CURVE SMOOTH",
"421 901 OFFCURVE",
"437 880 OFFCURVE",
"484 880 CURVE"
);
}
);
};
components = (
{
name = E;
},
{
name = circumflex_hookabove;
transform = "{1, 0, 0, 1, 361, 210}";
}
);
layerId = "0B1DFD06-3317-40CA-B510-4969A0718C16";
width = 662;
}
);
note = Ecircumflexhookabove;
unicode = 1EC2;
},
{
color = 4;
glyphname = Ecircumflextilde;
lastChange = "2018-02-06 15:11:13 +0000";
layers = (
{
background = {
paths = (
{
closed = 1;
nodes = (
"554 0 LINE",
"571 179 LINE",
"544 179 LINE",
"538 124 OFFCURVE",
"520 40 OFFCURVE",
"456 40 CURVE SMOOTH",
"201 40 LINE",
"201 659 LINE",
"441 659 LINE SMOOTH",
"516 659 OFFCURVE",
"525 567 OFFCURVE",
"528 527 CURVE",
"555 527 LINE",
"555 700 LINE",
"16 700 LINE",
"16 673 LINE",
"44 673 LINE SMOOTH",
"83 673 OFFCURVE",
"103 662 OFFCURVE",
"103 637 CURVE SMOOTH",
"103 62 LINE SMOOTH",
"103 37 OFFCURVE",
"83 26 OFFCURVE",
"44 26 CURVE SMOOTH",
"16 26 LINE",
"16 0 LINE"
);
},
{
closed = 1;
nodes = (
"455 251 LINE",
"455 485 LINE",
"431 485 LINE",
"427 436 OFFCURVE",
"424 388 OFFCURVE",
"379 388 CURVE SMOOTH",
"162 388 LINE",
"162 348 LINE",
"379 348 LINE SMOOTH",
"424 348 OFFCURVE",
"427 300 OFFCURVE",
"431 251 CURVE"
);
},
{
closed = 1;
nodes = (
"290 862 LINE SMOOTH",
"300 870 OFFCURVE",
"310 878 OFFCURVE",
"318 878 CURVE SMOOTH",
"324 878 OFFCURVE",
"332 873 OFFCURVE",
"341 867 CURVE",
"447 781 LINE",
"466 803 LINE",
"344 932 LINE",
"293 932 LINE",
"171 803 LINE",
"189 781 LINE"
);
},
{
closed = 1;
nodes = (
"193 997 OFFCURVE",
"211 1018 OFFCURVE",
"242 1018 CURVE SMOOTH",
"291 1018 OFFCURVE",
"338 964 OFFCURVE",
"387 964 CURVE SMOOTH",
"440 964 OFFCURVE",
"469 1012 OFFCURVE",
"481 1063 CURVE",
"460 1075 LINE",
"447 1035 OFFCURVE",
"431 1012 OFFCURVE",
"398 1012 CURVE SMOOTH",
"351 1012 OFFCURVE",
"302 1065 OFFCURVE",
"253 1065 CURVE SMOOTH",
"202 1065 OFFCURVE",
"170 1021 OFFCURVE",
"160 970 CURVE",
"180 958 LINE"
);
}
);
};
components = (
{
name = E;
},
{
name = circumflex_tilde;
transform = "{1, 0, 0, 1, 361, 210}";
}
);
layerId = "0B1DFD06-3317-40CA-B510-4969A0718C16";
width = 662;
}
);
note = Ecircumflextilde;
unicode = 1EC4;
},
{
color = 4;
glyphname = Edieresis;
lastChange = "2018-02-06 15:11:13 +0000";
layers = (
{
background = {
paths = (
{
closed = 1;
nodes = (
"554 0 LINE",
"571 179 LINE",
"544 179 LINE",
"538 124 OFFCURVE",
"520 40 OFFCURVE",
"456 40 CURVE SMOOTH",
"201 40 LINE",
"201 659 LINE",
"441 659 LINE SMOOTH",
"516 659 OFFCURVE",
"525 567 OFFCURVE",
"528 527 CURVE",
"555 527 LINE",
"555 700 LINE",
"16 700 LINE",
"16 673 LINE",
"44 673 LINE SMOOTH",
"83 673 OFFCURVE",
"103 662 OFFCURVE",
"103 637 CURVE SMOOTH",
"103 62 LINE SMOOTH",
"103 37 OFFCURVE",
"83 26 OFFCURVE",
"44 26 CURVE SMOOTH",
"16 26 LINE",
"16 0 LINE"
);
},
{
closed = 1;
nodes = (
"455 251 LINE",
"455 485 LINE",
"431 485 LINE",
"427 436 OFFCURVE",
"424 388 OFFCURVE",
"379 388 CURVE SMOOTH",
"162 388 LINE",
"162 348 LINE",
"379 348 LINE SMOOTH",
"424 348 OFFCURVE",
"427 300 OFFCURVE",
"431 251 CURVE"
);
},
{
closed = 1;
nodes = (
"254 781 OFFCURVE",
"272 800 OFFCURVE",
"272 827 CURVE SMOOTH",
"272 855 OFFCURVE",
"254 875 OFFCURVE",
"225 875 CURVE SMOOTH",
"197 875 OFFCURVE",
"179 855 OFFCURVE",
"179 827 CURVE SMOOTH",
"179 800 OFFCURVE",
"197 781 OFFCURVE",
"225 781 CURVE SMOOTH"
);
},
{
closed = 1;
nodes = (
"470 781 OFFCURVE",
"488 800 OFFCURVE",
"488 827 CURVE SMOOTH",
"488 855 OFFCURVE",
"470 875 OFFCURVE",
"441 875 CURVE SMOOTH",
"412 875 OFFCURVE",
"394 855 OFFCURVE",
"394 827 CURVE SMOOTH",
"394 800 OFFCURVE",
"412 781 OFFCURVE",
"441 781 CURVE SMOOTH"
);
}
);
};
components = (
{
name = E;
},
{
name = dieresiscomb;
transform = "{1, 0, 0, 1, 361, 210}";
}
);
layerId = "0B1DFD06-3317-40CA-B510-4969A0718C16";
width = 662;
}
);
note = Edieresis;
unicode = 00CB;
},
{
color = 4;
glyphname = Edotaccent;
lastChange = "2018-02-06 15:11:13 +0000";
layers = (
{
background = {
paths = (
{
closed = 1;
nodes = (
"554 0 LINE",
"571 179 LINE",
"544 179 LINE",
"538 124 OFFCURVE",
"520 40 OFFCURVE",
"456 40 CURVE SMOOTH",
"201 40 LINE",
"201 659 LINE",
"441 659 LINE SMOOTH",
"516 659 OFFCURVE",
"525 567 OFFCURVE",
"528 527 CURVE",
"555 527 LINE",
"555 700 LINE",
"16 700 LINE",
"16 673 LINE",
"44 673 LINE SMOOTH",
"83 673 OFFCURVE",
"103 662 OFFCURVE",
"103 637 CURVE SMOOTH",
"103 62 LINE SMOOTH",
"103 37 OFFCURVE",
"83 26 OFFCURVE",
"44 26 CURVE SMOOTH",
"16 26 LINE",
"16 0 LINE"
);
},
{
closed = 1;
nodes = (
"455 251 LINE",
"455 485 LINE",
"431 485 LINE",
"427 436 OFFCURVE",
"424 388 OFFCURVE",
"379 388 CURVE SMOOTH",
"162 388 LINE",
"162 348 LINE",
"379 348 LINE SMOOTH",
"424 348 OFFCURVE",
"427 300 OFFCURVE",
"431 251 CURVE"
);
},
{
closed = 1;
nodes = (
"362 765 OFFCURVE",
"380 784 OFFCURVE",
"380 811 CURVE SMOOTH",
"380 839 OFFCURVE",
"362 858 OFFCURVE",
"334 858 CURVE SMOOTH",
"305 858 OFFCURVE",
"287 839 OFFCURVE",
"287 811 CURVE SMOOTH",
"287 784 OFFCURVE",
"305 765 OFFCURVE",
"334 765 CURVE SMOOTH"
);
}
);
};
components = (
{
name = E;
},
{
name = dotaccentcomb;
transform = "{1, 0, 0, 1, 361, 210}";
}
);
layerId = "0B1DFD06-3317-40CA-B510-4969A0718C16";
width = 662;
}
);
note = Edotaccent;
unicode = 0116;
},
{
color = 4;
glyphname = Edotbelow;
lastChange = "2018-02-06 15:11:14 +0000";
layers = (
{
background = {
paths = (
{
closed = 1;
nodes = (
"554 0 LINE",
"571 179 LINE",
"544 179 LINE",
"538 124 OFFCURVE",
"520 40 OFFCURVE",
"456 40 CURVE SMOOTH",
"201 40 LINE",
"201 659 LINE",
"441 659 LINE SMOOTH",
"516 659 OFFCURVE",
"525 567 OFFCURVE",
"528 527 CURVE",
"555 527 LINE",
"555 700 LINE",
"16 700 LINE",
"16 673 LINE",
"44 673 LINE SMOOTH",
"83 673 OFFCURVE",
"103 662 OFFCURVE",
"103 637 CURVE SMOOTH",
"103 62 LINE SMOOTH",
"103 37 OFFCURVE",
"83 26 OFFCURVE",
"44 26 CURVE SMOOTH",
"16 26 LINE",
"16 0 LINE"
);
},
{
closed = 1;
nodes = (
"343 -159 OFFCURVE",
"361 -140 OFFCURVE",
"361 -112 CURVE SMOOTH",
"361 -84 OFFCURVE",
"343 -64 OFFCURVE",
"315 -64 CURVE SMOOTH",
"287 -64 OFFCURVE",
"268 -84 OFFCURVE",
"268 -112 CURVE SMOOTH",
"268 -140 OFFCURVE",
"287 -159 OFFCURVE",
"315 -159 CURVE SMOOTH"
);
},
{
closed = 1;
nodes = (
"455 251 LINE",
"455 485 LINE",
"431 485 LINE",
"427 436 OFFCURVE",
"424 388 OFFCURVE",
"379 388 CURVE SMOOTH",
"162 388 LINE",
"162 348 LINE",
"379 348 LINE SMOOTH",
"424 348 OFFCURVE",
"427 300 OFFCURVE",
"431 251 CURVE"
);
}
);
};
components = (
{
name = E;
},
{
name = dotbelowcomb;
transform = "{1, 0, 0, 1, 111, 0}";
}
);
layerId = "0B1DFD06-3317-40CA-B510-4969A0718C16";
width = 662;
}
);
note = Edotbelow;
unicode = 1EB8;
},
{
color = 4;
glyphname = Egrave;
lastChange = "2018-02-06 15:11:14 +0000";
layers = (
{
background = {
paths = (
{
closed = 1;
nodes = (
"554 0 LINE",
"571 179 LINE",
"544 179 LINE",
"538 124 OFFCURVE",
"520 40 OFFCURVE",
"456 40 CURVE SMOOTH",
"201 40 LINE",
"201 659 LINE",
"441 659 LINE SMOOTH",
"516 659 OFFCURVE",
"525 567 OFFCURVE",
"528 527 CURVE",
"555 527 LINE",
"555 700 LINE",
"16 700 LINE",
"16 673 LINE",
"44 673 LINE SMOOTH",
"83 673 OFFCURVE",
"103 662 OFFCURVE",
"103 637 CURVE SMOOTH",
"103 62 LINE SMOOTH",
"103 37 OFFCURVE",
"83 26 OFFCURVE",
"44 26 CURVE SMOOTH",
"16 26 LINE",
"16 0 LINE"
);
},
{
closed = 1;
nodes = (
"455 251 LINE",
"455 485 LINE",
"431 485 LINE",
"427 436 OFFCURVE",
"424 388 OFFCURVE",
"379 388 CURVE SMOOTH",
"162 388 LINE",
"162 348 LINE",
"379 348 LINE SMOOTH",
"424 348 OFFCURVE",
"427 300 OFFCURVE",
"431 251 CURVE"
);
},
{
closed = 1;
nodes = (
"425 807 LINE",
"310 913 LINE",
"301 922 OFFCURVE",
"285 937 OFFCURVE",
"265 937 CURVE SMOOTH",
"245 937 OFFCURVE",
"233 924 OFFCURVE",
"233 908 CURVE SMOOTH",
"233 890 OFFCURVE",
"245 876 OFFCURVE",
"264 865 CURVE SMOOTH",
"407 782 LINE"
);
}
);
};
components = (
{
name = E;
},
{
name = gravecomb;
transform = "{1, 0, 0, 1, 111, 210}";
}
);
layerId = "0B1DFD06-3317-40CA-B510-4969A0718C16";
width = 662;
}
);
note = Egrave;
unicode = 00C8;
},
{
color = 4;
glyphname = Ehookabove;
lastChange = "2018-02-06 15:11:14 +0000";
layers = (
{
background = {
paths = (
{
closed = 1;
nodes = (
"554 0 LINE",
"571 179 LINE",
"544 179 LINE",
"538 124 OFFCURVE",
"520 40 OFFCURVE",
"456 40 CURVE SMOOTH",
"201 40 LINE",
"201 659 LINE",
"441 659 LINE SMOOTH",
"516 659 OFFCURVE",
"525 567 OFFCURVE",
"528 527 CURVE",
"555 527 LINE",
"555 700 LINE",
"16 700 LINE",
"16 673 LINE",
"44 673 LINE SMOOTH",
"83 673 OFFCURVE",
"103 662 OFFCURVE",
"103 637 CURVE SMOOTH",
"103 62 LINE SMOOTH",
"103 37 OFFCURVE",
"83 26 OFFCURVE",
"44 26 CURVE SMOOTH",
"16 26 LINE",
"16 0 LINE"
);
},
{
closed = 1;
nodes = (
"455 251 LINE",
"455 485 LINE",
"431 485 LINE",
"427 436 OFFCURVE",
"424 388 OFFCURVE",
"379 388 CURVE SMOOTH",
"162 388 LINE",
"162 348 LINE",
"379 348 LINE SMOOTH",
"424 348 OFFCURVE",
"427 300 OFFCURVE",
"431 251 CURVE"
);
},
{
closed = 1;
nodes = (
"367 798 LINE",
"348 805 OFFCURVE",
"336 811 OFFCURVE",
"336 828 CURVE SMOOTH",
"336 861 OFFCURVE",
"425 876 OFFCURVE",
"425 927 CURVE SMOOTH",
"425 969 OFFCURVE",
"389 991 OFFCURVE",
"336 991 CURVE SMOOTH",
"289 991 OFFCURVE",
"248 974 OFFCURVE",
"248 940 CURVE SMOOTH",
"248 923 OFFCURVE",
"256 915 OFFCURVE",
"271 915 CURVE SMOOTH",
"294 915 OFFCURVE",
"296 934 OFFCURVE",
"299 942 CURVE SMOOTH",
"304 956 OFFCURVE",
"321 962 OFFCURVE",
"337 962 CURVE SMOOTH",
"358 962 OFFCURVE",
"371 947 OFFCURVE",
"371 930 CURVE SMOOTH",
"371 885 OFFCURVE",
"289 874 OFFCURVE",
"289 828 CURVE SMOOTH",
"289 801 OFFCURVE",
"307 778 OFFCURVE",
"358 778 CURVE"
);
}
);
};
components = (
{
name = E;
},
{
name = hookabovecomb;
transform = "{1, 0, 0, 1, 111, 210}";
}
);
layerId = "0B1DFD06-3317-40CA-B510-4969A0718C16";
width = 662;
}
);
note = Ehookabove;
unicode = 1EBA;
},
{
color = 4;
glyphname = Emacron;
lastChange = "2018-02-06 15:11:15 +0000";
layers = (
{
background = {
paths = (
{
closed = 1;
nodes = (
"554 0 LINE",
"571 179 LINE",
"544 179 LINE",
"538 124 OFFCURVE",
"520 40 OFFCURVE",
"456 40 CURVE SMOOTH",
"201 40 LINE",
"201 659 LINE",
"441 659 LINE SMOOTH",
"516 659 OFFCURVE",
"525 567 OFFCURVE",
"528 527 CURVE",
"555 527 LINE",
"555 700 LINE",
"16 700 LINE",
"16 673 LINE",
"44 673 LINE SMOOTH",
"83 673 OFFCURVE",
"103 662 OFFCURVE",
"103 637 CURVE SMOOTH",
"103 62 LINE SMOOTH",
"103 37 OFFCURVE",
"83 26 OFFCURVE",
"44 26 CURVE SMOOTH",
"16 26 LINE",
"16 0 LINE"
);
},
{
closed = 1;
nodes = (
"455 251 LINE",
"455 485 LINE",
"431 485 LINE",
"427 436 OFFCURVE",
"424 388 OFFCURVE",
"379 388 CURVE SMOOTH",
"162 388 LINE",
"162 348 LINE",
"379 348 LINE SMOOTH",
"424 348 OFFCURVE",
"427 300 OFFCURVE",
"431 251 CURVE"
);
},
{
closed = 1;
nodes = (
"495 782 LINE",
"495 824 LINE",
"162 824 LINE",
"162 782 LINE"
);
}
);
};
components = (
{
name = E;
},
{
name = macroncomb;
transform = "{1, 0, 0, 1, 361, 210}";
}
);
layerId = "0B1DFD06-3317-40CA-B510-4969A0718C16";
width = 662;
}
);
note = Emacron;
unicode = 0112;
},
{
color = 4;
glyphname = Eogonek;
lastChange = "2018-02-06 15:11:15 +0000";
layers = (
{
background = {
paths = (
{
closed = 1;
nodes = (
"554 0 LINE",
"571 179 LINE",
"544 179 LINE",
"538 124 OFFCURVE",
"520 40 OFFCURVE",
"456 40 CURVE SMOOTH",
"201 40 LINE",
"201 659 LINE",
"441 659 LINE SMOOTH",
"516 659 OFFCURVE",
"525 567 OFFCURVE",
"528 527 CURVE",
"555 527 LINE",
"555 700 LINE",
"16 700 LINE",
"16 673 LINE",
"44 673 LINE SMOOTH",
"83 673 OFFCURVE",
"103 662 OFFCURVE",
"103 637 CURVE SMOOTH",
"103 62 LINE SMOOTH",
"103 37 OFFCURVE",
"83 26 OFFCURVE",
"44 26 CURVE SMOOTH",
"16 26 LINE",
"16 0 LINE"
);
},
{
closed = 1;
nodes = (
"496 -196 OFFCURVE",
"524 -189 OFFCURVE",
"549 -172 CURVE",
"543 -152 LINE",
"527 -158 OFFCURVE",
"510 -162 OFFCURVE",
"497 -162 CURVE SMOOTH",
"464 -162 OFFCURVE",
"437 -146 OFFCURVE",
"437 -106 CURVE SMOOTH",
"437 -66 OFFCURVE",
"464 -26 OFFCURVE",
"510 4 CURVE",
"469 4 LINE",
"416 -22 OFFCURVE",
"376 -64 OFFCURVE",
"376 -114 CURVE SMOOTH",
"376 -147 OFFCURVE",
"395 -196 OFFCURVE",
"470 -196 CURVE SMOOTH"
);
},
{
closed = 1;
nodes = (
"455 251 LINE",
"455 485 LINE",
"431 485 LINE",
"427 436 OFFCURVE",
"424 388 OFFCURVE",
"379 388 CURVE SMOOTH",
"162 388 LINE",
"162 348 LINE",
"379 348 LINE SMOOTH",
"424 348 OFFCURVE",
"427 300 OFFCURVE",
"431 251 CURVE"
);
}
);
};
components = (
{
name = E;
},
{
name = ogonekcomb;
transform = "{1, 0, 0, 1, 596, 10}";
}
);
layerId = "0B1DFD06-3317-40CA-B510-4969A0718C16";
width = 662;
}
);
note = Eogonek;
unicode = 0118;
},
{
color = 4;
glyphname = Etilde;
lastChange = "2018-02-06 15:11:15 +0000";
layers = (
{
background = {
paths = (
{
closed = 1;
nodes = (
"554 0 LINE",
"571 179 LINE",
"544 179 LINE",
"538 124 OFFCURVE",
"520 40 OFFCURVE",
"456 40 CURVE SMOOTH",
"201 40 LINE",
"201 659 LINE",
"441 659 LINE SMOOTH",
"516 659 OFFCURVE",
"525 567 OFFCURVE",
"528 527 CURVE",
"555 527 LINE",
"555 700 LINE",
"16 700 LINE",
"16 673 LINE",
"44 673 LINE SMOOTH",
"83 673 OFFCURVE",
"103 662 OFFCURVE",
"103 637 CURVE SMOOTH",
"103 62 LINE SMOOTH",
"103 37 OFFCURVE",
"83 26 OFFCURVE",
"44 26 CURVE SMOOTH",
"16 26 LINE",
"16 0 LINE"
);
},
{
closed = 1;
nodes = (
"455 251 LINE",
"455 485 LINE",
"431 485 LINE",
"427 436 OFFCURVE",
"424 388 OFFCURVE",
"379 388 CURVE SMOOTH",
"162 388 LINE",
"162 348 LINE",
"379 348 LINE SMOOTH",
"424 348 OFFCURVE",
"427 300 OFFCURVE",
"431 251 CURVE"
);
},
{
closed = 1;
nodes = (
"190 817 OFFCURVE",
"208 838 OFFCURVE",
"241 838 CURVE SMOOTH",
"292 838 OFFCURVE",
"341 784 OFFCURVE",
"392 784 CURVE SMOOTH",
"450 784 OFFCURVE",
"480 832 OFFCURVE",
"492 884 CURVE",
"471 895 LINE",
"455 855 OFFCURVE",
"439 833 OFFCURVE",
"405 833 CURVE SMOOTH",
"356 833 OFFCURVE",
"304 886 OFFCURVE",
"253 886 CURVE SMOOTH",
"199 886 OFFCURVE",
"166 842 OFFCURVE",
"154 790 CURVE",
"176 779 LINE"
);
}
);
};
components = (
{
name = E;
},
{
name = tildecomb;
transform = "{1, 0, 0, 1, 361, 210}";
}
);
layerId = "0B1DFD06-3317-40CA-B510-4969A0718C16";
width = 662;
}
);
note = Etilde;
unicode = 1EBC;
},
{
color = 4;
glyphname = Hbar;
lastChange = "2018-02-06 13:57:17 +0000";
layers = (
{
components = (
{
name = H;
transform = "{1, 0, 0, 1, 4, 0}";
}
);
layerId = "0B1DFD06-3317-40CA-B510-4969A0718C16";
paths = (
{
closed = 1;
nodes = (
"740 528 LINE",
"740 564 LINE",
"40 564 LINE",
"40 528 LINE"
);
}
);
width = 780;
}
);
note = Hbar;
unicode = 0126;
},
{
color = 4;
glyphname = Lslash;
lastChange = "2018-02-06 13:35:12 +0000";
layers = (
{
components = (
{
name = L;
}
);
layerId = "0B1DFD06-3317-40CA-B510-4969A0718C16";
paths = (
{
closed = 1;
nodes = (
"389 444 LINE",
"389 485 LINE",
"28 328 LINE",
"28 287 LINE"
);
}
);
width = 602;
}
);
note = Lslash;
rightMetricsKey = L;
unicode = 0141;
},
{
color = 4;
glyphname = Nacute;
lastChange = "2018-02-06 13:46:15 +0000";
layers = (
{
background = {
paths = (
{
closed = 1;
nodes = (
"247 0 LINE",
"247 26 LINE",
"217 26 LINE SMOOTH",
"179 26 OFFCURVE",
"159 37 OFFCURVE",
"159 62 CURVE SMOOTH",
"159 642 LINE",
"587 0 LINE",
"645 0 LINE",
"645 637 LINE SMOOTH",
"645 662 OFFCURVE",
"665 673 OFFCURVE",
"703 673 CURVE SMOOTH",
"733 673 LINE",
"733 700 LINE",
"508 700 LINE",
"508 673 LINE",
"537 673 LINE SMOOTH",
"576 673 OFFCURVE",
"595 662 OFFCURVE",
"595 637 CURVE SMOOTH",
"595 126 LINE",
"217 700 LINE",
"22 700 LINE",
"22 673 LINE",
"51 673 LINE SMOOTH",
"90 673 OFFCURVE",
"109 662 OFFCURVE",
"109 637 CURVE SMOOTH",
"109 62 LINE SMOOTH",
"109 37 OFFCURVE",
"90 26 OFFCURVE",
"51 26 CURVE SMOOTH",
"22 26 LINE",
"22 0 LINE"
);
},
{
closed = 1;
nodes = (
"458 865 LINE SMOOTH",
"480 877 OFFCURVE",
"492 890 OFFCURVE",
"492 907 CURVE SMOOTH",
"492 922 OFFCURVE",
"480 937 OFFCURVE",
"458 937 CURVE SMOOTH",
"437 937 OFFCURVE",
"422 921 OFFCURVE",
"414 914 CURVE SMOOTH",
"299 807 LINE",
"316 782 LINE"
);
}
);
};
components = (
{
name = N;
},
{
name = acutecomb;
transform = "{1, 0, 0, 1, 113, 210}";
}
);
layerId = "0B1DFD06-3317-40CA-B510-4969A0718C16";
width = 726;
}
);
note = Nacute;
unicode = 0143;
},
{
color = 4;
glyphname = Ncaron;
lastChange = "2018-02-06 13:46:15 +0000";
layers = (
{
background = {
paths = (
{
closed = 1;
nodes = (
"247 0 LINE",
"247 26 LINE",
"217 26 LINE SMOOTH",
"179 26 OFFCURVE",
"159 37 OFFCURVE",
"159 62 CURVE SMOOTH",
"159 642 LINE",
"587 0 LINE",
"645 0 LINE",
"645 637 LINE SMOOTH",
"645 662 OFFCURVE",
"665 673 OFFCURVE",
"703 673 CURVE SMOOTH",
"733 673 LINE",
"733 700 LINE",
"508 700 LINE",
"508 673 LINE",
"537 673 LINE SMOOTH",
"576 673 OFFCURVE",
"595 662 OFFCURVE",
"595 637 CURVE SMOOTH",
"595 126 LINE",
"217 700 LINE",
"22 700 LINE",
"22 673 LINE",
"51 673 LINE SMOOTH",
"90 673 OFFCURVE",
"109 662 OFFCURVE",
"109 637 CURVE SMOOTH",
"109 62 LINE SMOOTH",
"109 37 OFFCURVE",
"90 26 OFFCURVE",
"51 26 CURVE SMOOTH",
"22 26 LINE",
"22 0 LINE"
);
},
{
closed = 1;
nodes = (
"403 782 LINE",
"527 911 LINE",
"508 932 LINE",
"400 847 LINE",
"392 840 OFFCURVE",
"383 836 OFFCURVE",
"377 836 CURVE SMOOTH",
"371 836 OFFCURVE",
"363 840 OFFCURVE",
"353 847 CURVE",
"245 932 LINE",
"226 911 LINE",
"350 782 LINE"
);
}
);
};
components = (
{
name = N;
},
{
name = caroncomb;
transform = "{1, 0, 0, 1, 363, 210}";
}
);
layerId = "0B1DFD06-3317-40CA-B510-4969A0718C16";
width = 726;
}
);
note = Ncaron;
unicode = 0147;
},
{
color = 4;
glyphname = Ncommaaccent;
lastChange = "2018-02-06 13:46:15 +0000";
layers = (
{
background = {
paths = (
{
closed = 1;
nodes = (
"247 0 LINE",
"247 26 LINE",
"217 26 LINE SMOOTH",
"179 26 OFFCURVE",
"159 37 OFFCURVE",
"159 62 CURVE SMOOTH",
"159 642 LINE",
"587 0 LINE",
"645 0 LINE",
"645 637 LINE SMOOTH",
"645 662 OFFCURVE",
"665 673 OFFCURVE",
"703 673 CURVE SMOOTH",
"733 673 LINE",
"733 700 LINE",
"508 700 LINE",
"508 673 LINE",
"537 673 LINE SMOOTH",
"576 673 OFFCURVE",
"595 662 OFFCURVE",
"595 637 CURVE SMOOTH",
"595 126 LINE",
"217 700 LINE",
"22 700 LINE",
"22 673 LINE",
"51 673 LINE SMOOTH",
"90 673 OFFCURVE",
"109 662 OFFCURVE",
"109 637 CURVE SMOOTH",
"109 62 LINE SMOOTH",
"109 37 OFFCURVE",
"90 26 OFFCURVE",
"51 26 CURVE SMOOTH",
"22 26 LINE",
"22 0 LINE"
);
},
{
closed = 1;
nodes = (
"369 -258 OFFCURVE",
"413 -198 OFFCURVE",
"413 -135 CURVE SMOOTH",
"413 -87 OFFCURVE",
"389 -67 OFFCURVE",
"360 -67 CURVE SMOOTH",
"331 -67 OFFCURVE",
"314 -87 OFFCURVE",
"314 -111 CURVE SMOOTH",
"314 -145 OFFCURVE",
"349 -152 OFFCURVE",
"349 -187 CURVE SMOOTH",
"349 -223 OFFCURVE",
"323 -256 OFFCURVE",
"296 -282 CURVE",
"313 -299 LINE"
);
}
);
};
components = (
{
name = N;
},
{
name = commaaccentcomb;
transform = "{1, 0, 0, 1, 113, 0}";
}
);
layerId = "0B1DFD06-3317-40CA-B510-4969A0718C16";
width = 726;
}
);
note = Ncommaaccent;
unicode = 0145;
},
{
color = 4;
glyphname = Ndotaccent;
lastChange = "2018-02-06 13:46:15 +0000";
layers = (
{
background = {
paths = (
{
closed = 1;
nodes = (
"247 0 LINE",
"247 26 LINE",
"217 26 LINE SMOOTH",
"179 26 OFFCURVE",
"159 37 OFFCURVE",
"159 62 CURVE SMOOTH",
"159 642 LINE",
"587 0 LINE",
"645 0 LINE",
"645 637 LINE SMOOTH",
"645 662 OFFCURVE",
"665 673 OFFCURVE",
"703 673 CURVE SMOOTH",
"733 673 LINE",
"733 700 LINE",
"508 700 LINE",
"508 673 LINE",
"537 673 LINE SMOOTH",
"576 673 OFFCURVE",
"595 662 OFFCURVE",
"595 637 CURVE SMOOTH",
"595 126 LINE",
"217 700 LINE",
"22 700 LINE",
"22 673 LINE",
"51 673 LINE SMOOTH",
"90 673 OFFCURVE",
"109 662 OFFCURVE",
"109 637 CURVE SMOOTH",
"109 62 LINE SMOOTH",
"109 37 OFFCURVE",
"90 26 OFFCURVE",
"51 26 CURVE SMOOTH",
"22 26 LINE",
"22 0 LINE"
);
},
{
closed = 1;
nodes = (
"405 765 OFFCURVE",
"423 784 OFFCURVE",
"423 811 CURVE SMOOTH",
"423 839 OFFCURVE",
"405 858 OFFCURVE",
"377 858 CURVE SMOOTH",
"348 858 OFFCURVE",
"330 839 OFFCURVE",
"330 811 CURVE SMOOTH",
"330 784 OFFCURVE",
"348 765 OFFCURVE",
"377 765 CURVE SMOOTH"
);
}
);
};
components = (
{
name = N;
},
{
name = dotaccentcomb;
transform = "{1, 0, 0, 1, 363, 210}";
}
);
layerId = "0B1DFD06-3317-40CA-B510-4969A0718C16";
width = 726;
}
);
note = Ndotaccent;
unicode = 1E44;
},
{
color = 4;
glyphname = Ndotbelow;
lastChange = "2018-02-06 13:46:15 +0000";
layers = (
{
background = {
paths = (
{
closed = 1;
nodes = (
"247 0 LINE",
"247 26 LINE",
"217 26 LINE SMOOTH",
"179 26 OFFCURVE",
"159 37 OFFCURVE",
"159 62 CURVE SMOOTH",
"159 642 LINE",
"587 0 LINE",
"645 0 LINE",
"645 637 LINE SMOOTH",
"645 662 OFFCURVE",
"665 673 OFFCURVE",
"703 673 CURVE SMOOTH",
"733 673 LINE",
"733 700 LINE",
"508 700 LINE",
"508 673 LINE",
"537 673 LINE SMOOTH",
"576 673 OFFCURVE",
"595 662 OFFCURVE",
"595 637 CURVE SMOOTH",
"595 126 LINE",
"217 700 LINE",
"22 700 LINE",
"22 673 LINE",
"51 673 LINE SMOOTH",
"90 673 OFFCURVE",
"109 662 OFFCURVE",
"109 637 CURVE SMOOTH",
"109 62 LINE SMOOTH",
"109 37 OFFCURVE",
"90 26 OFFCURVE",
"51 26 CURVE SMOOTH",
"22 26 LINE",
"22 0 LINE"
);
},
{
closed = 1;
nodes = (
"415 -159 OFFCURVE",
"433 -140 OFFCURVE",
"433 -112 CURVE SMOOTH",
"433 -84 OFFCURVE",
"415 -64 OFFCURVE",
"387 -64 CURVE SMOOTH",
"359 -64 OFFCURVE",
"340 -84 OFFCURVE",
"340 -112 CURVE SMOOTH",
"340 -140 OFFCURVE",
"359 -159 OFFCURVE",
"387 -159 CURVE SMOOTH"
);
}
);
};
components = (
{
name = N;
},
{
name = dotbelowcomb;
transform = "{1, 0, 0, 1, 113, 0}";
}
);
layerId = "0B1DFD06-3317-40CA-B510-4969A0718C16";
width = 726;
}
);
note = uni1E46;
unicode = 1E46;
},
{
color = 4;
glyphname = Eng;
lastChange = "2018-02-06 13:46:15 +0000";
layers = (
{
background = {
paths = (
{
closed = 1;
nodes = (
"592 -259 OFFCURVE",
"645 -182 OFFCURVE",
"645 -36 CURVE SMOOTH",
"645 637 LINE SMOOTH",
"645 662 OFFCURVE",
"665 673 OFFCURVE",
"703 673 CURVE SMOOTH",
"733 673 LINE",
"733 700 LINE",
"508 700 LINE",
"508 673 LINE",
"537 673 LINE SMOOTH",
"576 673 OFFCURVE",
"595 662 OFFCURVE",
"595 637 CURVE SMOOTH",
"595 125 LINE",
"219 700 LINE",
"22 700 LINE",
"22 673 LINE",
"51 673 LINE SMOOTH",
"90 673 OFFCURVE",
"109 662 OFFCURVE",
"109 637 CURVE SMOOTH",
"109 62 LINE SMOOTH",
"109 37 OFFCURVE",
"93 26 OFFCURVE",
"51 26 CURVE SMOOTH",
"22 26 LINE",
"22 0 LINE",
"247 0 LINE",
"247 26 LINE",
"217 26 LINE SMOOTH",
"179 26 OFFCURVE",
"159 37 OFFCURVE",
"159 62 CURVE SMOOTH",
"159 647 LINE",
"586 0 LINE",
"586 -76 LINE SMOOTH",
"586 -173 OFFCURVE",
"510 -238 OFFCURVE",
"423 -243 CURVE",
"427 -268 LINE"
);
}
);
};
components = (
{
name = N;
}
);
layerId = "0B1DFD06-3317-40CA-B510-4969A0718C16";
paths = (
{
closed = 1;
nodes = (
"615 -213 OFFCURVE",
"650 -140 OFFCURVE",
"650 -34 CURVE SMOOTH",
"650 87 LINE",
"610 87 LINE",
"610 -30 LINE SMOOTH",
"610 -102 OFFCURVE",
"589 -177 OFFCURVE",
"510 -177 CURVE SMOOTH",
"483 -177 OFFCURVE",
"461 -168 OFFCURVE",
"437 -138 CURVE",
"413 -176 LINE",
"434 -198 OFFCURVE",
"464 -213 OFFCURVE",
"511 -213 CURVE SMOOTH"
);
}
);
width = 726;
}
);
note = Eng;
unicode = 014A;
},
{
color = 4;
glyphname = Nlinebelow;
lastChange = "2018-02-06 13:46:15 +0000";
layers = (
{
background = {
paths = (
{
closed = 1;
nodes = (
"247 0 LINE",
"247 26 LINE",
"217 26 LINE SMOOTH",
"179 26 OFFCURVE",
"159 37 OFFCURVE",
"159 62 CURVE SMOOTH",
"159 642 LINE",
"587 0 LINE",
"645 0 LINE",
"645 637 LINE SMOOTH",
"645 662 OFFCURVE",
"665 673 OFFCURVE",
"703 673 CURVE SMOOTH",
"733 673 LINE",
"733 700 LINE",
"508 700 LINE",
"508 673 LINE",
"537 673 LINE SMOOTH",
"576 673 OFFCURVE",
"595 662 OFFCURVE",
"595 637 CURVE SMOOTH",
"595 126 LINE",
"217 700 LINE",
"22 700 LINE",
"22 673 LINE",
"51 673 LINE SMOOTH",
"90 673 OFFCURVE",
"109 662 OFFCURVE",
"109 637 CURVE SMOOTH",
"109 62 LINE SMOOTH",
"109 37 OFFCURVE",
"90 26 OFFCURVE",
"51 26 CURVE SMOOTH",
"22 26 LINE",
"22 0 LINE"
);
},
{
closed = 1;
nodes = (
"542 -110 LINE",
"542 -72 LINE",
"210 -72 LINE",
"210 -110 LINE"
);
}
);
};
components = (
{
name = N;
},
{
name = macronbelowcomb;
transform = "{1, 0, 0, 1, 363, 0}";
}
);
layerId = "0B1DFD06-3317-40CA-B510-4969A0718C16";
width = 726;
}
);
note = Nlinebelow;
unicode = 1E48;
},
{
color = 4;
glyphname = Ntilde;
lastChange = "2018-02-06 13:46:15 +0000";
layers = (
{
background = {
paths = (
{
closed = 1;
nodes = (
"247 0 LINE",
"247 26 LINE",
"217 26 LINE SMOOTH",
"179 26 OFFCURVE",
"159 37 OFFCURVE",
"159 62 CURVE SMOOTH",
"159 642 LINE",
"587 0 LINE",
"645 0 LINE",
"645 637 LINE SMOOTH",
"645 662 OFFCURVE",
"665 673 OFFCURVE",
"703 673 CURVE SMOOTH",
"733 673 LINE",
"733 700 LINE",
"508 700 LINE",
"508 673 LINE",
"537 673 LINE SMOOTH",
"576 673 OFFCURVE",
"595 662 OFFCURVE",
"595 637 CURVE SMOOTH",
"595 126 LINE",
"217 700 LINE",
"22 700 LINE",
"22 673 LINE",
"51 673 LINE SMOOTH",
"90 673 OFFCURVE",
"109 662 OFFCURVE",
"109 637 CURVE SMOOTH",
"109 62 LINE SMOOTH",
"109 37 OFFCURVE",
"90 26 OFFCURVE",
"51 26 CURVE SMOOTH",
"22 26 LINE",
"22 0 LINE"
);
},
{
closed = 1;
nodes = (
"254 818 OFFCURVE",
"272 839 OFFCURVE",
"305 839 CURVE SMOOTH",
"356 839 OFFCURVE",
"405 785 OFFCURVE",
"456 785 CURVE SMOOTH",
"514 785 OFFCURVE",
"544 833 OFFCURVE",
"556 885 CURVE",
"535 896 LINE",
"519 856 OFFCURVE",
"503 834 OFFCURVE",
"469 834 CURVE SMOOTH",
"420 834 OFFCURVE",
"368 887 OFFCURVE",
"317 887 CURVE SMOOTH",
"263 887 OFFCURVE",
"230 843 OFFCURVE",
"218 791 CURVE",
"240 780 LINE"
);
}
);
};
components = (
{
name = N;
},
{
name = tildecomb;
transform = "{1, 0, 0, 1, 363, 210}";
}
);
layerId = "0B1DFD06-3317-40CA-B510-4969A0718C16";
width = 726;
}
);
note = Ntilde;
unicode = 00D1;
},
{
color = 4;
glyphname = Oacute;
lastChange = "2018-02-06 13:46:15 +0000";
layers = (
{
background = {
paths = (
{
closed = 1;
nodes = (
"601 -10 OFFCURVE",
"719 124 OFFCURVE",
"719 350 CURVE SMOOTH",
"719 574 OFFCURVE",
"601 710 OFFCURVE",
"378 710 CURVE SMOOTH",
"154 710 OFFCURVE",
"36 574 OFFCURVE",
"36 350 CURVE SMOOTH",
"36 124 OFFCURVE",
"154 -10 OFFCURVE",
"378 -10 CURVE SMOOTH"
);
},
{
closed = 1;
nodes = (
"215 32 OFFCURVE",
"135 158 OFFCURVE",
"135 350 CURVE SMOOTH",
"135 541 OFFCURVE",
"215 668 OFFCURVE",
"377 668 CURVE SMOOTH",
"541 668 OFFCURVE",
"620 541 OFFCURVE",
"620 350 CURVE SMOOTH",
"620 158 OFFCURVE",
"541 32 OFFCURVE",
"377 32 CURVE SMOOTH"
);
},
{
closed = 1;
nodes = (
"440 865 LINE SMOOTH",
"462 877 OFFCURVE",
"474 890 OFFCURVE",
"474 907 CURVE SMOOTH",
"474 922 OFFCURVE",
"462 937 OFFCURVE",
"440 937 CURVE SMOOTH",
"419 937 OFFCURVE",
"404 921 OFFCURVE",
"396 914 CURVE SMOOTH",
"281 807 LINE",
"298 782 LINE"
);
}
);
};
components = (
{
name = O;
},
{
name = acutecomb;
transform = "{1, 0, 0, 1, 166, 210}";
}
);
layerId = "0B1DFD06-3317-40CA-B510-4969A0718C16";
width = 832;
}
);
leftKerningGroup = O;
note = Oacute;
rightKerningGroup = O;
unicode = 00D3;
},
{
color = 4;
glyphname = Obreve;
lastChange = "2018-02-06 13:46:15 +0000";
layers = (
{
background = {
paths = (
{
closed = 1;
nodes = (
"601 -10 OFFCURVE",
"719 124 OFFCURVE",
"719 350 CURVE SMOOTH",
"719 574 OFFCURVE",
"601 710 OFFCURVE",
"378 710 CURVE SMOOTH",
"154 710 OFFCURVE",
"36 574 OFFCURVE",
"36 350 CURVE SMOOTH",
"36 124 OFFCURVE",
"154 -10 OFFCURVE",
"378 -10 CURVE SMOOTH"
);
},
{
closed = 1;
nodes = (
"215 32 OFFCURVE",
"135 158 OFFCURVE",
"135 350 CURVE SMOOTH",
"135 541 OFFCURVE",
"215 668 OFFCURVE",
"377 668 CURVE SMOOTH",
"541 668 OFFCURVE",
"620 541 OFFCURVE",
"620 350 CURVE SMOOTH",
"620 158 OFFCURVE",
"541 32 OFFCURVE",
"377 32 CURVE SMOOTH"
);
},
{
closed = 1;
nodes = (
"477 774 OFFCURVE",
"519 830 OFFCURVE",
"523 905 CURVE",
"490 905 LINE",
"484 846 OFFCURVE",
"442 820 OFFCURVE",
"378 820 CURVE SMOOTH",
"314 820 OFFCURVE",
"271 846 OFFCURVE",
"264 905 CURVE",
"231 905 LINE",
"235 827 OFFCURVE",
"277 774 OFFCURVE",
"378 774 CURVE SMOOTH"
);
}
);
};
components = (
{
name = O;
},
{
name = brevecomb;
transform = "{1, 0, 0, 1, 416, 210}";
}
);
layerId = "0B1DFD06-3317-40CA-B510-4969A0718C16";
width = 832;
}
);
leftKerningGroup = O;
note = Obreve;
rightKerningGroup = O;
unicode = 014E;
},
{
color = 4;
glyphname = Ocaron;
lastChange = "2018-02-06 13:46:15 +0000";
layers = (
{
background = {
paths = (
{
closed = 1;
nodes = (
"601 -10 OFFCURVE",
"719 124 OFFCURVE",
"719 350 CURVE SMOOTH",
"719 574 OFFCURVE",
"601 710 OFFCURVE",
"378 710 CURVE SMOOTH",
"154 710 OFFCURVE",
"36 574 OFFCURVE",
"36 350 CURVE SMOOTH",
"36 124 OFFCURVE",
"154 -10 OFFCURVE",
"378 -10 CURVE SMOOTH"
);
},
{
closed = 1;
nodes = (
"215 32 OFFCURVE",
"135 158 OFFCURVE",
"135 350 CURVE SMOOTH",
"135 541 OFFCURVE",
"215 668 OFFCURVE",
"377 668 CURVE SMOOTH",
"541 668 OFFCURVE",
"620 541 OFFCURVE",
"620 350 CURVE SMOOTH",
"620 158 OFFCURVE",
"541 32 OFFCURVE",
"377 32 CURVE SMOOTH"
);
},
{
closed = 1;
nodes = (
"404 782 LINE",
"528 911 LINE",
"509 932 LINE",
"401 847 LINE",
"393 840 OFFCURVE",
"384 836 OFFCURVE",
"378 836 CURVE SMOOTH",
"372 836 OFFCURVE",
"364 840 OFFCURVE",
"354 847 CURVE",
"246 932 LINE",
"227 911 LINE",
"351 782 LINE"
);
}
);
};
components = (
{
name = O;
},
{
name = caroncomb;
transform = "{1, 0, 0, 1, 416, 210}";
}
);
layerId = "0B1DFD06-3317-40CA-B510-4969A0718C16";
width = 832;
}
);
leftKerningGroup = O;
note = Ocaron;
rightKerningGroup = O;
unicode = 01D1;
},
{
color = 4;
glyphname = Ocircumflex;
lastChange = "2018-02-06 13:46:15 +0000";
layers = (
{
background = {
paths = (
{
closed = 1;
nodes = (
"601 -10 OFFCURVE",
"719 124 OFFCURVE",
"719 350 CURVE SMOOTH",
"719 574 OFFCURVE",
"601 710 OFFCURVE",
"378 710 CURVE SMOOTH",
"154 710 OFFCURVE",
"36 574 OFFCURVE",
"36 350 CURVE SMOOTH",
"36 124 OFFCURVE",
"154 -10 OFFCURVE",
"378 -10 CURVE SMOOTH"
);
},
{
closed = 1;
nodes = (
"215 32 OFFCURVE",
"135 158 OFFCURVE",
"135 350 CURVE SMOOTH",
"135 541 OFFCURVE",
"215 668 OFFCURVE",
"377 668 CURVE SMOOTH",
"541 668 OFFCURVE",
"620 541 OFFCURVE",
"620 350 CURVE SMOOTH",
"620 158 OFFCURVE",
"541 32 OFFCURVE",
"377 32 CURVE SMOOTH"
);
},
{
closed = 1;
nodes = (
"354 868 LINE SMOOTH",
"362 874 OFFCURVE",
"372 879 OFFCURVE",
"378 879 CURVE SMOOTH",
"384 879 OFFCURVE",
"392 874 OFFCURVE",
"401 868 CURVE",
"509 782 LINE",
"528 803 LINE",
"404 932 LINE",
"351 932 LINE",
"227 803 LINE",
"246 782 LINE"
);
}
);
};
components = (
{
name = O;
},
{
name = circumflexcomb;
transform = "{1, 0, 0, 1, 416, 210}";
}
);
layerId = "0B1DFD06-3317-40CA-B510-4969A0718C16";
width = 832;
}
);
leftKerningGroup = O;
note = Ocircumflex;
rightKerningGroup = O;
unicode = 00D4;
},
{
color = 4;
glyphname = Ocircumflexacute;
lastChange = "2018-02-06 15:08:33 +0000";
layers = (
{
background = {
paths = (
{
closed = 1;
nodes = (
"601 -10 OFFCURVE",
"719 124 OFFCURVE",
"719 350 CURVE SMOOTH",
"719 574 OFFCURVE",
"601 710 OFFCURVE",
"378 710 CURVE SMOOTH",
"154 710 OFFCURVE",
"36 574 OFFCURVE",
"36 350 CURVE SMOOTH",
"36 124 OFFCURVE",
"154 -10 OFFCURVE",
"378 -10 CURVE SMOOTH"
);
},
{
closed = 1;
nodes = (
"215 32 OFFCURVE",
"135 158 OFFCURVE",
"135 350 CURVE SMOOTH",
"135 541 OFFCURVE",
"215 668 OFFCURVE",
"377 668 CURVE SMOOTH",
"541 668 OFFCURVE",
"620 541 OFFCURVE",
"620 350 CURVE SMOOTH",
"620 158 OFFCURVE",
"541 32 OFFCURVE",
"377 32 CURVE SMOOTH"
);
},
{
closed = 1;
nodes = (
"348 861 LINE SMOOTH",
"358 869 OFFCURVE",
"368 877 OFFCURVE",
"376 877 CURVE SMOOTH",
"382 877 OFFCURVE",
"390 872 OFFCURVE",
"399 866 CURVE",
"505 780 LINE",
"524 802 LINE",
"402 931 LINE",
"351 931 LINE",
"229 802 LINE",
"247 780 LINE"
);
},
{
closed = 1;
nodes = (
"613 959 LINE SMOOTH",
"636 971 OFFCURVE",
"649 987 OFFCURVE",
"649 1002 CURVE SMOOTH",
"649 1016 OFFCURVE",
"638 1033 OFFCURVE",
"615 1033 CURVE SMOOTH",
"596 1033 OFFCURVE",
"579 1017 OFFCURVE",
"569 1007 CURVE SMOOTH",
"473 914 LINE",
"491 892 LINE"
);
}
);
};
components = (
{
name = O;
},
{
name = circumflexcomb;
transform = "{1, 0, 0, 1, 416, 210}";
},
{
name = acutecomb;
transform = "{1, 0, 0, 1, 166, 430}";
}
);
layerId = "0B1DFD06-3317-40CA-B510-4969A0718C16";
width = 832;
}
);
leftKerningGroup = O;
note = Ocircumflexacute;
rightKerningGroup = O;
unicode = 1ED0;
},
{
color = 4;
glyphname = Ocircumflexdotbelow;
lastChange = "2018-02-06 13:46:15 +0000";
layers = (
{
background = {
paths = (
{
closed = 1;
nodes = (
"36 124 OFFCURVE",
"154 -10 OFFCURVE",
"378 -10 CURVE SMOOTH",
"601 -10 OFFCURVE",
"719 124 OFFCURVE",
"719 350 CURVE SMOOTH",
"719 574 OFFCURVE",
"601 710 OFFCURVE",
"378 710 CURVE SMOOTH",
"154 710 OFFCURVE",
"36 574 OFFCURVE",
"36 350 CURVE SMOOTH"
);
},
{
closed = 1;
nodes = (
"135 541 OFFCURVE",
"215 668 OFFCURVE",
"377 668 CURVE SMOOTH",
"541 668 OFFCURVE",
"620 541 OFFCURVE",
"620 350 CURVE SMOOTH",
"620 158 OFFCURVE",
"541 32 OFFCURVE",
"377 32 CURVE SMOOTH",
"215 32 OFFCURVE",
"135 158 OFFCURVE",
"135 350 CURVE SMOOTH"
);
},
{
closed = 1;
nodes = (
"245 782 LINE",
"353 868 LINE SMOOTH",
"361 874 OFFCURVE",
"371 879 OFFCURVE",
"377 879 CURVE SMOOTH",
"383 879 OFFCURVE",
"391 874 OFFCURVE",
"400 868 CURVE",
"508 782 LINE",
"527 803 LINE",
"403 932 LINE",
"350 932 LINE",
"226 803 LINE"
);
},
{
closed = 1;
nodes = (
"330 -140 OFFCURVE",
"349 -159 OFFCURVE",
"377 -159 CURVE SMOOTH",
"405 -159 OFFCURVE",
"423 -140 OFFCURVE",
"423 -112 CURVE SMOOTH",
"423 -84 OFFCURVE",
"405 -64 OFFCURVE",
"377 -64 CURVE SMOOTH",
"349 -64 OFFCURVE",
"330 -84 OFFCURVE",
"330 -112 CURVE SMOOTH"
);
}
);
};
components = (
{
name = O;
},
{
name = dotbelowcomb;
transform = "{1, 0, 0, 1, 166, 0}";
},
{
name = circumflexcomb;
transform = "{1, 0, 0, 1, 416, 210}";
}
);
layerId = "0B1DFD06-3317-40CA-B510-4969A0718C16";
width = 832;
}
);
leftKerningGroup = O;
note = Ocircumflexdotbelow;
rightKerningGroup = O;
unicode = 1ED8;
},
{
color = 4;
glyphname = Ocircumflexgrave;
lastChange = "2018-02-06 15:08:33 +0000";
layers = (
{
background = {
paths = (
{
closed = 1;
nodes = (
"601 -10 OFFCURVE",
"719 124 OFFCURVE",
"719 350 CURVE SMOOTH",
"719 574 OFFCURVE",
"601 710 OFFCURVE",
"378 710 CURVE SMOOTH",
"154 710 OFFCURVE",
"36 574 OFFCURVE",
"36 350 CURVE SMOOTH",
"36 124 OFFCURVE",
"154 -10 OFFCURVE",
"378 -10 CURVE SMOOTH"
);
},
{
closed = 1;
nodes = (
"215 32 OFFCURVE",
"135 158 OFFCURVE",
"135 350 CURVE SMOOTH",
"135 541 OFFCURVE",
"215 668 OFFCURVE",
"377 668 CURVE SMOOTH",
"541 668 OFFCURVE",
"620 541 OFFCURVE",
"620 350 CURVE SMOOTH",
"620 158 OFFCURVE",
"541 32 OFFCURVE",
"377 32 CURVE SMOOTH"
);
},
{
closed = 1;
nodes = (
"285 914 LINE",
"190 1007 LINE SMOOTH",
"180 1017 OFFCURVE",
"163 1033 OFFCURVE",
"143 1033 CURVE SMOOTH",
"121 1033 OFFCURVE",
"110 1016 OFFCURVE",
"110 1002 CURVE SMOOTH",
"110 987 OFFCURVE",
"123 971 OFFCURVE",
"146 959 CURVE SMOOTH",
"268 892 LINE"
);
},
{
closed = 1;
nodes = (
"348 861 LINE SMOOTH",
"358 869 OFFCURVE",
"368 877 OFFCURVE",
"376 877 CURVE SMOOTH",
"382 877 OFFCURVE",
"390 872 OFFCURVE",
"399 866 CURVE",
"505 780 LINE",
"524 802 LINE",
"402 931 LINE",
"351 931 LINE",
"229 802 LINE",
"247 780 LINE"
);
}
);
};
components = (
{
name = O;
},
{
name = circumflexcomb;
transform = "{1, 0, 0, 1, 416, 210}";
},
{
name = gravecomb;
transform = "{1, 0, 0, 1, 166, 430}";
}
);
layerId = "0B1DFD06-3317-40CA-B510-4969A0718C16";
width = 832;
}
);
leftKerningGroup = O;
note = Ocircumflexgrave;
rightKerningGroup = O;
unicode = 1ED2;
},
{
color = 4;
glyphname = Ocircumflexhookabove;
lastChange = "2018-02-06 15:08:33 +0000";
layers = (
{
background = {
paths = (
{
closed = 1;
nodes = (
"601 -10 OFFCURVE",
"719 124 OFFCURVE",
"719 350 CURVE SMOOTH",
"719 574 OFFCURVE",
"601 710 OFFCURVE",
"378 710 CURVE SMOOTH",
"154 710 OFFCURVE",
"36 574 OFFCURVE",
"36 350 CURVE SMOOTH",
"36 124 OFFCURVE",
"154 -10 OFFCURVE",
"378 -10 CURVE SMOOTH"
);
},
{
closed = 1;
nodes = (
"215 32 OFFCURVE",
"135 158 OFFCURVE",
"135 350 CURVE SMOOTH",
"135 541 OFFCURVE",
"215 668 OFFCURVE",
"377 668 CURVE SMOOTH",
"541 668 OFFCURVE",
"620 541 OFFCURVE",
"620 350 CURVE SMOOTH",
"620 158 OFFCURVE",
"541 32 OFFCURVE",
"377 32 CURVE SMOOTH"
);
},
{
closed = 1;
nodes = (
"344 858 LINE",
"355 868 OFFCURVE",
"367 878 OFFCURVE",
"376 878 CURVE SMOOTH",
"382 878 OFFCURVE",
"390 873 OFFCURVE",
"399 867 CURVE",
"505 781 LINE",
"524 803 LINE",
"402 932 LINE",
"351 932 LINE",
"229 803 LINE",
"247 781 LINE"
);
},
{
closed = 1;
nodes = (
"551 898 LINE",
"532 905 OFFCURVE",
"522 912 OFFCURVE",
"522 926 CURVE SMOOTH",
"522 954 OFFCURVE",
"602 965 OFFCURVE",
"602 1010 CURVE SMOOTH",
"602 1047 OFFCURVE",
"560 1063 OFFCURVE",
"518 1063 CURVE SMOOTH",
"487 1063 OFFCURVE",
"442 1053 OFFCURVE",
"442 1022 CURVE SMOOTH",
"442 1010 OFFCURVE",
"453 1001 OFFCURVE",
"463 1001 CURVE SMOOTH",
"492 1001 OFFCURVE",
"479 1040 OFFCURVE",
"522 1040 CURVE SMOOTH",
"541 1040 OFFCURVE",
"552 1028 OFFCURVE",
"552 1013 CURVE SMOOTH",
"552 973 OFFCURVE",
"479 965 OFFCURVE",
"479 925 CURVE SMOOTH",
"479 901 OFFCURVE",
"495 880 OFFCURVE",
"542 880 CURVE"
);
}
);
};
components = (
{
name = O;
},
{
name = circumflexcomb;
transform = "{1, 0, 0, 1, 416, 210}";
},
{
name = hookabovecomb;
transform = "{1, 0, 0, 1, 166, 430}";
}
);
layerId = "0B1DFD06-3317-40CA-B510-4969A0718C16";
width = 832;
}
);
leftKerningGroup = O;
note = Ocircumflexhookabove;
rightKerningGroup = O;
unicode = 1ED4;
},
{
color = 4;
glyphname = Ocircumflextilde;
lastChange = "2018-02-06 15:08:33 +0000";
layers = (
{
background = {
paths = (
{
closed = 1;
nodes = (
"601 -10 OFFCURVE",
"719 124 OFFCURVE",
"719 350 CURVE SMOOTH",
"719 574 OFFCURVE",
"601 710 OFFCURVE",
"378 710 CURVE SMOOTH",
"154 710 OFFCURVE",
"36 574 OFFCURVE",
"36 350 CURVE SMOOTH",
"36 124 OFFCURVE",
"154 -10 OFFCURVE",
"378 -10 CURVE SMOOTH"
);
},
{
closed = 1;
nodes = (
"215 32 OFFCURVE",
"135 158 OFFCURVE",
"135 350 CURVE SMOOTH",
"135 541 OFFCURVE",
"215 668 OFFCURVE",
"377 668 CURVE SMOOTH",
"541 668 OFFCURVE",
"620 541 OFFCURVE",
"620 350 CURVE SMOOTH",
"620 158 OFFCURVE",
"541 32 OFFCURVE",
"377 32 CURVE SMOOTH"
);
},
{
closed = 1;
nodes = (
"348 862 LINE SMOOTH",
"358 870 OFFCURVE",
"368 878 OFFCURVE",
"376 878 CURVE SMOOTH",
"382 878 OFFCURVE",
"390 873 OFFCURVE",
"399 867 CURVE",
"505 781 LINE",
"524 803 LINE",
"402 932 LINE",
"351 932 LINE",
"229 803 LINE",
"247 781 LINE"
);
},
{
closed = 1;
nodes = (
"251 997 OFFCURVE",
"269 1018 OFFCURVE",
"300 1018 CURVE SMOOTH",
"349 1018 OFFCURVE",
"396 964 OFFCURVE",
"445 964 CURVE SMOOTH",
"498 964 OFFCURVE",
"527 1012 OFFCURVE",
"539 1063 CURVE",
"518 1075 LINE",
"505 1035 OFFCURVE",
"489 1012 OFFCURVE",
"456 1012 CURVE SMOOTH",
"409 1012 OFFCURVE",
"360 1065 OFFCURVE",
"311 1065 CURVE SMOOTH",
"260 1065 OFFCURVE",
"228 1021 OFFCURVE",
"218 970 CURVE",
"238 958 LINE"
);
}
);
};
components = (
{
name = O;
},
{
name = circumflexcomb;
transform = "{1, 0, 0, 1, 416, 210}";
},
{
name = tildecomb;
transform = "{1, 0, 0, 1, 416, 430}";
}
);
layerId = "0B1DFD06-3317-40CA-B510-4969A0718C16";
width = 832;
}
);
leftKerningGroup = O;
note = Ocircumflextilde;
rightKerningGroup = O;
unicode = 1ED6;
},
{
color = 4;
glyphname = Odieresis;
lastChange = "2018-02-06 13:46:15 +0000";
layers = (
{
background = {
paths = (
{
closed = 1;
nodes = (
"601 -10 OFFCURVE",
"719 124 OFFCURVE",
"719 350 CURVE SMOOTH",
"719 574 OFFCURVE",
"601 710 OFFCURVE",
"378 710 CURVE SMOOTH",
"154 710 OFFCURVE",
"36 574 OFFCURVE",
"36 350 CURVE SMOOTH",
"36 124 OFFCURVE",
"154 -10 OFFCURVE",
"378 -10 CURVE SMOOTH"
);
},
{
closed = 1;
nodes = (
"215 32 OFFCURVE",
"135 158 OFFCURVE",
"135 350 CURVE SMOOTH",
"135 541 OFFCURVE",
"215 668 OFFCURVE",
"377 668 CURVE SMOOTH",
"541 668 OFFCURVE",
"620 541 OFFCURVE",
"620 350 CURVE SMOOTH",
"620 158 OFFCURVE",
"541 32 OFFCURVE",
"377 32 CURVE SMOOTH"
);
},
{
closed = 1;
nodes = (
"298 781 OFFCURVE",
"316 800 OFFCURVE",
"316 827 CURVE SMOOTH",
"316 855 OFFCURVE",
"298 875 OFFCURVE",
"269 875 CURVE SMOOTH",
"241 875 OFFCURVE",
"223 855 OFFCURVE",
"223 827 CURVE SMOOTH",
"223 800 OFFCURVE",
"241 781 OFFCURVE",
"269 781 CURVE SMOOTH"
);
},
{
closed = 1;
nodes = (
"514 781 OFFCURVE",
"532 800 OFFCURVE",
"532 827 CURVE SMOOTH",
"532 855 OFFCURVE",
"514 875 OFFCURVE",
"485 875 CURVE SMOOTH",
"456 875 OFFCURVE",
"438 855 OFFCURVE",
"438 827 CURVE SMOOTH",
"438 800 OFFCURVE",
"456 781 OFFCURVE",
"485 781 CURVE SMOOTH"
);
}
);
};
components = (
{
name = O;
},
{
name = dieresiscomb;
transform = "{1, 0, 0, 1, 416, 210}";
}
);
layerId = "0B1DFD06-3317-40CA-B510-4969A0718C16";
width = 832;
}
);
leftKerningGroup = O;
note = Odieresis;
rightKerningGroup = O;
unicode = 00D6;
},
{
color = 4;
glyphname = Odotbelow;
lastChange = "2018-02-06 13:46:15 +0000";
layers = (
{
background = {
paths = (
{
closed = 1;
nodes = (
"36 124 OFFCURVE",
"154 -10 OFFCURVE",
"378 -10 CURVE SMOOTH",
"601 -10 OFFCURVE",
"719 124 OFFCURVE",
"719 350 CURVE SMOOTH",
"719 574 OFFCURVE",
"601 710 OFFCURVE",
"378 710 CURVE SMOOTH",
"154 710 OFFCURVE",
"36 574 OFFCURVE",
"36 350 CURVE SMOOTH"
);
},
{
closed = 1;
nodes = (
"135 541 OFFCURVE",
"215 668 OFFCURVE",
"377 668 CURVE SMOOTH",
"541 668 OFFCURVE",
"620 541 OFFCURVE",
"620 350 CURVE SMOOTH",
"620 158 OFFCURVE",
"541 32 OFFCURVE",
"377 32 CURVE SMOOTH",
"215 32 OFFCURVE",
"135 158 OFFCURVE",
"135 350 CURVE SMOOTH"
);
},
{
closed = 1;
nodes = (
"330 -140 OFFCURVE",
"349 -159 OFFCURVE",
"377 -159 CURVE SMOOTH",
"405 -159 OFFCURVE",
"423 -140 OFFCURVE",
"423 -112 CURVE SMOOTH",
"423 -84 OFFCURVE",
"405 -64 OFFCURVE",
"377 -64 CURVE SMOOTH",
"349 -64 OFFCURVE",
"330 -84 OFFCURVE",
"330 -112 CURVE SMOOTH"
);
}
);
};
components = (
{
name = O;
},
{
name = dotbelowcomb;
transform = "{1, 0, 0, 1, 166, 0}";
}
);
layerId = "0B1DFD06-3317-40CA-B510-4969A0718C16";
width = 832;
}
);
leftKerningGroup = O;
note = Odotbelow;
rightKerningGroup = O;
unicode = 1ECC;
},
{
color = 4;
glyphname = Ograve;
lastChange = "2018-02-06 13:46:15 +0000";
layers = (
{
background = {
paths = (
{
closed = 1;
nodes = (
"601 -10 OFFCURVE",
"719 124 OFFCURVE",
"719 350 CURVE SMOOTH",
"719 574 OFFCURVE",
"601 710 OFFCURVE",
"378 710 CURVE SMOOTH",
"154 710 OFFCURVE",
"36 574 OFFCURVE",
"36 350 CURVE SMOOTH",
"36 124 OFFCURVE",
"154 -10 OFFCURVE",
"378 -10 CURVE SMOOTH"
);
},
{
closed = 1;
nodes = (
"215 32 OFFCURVE",
"135 158 OFFCURVE",
"135 350 CURVE SMOOTH",
"135 541 OFFCURVE",
"215 668 OFFCURVE",
"377 668 CURVE SMOOTH",
"541 668 OFFCURVE",
"620 541 OFFCURVE",
"620 350 CURVE SMOOTH",
"620 158 OFFCURVE",
"541 32 OFFCURVE",
"377 32 CURVE SMOOTH"
);
},
{
closed = 1;
nodes = (
"459 807 LINE",
"344 913 LINE",
"335 922 OFFCURVE",
"319 937 OFFCURVE",
"299 937 CURVE SMOOTH",
"279 937 OFFCURVE",
"267 924 OFFCURVE",
"267 908 CURVE SMOOTH",
"267 890 OFFCURVE",
"279 876 OFFCURVE",
"298 865 CURVE SMOOTH",
"441 782 LINE"
);
}
);
};
components = (
{
name = O;
},
{
name = gravecomb;
transform = "{1, 0, 0, 1, 166, 210}";
}
);
layerId = "0B1DFD06-3317-40CA-B510-4969A0718C16";
width = 832;
}
);
leftKerningGroup = O;
note = Ograve;
rightKerningGroup = O;
unicode = 00D2;
},
{
color = 4;
glyphname = Ohookabove;
lastChange = "2018-02-06 13:46:15 +0000";
layers = (
{
background = {
paths = (
{
closed = 1;
nodes = (
"601 -10 OFFCURVE",
"719 124 OFFCURVE",
"719 350 CURVE SMOOTH",
"719 574 OFFCURVE",
"601 710 OFFCURVE",
"378 710 CURVE SMOOTH",
"154 710 OFFCURVE",
"36 574 OFFCURVE",
"36 350 CURVE SMOOTH",
"36 124 OFFCURVE",
"154 -10 OFFCURVE",
"378 -10 CURVE SMOOTH"
);
},
{
closed = 1;
nodes = (
"215 32 OFFCURVE",
"135 158 OFFCURVE",
"135 350 CURVE SMOOTH",
"135 541 OFFCURVE",
"215 668 OFFCURVE",
"377 668 CURVE SMOOTH",
"541 668 OFFCURVE",
"620 541 OFFCURVE",
"620 350 CURVE SMOOTH",
"620 158 OFFCURVE",
"541 32 OFFCURVE",
"377 32 CURVE SMOOTH"
);
},
{
closed = 1;
nodes = (
"407 798 LINE",
"388 805 OFFCURVE",
"376 811 OFFCURVE",
"376 828 CURVE SMOOTH",
"376 861 OFFCURVE",
"465 876 OFFCURVE",
"465 927 CURVE SMOOTH",
"465 969 OFFCURVE",
"429 991 OFFCURVE",
"376 991 CURVE SMOOTH",
"329 991 OFFCURVE",
"288 974 OFFCURVE",
"288 940 CURVE SMOOTH",
"288 923 OFFCURVE",
"296 915 OFFCURVE",
"311 915 CURVE SMOOTH",
"334 915 OFFCURVE",
"336 934 OFFCURVE",
"339 942 CURVE SMOOTH",
"344 956 OFFCURVE",
"361 962 OFFCURVE",
"377 962 CURVE SMOOTH",
"398 962 OFFCURVE",
"411 947 OFFCURVE",
"411 930 CURVE SMOOTH",
"411 885 OFFCURVE",
"329 874 OFFCURVE",
"329 828 CURVE SMOOTH",
"329 801 OFFCURVE",
"347 778 OFFCURVE",
"398 778 CURVE"
);
}
);
};
components = (
{
name = O;
},
{
name = hookabovecomb;
transform = "{1, 0, 0, 1, 166, 210}";
}
);
layerId = "0B1DFD06-3317-40CA-B510-4969A0718C16";
width = 832;
}
);
leftKerningGroup = O;
note = Ohookabove;
rightKerningGroup = O;
unicode = 1ECE;
},
{
color = 4;
glyphname = Ohornacute;
lastChange = "2018-02-06 13:46:15 +0000";
layers = (
{
background = {
paths = (
{
closed = 1;
nodes = (
"602 -10 OFFCURVE",
"720 124 OFFCURVE",
"720 350 CURVE SMOOTH",
"720 574 OFFCURVE",
"602 710 OFFCURVE",
"379 710 CURVE SMOOTH",
"155 710 OFFCURVE",
"37 574 OFFCURVE",
"37 350 CURVE SMOOTH",
"37 124 OFFCURVE",
"155 -10 OFFCURVE",
"379 -10 CURVE SMOOTH"
);
},
{
closed = 1;
nodes = (
"216 32 OFFCURVE",
"136 158 OFFCURVE",
"136 350 CURVE SMOOTH",
"136 541 OFFCURVE",
"216 668 OFFCURVE",
"378 668 CURVE SMOOTH",
"542 668 OFFCURVE",
"621 541 OFFCURVE",
"621 350 CURVE SMOOTH",
"621 158 OFFCURVE",
"542 32 OFFCURVE",
"378 32 CURVE SMOOTH"
);
},
{
closed = 1;
nodes = (
"424 864 LINE SMOOTH",
"446 876 OFFCURVE",
"458 889 OFFCURVE",
"458 906 CURVE SMOOTH",
"458 921 OFFCURVE",
"446 936 OFFCURVE",
"424 936 CURVE SMOOTH",
"403 936 OFFCURVE",
"388 920 OFFCURVE",
"380 913 CURVE SMOOTH",
"265 806 LINE",
"282 781 LINE"
);
},
{
closed = 1;
nodes = (
"691 567 OFFCURVE",
"756 632 OFFCURVE",
"756 705 CURVE SMOOTH",
"756 752 OFFCURVE",
"729 772 OFFCURVE",
"701 772 CURVE SMOOTH",
"672 772 OFFCURVE",
"656 752 OFFCURVE",
"656 729 CURVE SMOOTH",
"656 695 OFFCURVE",
"689 688 OFFCURVE",
"689 653 CURVE SMOOTH",
"689 617 OFFCURVE",
"658 588 OFFCURVE",
"623 568 CURVE",
"623 543 LINE"
);
}
);
};
components = (
{
name = Ohorn;
},
{
name = acutecomb;
transform = "{1, 0, 0, 1, 166, 210}";
}
);
layerId = "0B1DFD06-3317-40CA-B510-4969A0718C16";
width = 832;
}
);
leftKerningGroup = O;
note = Ohornacute;
rightKerningGroup = O;
unicode = 1EDA;
},
{
color = 4;
glyphname = Ohorndotbelow;
lastChange = "2018-02-06 13:46:15 +0000";
layers = (
{
background = {
paths = (
{
closed = 1;
nodes = (
"602 -10 OFFCURVE",
"720 124 OFFCURVE",
"720 350 CURVE SMOOTH",
"720 574 OFFCURVE",
"602 710 OFFCURVE",
"379 710 CURVE SMOOTH",
"155 710 OFFCURVE",
"37 574 OFFCURVE",
"37 350 CURVE SMOOTH",
"37 124 OFFCURVE",
"155 -10 OFFCURVE",
"379 -10 CURVE SMOOTH"
);
},
{
closed = 1;
nodes = (
"216 32 OFFCURVE",
"136 158 OFFCURVE",
"136 350 CURVE SMOOTH",
"136 541 OFFCURVE",
"216 668 OFFCURVE",
"378 668 CURVE SMOOTH",
"542 668 OFFCURVE",
"621 541 OFFCURVE",
"621 350 CURVE SMOOTH",
"621 158 OFFCURVE",
"542 32 OFFCURVE",
"378 32 CURVE SMOOTH"
);
},
{
closed = 1;
nodes = (
"691 567 OFFCURVE",
"756 632 OFFCURVE",
"756 705 CURVE SMOOTH",
"756 752 OFFCURVE",
"729 772 OFFCURVE",
"701 772 CURVE SMOOTH",
"672 772 OFFCURVE",
"656 752 OFFCURVE",
"656 729 CURVE SMOOTH",
"656 695 OFFCURVE",
"689 688 OFFCURVE",
"689 653 CURVE SMOOTH",
"689 617 OFFCURVE",
"658 588 OFFCURVE",
"623 568 CURVE",
"623 543 LINE"
);
},
{
closed = 1;
nodes = (
"395 -159 OFFCURVE",
"413 -140 OFFCURVE",
"413 -112 CURVE SMOOTH",
"413 -84 OFFCURVE",
"395 -64 OFFCURVE",
"367 -64 CURVE SMOOTH",
"339 -64 OFFCURVE",
"320 -84 OFFCURVE",
"320 -112 CURVE SMOOTH",
"320 -140 OFFCURVE",
"339 -159 OFFCURVE",
"367 -159 CURVE SMOOTH"
);
}
);
};
components = (
{
name = Ohorn;
},
{
name = dotbelowcomb;
transform = "{1, 0, 0, 1, 166, 0}";
}
);
layerId = "0B1DFD06-3317-40CA-B510-4969A0718C16";
width = 832;
}
);
leftKerningGroup = O;
note = Ohorndotbelow;
rightKerningGroup = O;
unicode = 1EE2;
},
{
color = 4;
glyphname = Ohorngrave;
lastChange = "2018-02-06 15:14:19 +0000";
layers = (
{
background = {
paths = (
{
closed = 1;
nodes = (
"602 -10 OFFCURVE",
"720 124 OFFCURVE",
"720 350 CURVE SMOOTH",
"720 574 OFFCURVE",
"602 710 OFFCURVE",
"379 710 CURVE SMOOTH",
"155 710 OFFCURVE",
"37 574 OFFCURVE",
"37 350 CURVE SMOOTH",
"37 124 OFFCURVE",
"155 -10 OFFCURVE",
"379 -10 CURVE SMOOTH"
);
},
{
closed = 1;
nodes = (
"216 32 OFFCURVE",
"136 158 OFFCURVE",
"136 350 CURVE SMOOTH",
"136 541 OFFCURVE",
"216 668 OFFCURVE",
"378 668 CURVE SMOOTH",
"542 668 OFFCURVE",
"621 541 OFFCURVE",
"621 350 CURVE SMOOTH",
"621 158 OFFCURVE",
"542 32 OFFCURVE",
"378 32 CURVE SMOOTH"
);
},
{
closed = 1;
nodes = (
"464 816 LINE",
"349 922 LINE",
"340 931 OFFCURVE",
"324 946 OFFCURVE",
"304 946 CURVE SMOOTH",
"284 946 OFFCURVE",
"272 933 OFFCURVE",
"272 917 CURVE SMOOTH",
"272 899 OFFCURVE",
"284 885 OFFCURVE",
"303 874 CURVE SMOOTH",
"446 791 LINE"
);
},
{
closed = 1;
nodes = (
"691 567 OFFCURVE",
"756 632 OFFCURVE",
"756 705 CURVE SMOOTH",
"756 752 OFFCURVE",
"729 772 OFFCURVE",
"701 772 CURVE SMOOTH",
"672 772 OFFCURVE",
"656 752 OFFCURVE",
"656 729 CURVE SMOOTH",
"656 695 OFFCURVE",
"689 688 OFFCURVE",
"689 653 CURVE SMOOTH",
"689 617 OFFCURVE",
"658 588 OFFCURVE",
"623 568 CURVE",
"623 543 LINE"
);
}
);
};
components = (
{
name = Ohorn;
},
{
name = gravecomb;
transform = "{1, 0, 0, 1, 166, 210}";
}
);
layerId = "0B1DFD06-3317-40CA-B510-4969A0718C16";
width = 832;
}
);
leftKerningGroup = O;
note = Ohorngrave;
rightKerningGroup = O;
unicode = 1EDC;
},
{
color = 4;
glyphname = Ohornhookabove;
lastChange = "2018-02-06 13:46:15 +0000";
layers = (
{
background = {
paths = (
{
closed = 1;
nodes = (
"602 -10 OFFCURVE",
"720 124 OFFCURVE",
"720 350 CURVE SMOOTH",
"720 574 OFFCURVE",
"602 710 OFFCURVE",
"379 710 CURVE SMOOTH",
"155 710 OFFCURVE",
"37 574 OFFCURVE",
"37 350 CURVE SMOOTH",
"37 124 OFFCURVE",
"155 -10 OFFCURVE",
"379 -10 CURVE SMOOTH"
);
},
{
closed = 1;
nodes = (
"216 32 OFFCURVE",
"136 158 OFFCURVE",
"136 350 CURVE SMOOTH",
"136 541 OFFCURVE",
"216 668 OFFCURVE",
"378 668 CURVE SMOOTH",
"542 668 OFFCURVE",
"621 541 OFFCURVE",
"621 350 CURVE SMOOTH",
"621 158 OFFCURVE",
"542 32 OFFCURVE",
"378 32 CURVE SMOOTH"
);
},
{
closed = 1;
nodes = (
"412 809 LINE",
"393 816 OFFCURVE",
"381 822 OFFCURVE",
"381 839 CURVE SMOOTH",
"381 872 OFFCURVE",
"470 887 OFFCURVE",
"470 938 CURVE SMOOTH",
"470 980 OFFCURVE",
"434 1002 OFFCURVE",
"381 1002 CURVE SMOOTH",
"334 1002 OFFCURVE",
"293 985 OFFCURVE",
"293 951 CURVE SMOOTH",
"293 934 OFFCURVE",
"301 926 OFFCURVE",
"316 926 CURVE SMOOTH",
"339 926 OFFCURVE",
"341 945 OFFCURVE",
"344 953 CURVE SMOOTH",
"349 967 OFFCURVE",
"366 973 OFFCURVE",
"382 973 CURVE SMOOTH",
"403 973 OFFCURVE",
"416 958 OFFCURVE",
"416 941 CURVE SMOOTH",
"416 896 OFFCURVE",
"334 885 OFFCURVE",
"334 839 CURVE SMOOTH",
"334 812 OFFCURVE",
"352 789 OFFCURVE",
"403 789 CURVE"
);
},
{
closed = 1;
nodes = (
"691 567 OFFCURVE",
"756 632 OFFCURVE",
"756 705 CURVE SMOOTH",
"756 752 OFFCURVE",
"729 772 OFFCURVE",
"701 772 CURVE SMOOTH",
"672 772 OFFCURVE",
"656 752 OFFCURVE",
"656 729 CURVE SMOOTH",
"656 695 OFFCURVE",
"689 688 OFFCURVE",
"689 653 CURVE SMOOTH",
"689 617 OFFCURVE",
"658 588 OFFCURVE",
"623 568 CURVE",
"623 543 LINE"
);
}
);
};
components = (
{
name = Ohorn;
},
{
name = hookabovecomb;
transform = "{1, 0, 0, 1, 166, 210}";
}
);
layerId = "0B1DFD06-3317-40CA-B510-4969A0718C16";
width = 832;
}
);
leftKerningGroup = O;
note = Ohornhookabove;
rightKerningGroup = O;
unicode = 1EDE;
},
{
color = 4;
glyphname = Ohorntilde;
lastChange = "2018-02-06 13:46:15 +0000";
layers = (
{
background = {
paths = (
{
closed = 1;
nodes = (
"602 -10 OFFCURVE",
"720 124 OFFCURVE",
"720 350 CURVE SMOOTH",
"720 574 OFFCURVE",
"602 710 OFFCURVE",
"379 710 CURVE SMOOTH",
"155 710 OFFCURVE",
"37 574 OFFCURVE",
"37 350 CURVE SMOOTH",
"37 124 OFFCURVE",
"155 -10 OFFCURVE",
"379 -10 CURVE SMOOTH"
);
},
{
closed = 1;
nodes = (
"216 32 OFFCURVE",
"136 158 OFFCURVE",
"136 350 CURVE SMOOTH",
"136 541 OFFCURVE",
"216 668 OFFCURVE",
"378 668 CURVE SMOOTH",
"542 668 OFFCURVE",
"621 541 OFFCURVE",
"621 350 CURVE SMOOTH",
"621 158 OFFCURVE",
"542 32 OFFCURVE",
"378 32 CURVE SMOOTH"
);
},
{
closed = 1;
nodes = (
"234 828 OFFCURVE",
"252 849 OFFCURVE",
"285 849 CURVE SMOOTH",
"336 849 OFFCURVE",
"385 795 OFFCURVE",
"436 795 CURVE SMOOTH",
"494 795 OFFCURVE",
"524 843 OFFCURVE",
"536 895 CURVE",
"515 906 LINE",
"499 866 OFFCURVE",
"483 844 OFFCURVE",
"449 844 CURVE SMOOTH",
"400 844 OFFCURVE",
"348 897 OFFCURVE",
"297 897 CURVE SMOOTH",
"243 897 OFFCURVE",
"210 853 OFFCURVE",
"198 801 CURVE",
"220 790 LINE"
);
},
{
closed = 1;
nodes = (
"691 567 OFFCURVE",
"756 632 OFFCURVE",
"756 705 CURVE SMOOTH",
"756 752 OFFCURVE",
"729 772 OFFCURVE",
"701 772 CURVE SMOOTH",
"672 772 OFFCURVE",
"656 752 OFFCURVE",
"656 729 CURVE SMOOTH",
"656 695 OFFCURVE",
"689 688 OFFCURVE",
"689 653 CURVE SMOOTH",
"689 617 OFFCURVE",
"658 588 OFFCURVE",
"623 568 CURVE",
"623 543 LINE"
);
}
);
};
components = (
{
name = Ohorn;
},
{
name = tildecomb;
transform = "{1, 0, 0, 1, 416, 210}";
}
);
layerId = "0B1DFD06-3317-40CA-B510-4969A0718C16";
width = 832;
}
);
leftKerningGroup = O;
note = Ohorntilde;
rightKerningGroup = O;
unicode = 1EE0;
},
{
color = 4;
glyphname = Ohungarumlaut;
lastChange = "2018-02-06 15:08:33 +0000";
layers = (
{
background = {
paths = (
{
closed = 1;
nodes = (
"601 -10 OFFCURVE",
"719 124 OFFCURVE",
"719 350 CURVE SMOOTH",
"719 574 OFFCURVE",
"601 710 OFFCURVE",
"378 710 CURVE SMOOTH",
"154 710 OFFCURVE",
"36 574 OFFCURVE",
"36 350 CURVE SMOOTH",
"36 124 OFFCURVE",
"154 -10 OFFCURVE",
"378 -10 CURVE SMOOTH"
);
},
{
closed = 1;
nodes = (
"215 32 OFFCURVE",
"135 158 OFFCURVE",
"135 350 CURVE SMOOTH",
"135 541 OFFCURVE",
"215 668 OFFCURVE",
"377 668 CURVE SMOOTH",
"541 668 OFFCURVE",
"620 541 OFFCURVE",
"620 350 CURVE SMOOTH",
"620 158 OFFCURVE",
"541 32 OFFCURVE",
"377 32 CURVE SMOOTH"
);
},
{
closed = 1;
nodes = (
"395 864 LINE SMOOTH",
"417 877 OFFCURVE",
"429 891 OFFCURVE",
"429 908 CURVE SMOOTH",
"429 922 OFFCURVE",
"421 937 OFFCURVE",
"399 937 CURVE SMOOTH",
"378 937 OFFCURVE",
"357 919 OFFCURVE",
"350 913 CURVE",
"236 807 LINE",
"253 782 LINE"
);
},
{
closed = 1;
nodes = (
"556 864 LINE SMOOTH",
"577 877 OFFCURVE",
"589 891 OFFCURVE",
"589 908 CURVE SMOOTH",
"589 922 OFFCURVE",
"578 937 OFFCURVE",
"556 937 CURVE SMOOTH",
"534 937 OFFCURVE",
"517 919 OFFCURVE",
"510 913 CURVE",
"396 807 LINE",
"414 782 LINE"
);
}
);
};
components = (
{
name = O;
},
{
name = hungarumlautcomb;
transform = "{1, 0, 0, 1, 416, 210}";
}
);
layerId = "0B1DFD06-3317-40CA-B510-4969A0718C16";
width = 832;
}
);
leftKerningGroup = O;
note = Ohungarumlaut;
rightKerningGroup = O;
unicode = 0150;
},
{
color = 4;
glyphname = Omacron;
lastChange = "2018-02-06 13:46:15 +0000";
layers = (
{
background = {
paths = (
{
closed = 1;
nodes = (
"601 -10 OFFCURVE",
"719 124 OFFCURVE",
"719 350 CURVE SMOOTH",
"719 574 OFFCURVE",
"601 710 OFFCURVE",
"378 710 CURVE SMOOTH",
"154 710 OFFCURVE",
"36 574 OFFCURVE",
"36 350 CURVE SMOOTH",
"36 124 OFFCURVE",
"154 -10 OFFCURVE",
"378 -10 CURVE SMOOTH"
);
},
{
closed = 1;
nodes = (
"215 32 OFFCURVE",
"135 158 OFFCURVE",
"135 350 CURVE SMOOTH",
"135 541 OFFCURVE",
"215 668 OFFCURVE",
"377 668 CURVE SMOOTH",
"541 668 OFFCURVE",
"620 541 OFFCURVE",
"620 350 CURVE SMOOTH",
"620 158 OFFCURVE",
"541 32 OFFCURVE",
"377 32 CURVE SMOOTH"
);
},
{
closed = 1;
nodes = (
"543 793 LINE",
"543 835 LINE",
"210 835 LINE",
"210 793 LINE"
);
}
);
};
components = (
{
name = O;
},
{
name = macroncomb;
transform = "{1, 0, 0, 1, 416, 210}";
}
);
layerId = "0B1DFD06-3317-40CA-B510-4969A0718C16";
width = 832;
}
);
leftKerningGroup = O;
note = Omacron;
rightKerningGroup = O;
unicode = 014C;
},
{
color = 4;
glyphname = Oslash;
lastChange = "2018-02-06 13:46:15 +0000";
layers = (
{
components = (
{
name = O;
}
);
layerId = "0B1DFD06-3317-40CA-B510-4969A0718C16";
paths = (
{
closed = 1;
nodes = (
"737 740 LINE",
"690 740 LINE",
"118 -50 LINE",
"165 -50 LINE"
);
}
);
width = 832;
}
);
note = Oslash;
unicode = 00D8;
},
{
color = 4;
glyphname = OE;
lastChange = "2018-02-06 16:29:15 +0000";
layers = (
{
anchors = (
{
name = bottom;
position = "{535, 0}";
},
{
name = center;
position = "{339.092, 350}";
},
{
name = top;
position = "{535, 700}";
}
);
layerId = "0B1DFD06-3317-40CA-B510-4969A0718C16";
paths = (
{
closed = 1;
nodes = (
"557 -10 OFFCURVE",
"686 121 OFFCURVE",
"686 352 CURVE SMOOTH",
"686 583 OFFCURVE",
"557 710 OFFCURVE",
"371 710 CURVE SMOOTH",
"185 710 OFFCURVE",
"56 583 OFFCURVE",
"56 352 CURVE SMOOTH",
"56 121 OFFCURVE",
"185 -10 OFFCURVE",
"371 -10 CURVE SMOOTH"
);
},
{
closed = 1;
nodes = (
"220 24 OFFCURVE",
"116 142 OFFCURVE",
"116 352 CURVE SMOOTH",
"116 561 OFFCURVE",
"219 676 OFFCURVE",
"371 676 CURVE SMOOTH",
"523 676 OFFCURVE",
"634 561 OFFCURVE",
"634 352 CURVE SMOOTH",
"634 142 OFFCURVE",
"522 24 OFFCURVE",
"371 24 CURVE SMOOTH"
);
},
{
closed = 1;
nodes = (
"1040 0 LINE",
"1040 36 LINE",
"694 36 LINE",
"694 358 LINE",
"982 358 LINE",
"982 394 LINE",
"694 394 LINE",
"694 662 LINE",
"1040 662 LINE",
"1040 700 LINE",
"634 700 LINE",
"634 0 LINE"
);
}
);
width = 1070;
}
);
leftMetricsKey = O;
note = OE;
rightMetricsKey = E;
unicode = 0152;
},
{
color = 4;
glyphname = Thorn;
lastChange = "2018-02-06 13:52:40 +0000";
layers = (
{
layerId = "0B1DFD06-3317-40CA-B510-4969A0718C16";
paths = (
{
closed = 1;
nodes = (
"136 0 LINE",
"136 182 LINE",
"322 182 LINE SMOOTH",
"504 182 OFFCURVE",
"605 257 OFFCURVE",
"605 395 CURVE SMOOTH",
"605 531 OFFCURVE",
"504 608 OFFCURVE",
"322 608 CURVE SMOOTH",
"76 608 LINE",
"76 0 LINE"
);
},
{
closed = 1;
nodes = (
"136 570 LINE",
"324 570 LINE SMOOTH",
"466 570 OFFCURVE",
"545 507 OFFCURVE",
"545 395 CURVE SMOOTH",
"545 283 OFFCURVE",
"466 220 OFFCURVE",
"324 220 CURVE SMOOTH",
"136 220 LINE"
);
},
{
closed = 1;
nodes = (
"76 568 LINE",
"136 568 LINE",
"136 750 LINE",
"76 750 LINE"
);
}
);
width = 631;
}
);
note = Thorn;
rightMetricsKey = P;
unicode = 00DE;
},
{
color = 4;
glyphname = Germandbls;
lastChange = "2018-02-06 14:53:14 +0000";
layers = (
{
layerId = "0B1DFD06-3317-40CA-B510-4969A0718C16";
paths = (
{
closed = 1;
nodes = (
"597 -10 OFFCURVE",
"680 40 OFFCURVE",
"680 136 CURVE SMOOTH",
"680 212 OFFCURVE",
"628 241 OFFCURVE",
"573 270 CURVE SMOOTH",
"480 320 OFFCURVE",
"440 347 OFFCURVE",
"440 416 CURVE SMOOTH",
"440 489 OFFCURVE",
"484 530 OFFCURVE",
"560 558 CURVE",
"560 628 OFFCURVE",
"490 710 OFFCURVE",
"332 710 CURVE SMOOTH",
"176 710 OFFCURVE",
"76 631 OFFCURVE",
"76 516 CURVE SMOOTH",
"76 0 LINE",
"136 0 LINE",
"136 541 LINE SMOOTH",
"136 612 OFFCURVE",
"203 676 OFFCURVE",
"328 676 CURVE SMOOTH",
"424 676 OFFCURVE",
"504 638 OFFCURVE",
"518 575 CURVE",
"463 548 OFFCURVE",
"385 510 OFFCURVE",
"385 411 CURVE SMOOTH",
"385 329 OFFCURVE",
"445 285 OFFCURVE",
"502 257 CURVE SMOOTH",
"556 230 OFFCURVE",
"625 205 OFFCURVE",
"625 132 CURVE SMOOTH",
"625 62 OFFCURVE",
"560 24 OFFCURVE",
"478 24 CURVE SMOOTH",
"395 24 OFFCURVE",
"336 63 OFFCURVE",
"329 143 CURVE",
"272 143 LINE",
"282 45 OFFCURVE",
"357 -10 OFFCURVE",
"480 -10 CURVE SMOOTH"
);
}
);
width = 700;
}
);
note = uni1E9E;
unicode = 1E9E;
},
{
color = 4;
glyphname = Schwa;
lastChange = "2018-02-06 18:00:00 +0000";
layers = (
{
anchors = (
{
name = bottom;
position = "{409, 696}";
},
{
name = ogonek;
position = "{221, 634}";
},
{
name = top;
position = "{409, 4}";
}
);
layerId = "0B1DFD06-3317-40CA-B510-4969A0718C16";
paths = (
{
closed = 1;
nodes = (
"625 -10 OFFCURVE",
"761 134 OFFCURVE",
"761 353 CURVE SMOOTH",
"761 568 OFFCURVE",
"635 710 OFFCURVE",
"407 710 CURVE SMOOTH",
"230 710 OFFCURVE",
"103 617 OFFCURVE",
"66 486 CURVE",
"123 486 LINE",
"156 608 OFFCURVE",
"259 676 OFFCURVE",
"412 676 CURVE SMOOTH",
"598 676 OFFCURVE",
"701 558 OFFCURVE",
"701 347 CURVE SMOOTH",
"701 139 OFFCURVE",
"596 24 OFFCURVE",
"406 24 CURVE SMOOTH",
"223 24 OFFCURVE",
"118 137 OFFCURVE",
"113 340 CURVE",
"56 340 LINE",
"65 119 OFFCURVE",
"200 -10 OFFCURVE",
"404 -10 CURVE SMOOTH"
);
},
{
closed = 1;
nodes = (
"735 302 LINE",
"735 340 LINE",
"91 340 LINE",
"91 302 LINE"
);
}
);
width = 817;
}
);
leftMetricsKey = O;
note = uni018F;
rightMetricsKey = O;
unicode = 018F;
},
{
color = 4;
glyphname = Tbar;
lastChange = "2018-02-06 13:58:22 +0000";
layers = (
{
components = (
{
name = T;
}
);
layerId = "0B1DFD06-3317-40CA-B510-4969A0718C16";
paths = (
{
closed = 1;
nodes = (
"570 321 LINE",
"570 357 LINE",
"110 357 LINE",
"110 321 LINE"
);
}
);
width = 680;
}
);
leftKerningGroup = T;
note = Tbar;
rightKerningGroup = T;
unicode = 0166;
},
{
color = 4;
glyphname = Uacute;
lastChange = "2018-02-06 16:54:51 +0000";
layers = (
{
background = {
paths = (
{
closed = 1;
nodes = (
"539 -10 OFFCURVE",
"636 51 OFFCURVE",
"636 204 CURVE SMOOTH",
"636 637 LINE SMOOTH",
"636 662 OFFCURVE",
"660 673 OFFCURVE",
"690 673 CURVE SMOOTH",
"713 673 LINE",
"713 700 LINE",
"510 700 LINE",
"510 673 LINE",
"532 673 LINE SMOOTH",
"564 673 OFFCURVE",
"586 662 OFFCURVE",
"586 637 CURVE SMOOTH",
"586 197 LINE SMOOTH",
"586 65 OFFCURVE",
"489 31 OFFCURVE",
"397 31 CURVE SMOOTH",
"290 31 OFFCURVE",
"203 63 OFFCURVE",
"203 197 CURVE SMOOTH",
"203 637 LINE SMOOTH",
"203 662 OFFCURVE",
"226 673 OFFCURVE",
"257 673 CURVE SMOOTH",
"280 673 LINE",
"280 700 LINE",
"28 700 LINE",
"28 673 LINE",
"51 673 LINE SMOOTH",
"82 673 OFFCURVE",
"105 662 OFFCURVE",
"105 637 CURVE SMOOTH",
"105 204 LINE SMOOTH",
"105 46 OFFCURVE",
"208 -10 OFFCURVE",
"375 -10 CURVE SMOOTH"
);
},
{
closed = 1;
nodes = (
"447 865 LINE SMOOTH",
"469 877 OFFCURVE",
"481 890 OFFCURVE",
"481 907 CURVE SMOOTH",
"481 922 OFFCURVE",
"469 937 OFFCURVE",
"447 937 CURVE SMOOTH",
"426 937 OFFCURVE",
"411 921 OFFCURVE",
"403 914 CURVE SMOOTH",
"288 807 LINE",
"305 782 LINE"
);
}
);
};
components = (
{
name = U;
},
{
name = acutecomb;
transform = "{1, 0, 0, 1, 136, 210}";
}
);
layerId = "0B1DFD06-3317-40CA-B510-4969A0718C16";
width = 772;
}
);
leftKerningGroup = U;
note = Uacute;
rightKerningGroup = U;
unicode = 00DA;
},
{
color = 4;
glyphname = Ubreve;
lastChange = "2018-02-06 16:54:51 +0000";
layers = (
{
background = {
paths = (
{
closed = 1;
nodes = (
"539 -10 OFFCURVE",
"636 51 OFFCURVE",
"636 204 CURVE SMOOTH",
"636 637 LINE SMOOTH",
"636 662 OFFCURVE",
"660 673 OFFCURVE",
"690 673 CURVE SMOOTH",
"713 673 LINE",
"713 700 LINE",
"510 700 LINE",
"510 673 LINE",
"532 673 LINE SMOOTH",
"564 673 OFFCURVE",
"586 662 OFFCURVE",
"586 637 CURVE SMOOTH",
"586 197 LINE SMOOTH",
"586 65 OFFCURVE",
"489 31 OFFCURVE",
"397 31 CURVE SMOOTH",
"290 31 OFFCURVE",
"203 63 OFFCURVE",
"203 197 CURVE SMOOTH",
"203 637 LINE SMOOTH",
"203 662 OFFCURVE",
"226 673 OFFCURVE",
"257 673 CURVE SMOOTH",
"280 673 LINE",
"280 700 LINE",
"28 700 LINE",
"28 673 LINE",
"51 673 LINE SMOOTH",
"82 673 OFFCURVE",
"105 662 OFFCURVE",
"105 637 CURVE SMOOTH",
"105 204 LINE SMOOTH",
"105 46 OFFCURVE",
"208 -10 OFFCURVE",
"375 -10 CURVE SMOOTH"
);
},
{
closed = 1;
nodes = (
"483 774 OFFCURVE",
"525 830 OFFCURVE",
"529 905 CURVE",
"496 905 LINE",
"490 846 OFFCURVE",
"448 820 OFFCURVE",
"384 820 CURVE SMOOTH",
"320 820 OFFCURVE",
"277 846 OFFCURVE",
"270 905 CURVE",
"237 905 LINE",
"241 827 OFFCURVE",
"283 774 OFFCURVE",
"384 774 CURVE SMOOTH"
);
}
);
};
components = (
{
name = U;
},
{
name = brevecomb;
transform = "{1, 0, 0, 1, 386, 210}";
}
);
layerId = "0B1DFD06-3317-40CA-B510-4969A0718C16";
width = 772;
}
);
leftKerningGroup = U;
note = Ubreve;
rightKerningGroup = U;
unicode = 016C;
},
{
color = 4;
glyphname = Ucaron;
lastChange = "2018-02-06 16:54:50 +0000";
layers = (
{
background = {
paths = (
{
closed = 1;
nodes = (
"539 -10 OFFCURVE",
"636 51 OFFCURVE",
"636 204 CURVE SMOOTH",
"636 637 LINE SMOOTH",
"636 662 OFFCURVE",
"660 673 OFFCURVE",
"690 673 CURVE SMOOTH",
"713 673 LINE",
"713 700 LINE",
"510 700 LINE",
"510 673 LINE",
"532 673 LINE SMOOTH",
"564 673 OFFCURVE",
"586 662 OFFCURVE",
"586 637 CURVE SMOOTH",
"586 197 LINE SMOOTH",
"586 65 OFFCURVE",
"489 31 OFFCURVE",
"397 31 CURVE SMOOTH",
"290 31 OFFCURVE",
"203 63 OFFCURVE",
"203 197 CURVE SMOOTH",
"203 637 LINE SMOOTH",
"203 662 OFFCURVE",
"226 673 OFFCURVE",
"257 673 CURVE SMOOTH",
"280 673 LINE",
"280 700 LINE",
"28 700 LINE",
"28 673 LINE",
"51 673 LINE SMOOTH",
"82 673 OFFCURVE",
"105 662 OFFCURVE",
"105 637 CURVE SMOOTH",
"105 204 LINE SMOOTH",
"105 46 OFFCURVE",
"208 -10 OFFCURVE",
"375 -10 CURVE SMOOTH"
);
},
{
closed = 1;
nodes = (
"397 782 LINE",
"521 911 LINE",
"502 932 LINE",
"394 847 LINE",
"386 840 OFFCURVE",
"377 836 OFFCURVE",
"371 836 CURVE SMOOTH",
"365 836 OFFCURVE",
"357 840 OFFCURVE",
"347 847 CURVE",
"239 932 LINE",
"220 911 LINE",
"344 782 LINE"
);
}
);
};
components = (
{
name = U;
},
{
name = caroncomb;
transform = "{1, 0, 0, 1, 386, 210}";
}
);
layerId = "0B1DFD06-3317-40CA-B510-4969A0718C16";
width = 772;
}
);
leftKerningGroup = U;
note = Ucaron;
rightKerningGroup = U;
unicode = 01D3;
},
{
color = 4;
glyphname = Ucircumflex;
lastChange = "2018-02-06 16:54:50 +0000";
layers = (
{
background = {
paths = (
{
closed = 1;
nodes = (
"539 -10 OFFCURVE",
"636 51 OFFCURVE",
"636 204 CURVE SMOOTH",
"636 637 LINE SMOOTH",
"636 662 OFFCURVE",
"660 673 OFFCURVE",
"690 673 CURVE SMOOTH",
"713 673 LINE",
"713 700 LINE",
"510 700 LINE",
"510 673 LINE",
"532 673 LINE SMOOTH",
"564 673 OFFCURVE",
"586 662 OFFCURVE",
"586 637 CURVE SMOOTH",
"586 197 LINE SMOOTH",
"586 65 OFFCURVE",
"489 31 OFFCURVE",
"397 31 CURVE SMOOTH",
"290 31 OFFCURVE",
"203 63 OFFCURVE",
"203 197 CURVE SMOOTH",
"203 637 LINE SMOOTH",
"203 662 OFFCURVE",
"226 673 OFFCURVE",
"257 673 CURVE SMOOTH",
"280 673 LINE",
"280 700 LINE",
"28 700 LINE",
"28 673 LINE",
"51 673 LINE SMOOTH",
"82 673 OFFCURVE",
"105 662 OFFCURVE",
"105 637 CURVE SMOOTH",
"105 204 LINE SMOOTH",
"105 46 OFFCURVE",
"208 -10 OFFCURVE",
"375 -10 CURVE SMOOTH"
);
},
{
closed = 1;
nodes = (
"360 868 LINE SMOOTH",
"368 874 OFFCURVE",
"378 879 OFFCURVE",
"384 879 CURVE SMOOTH",
"390 879 OFFCURVE",
"398 874 OFFCURVE",
"407 868 CURVE",
"515 782 LINE",
"534 803 LINE",
"410 932 LINE",
"357 932 LINE",
"233 803 LINE",
"252 782 LINE"
);
}
);
};
components = (
{
name = U;
},
{
name = circumflexcomb;
transform = "{1, 0, 0, 1, 386, 210}";
}
);
layerId = "0B1DFD06-3317-40CA-B510-4969A0718C16";
width = 772;
}
);
leftKerningGroup = U;
note = Ucircumflex;
rightKerningGroup = U;
unicode = 00DB;
},
{
color = 4;
glyphname = Udieresis;
lastChange = "2018-02-06 16:54:49 +0000";
layers = (
{
background = {
paths = (
{
closed = 1;
nodes = (
"539 -10 OFFCURVE",
"636 51 OFFCURVE",
"636 204 CURVE SMOOTH",
"636 637 LINE SMOOTH",
"636 662 OFFCURVE",
"660 673 OFFCURVE",
"690 673 CURVE SMOOTH",
"713 673 LINE",
"713 700 LINE",
"510 700 LINE",
"510 673 LINE",
"532 673 LINE SMOOTH",
"564 673 OFFCURVE",
"586 662 OFFCURVE",
"586 637 CURVE SMOOTH",
"586 197 LINE SMOOTH",
"586 65 OFFCURVE",
"489 31 OFFCURVE",
"397 31 CURVE SMOOTH",
"290 31 OFFCURVE",
"203 63 OFFCURVE",
"203 197 CURVE SMOOTH",
"203 637 LINE SMOOTH",
"203 662 OFFCURVE",
"226 673 OFFCURVE",
"257 673 CURVE SMOOTH",
"280 673 LINE",
"280 700 LINE",
"28 700 LINE",
"28 673 LINE",
"51 673 LINE SMOOTH",
"82 673 OFFCURVE",
"105 662 OFFCURVE",
"105 637 CURVE SMOOTH",
"105 204 LINE SMOOTH",
"105 46 OFFCURVE",
"208 -10 OFFCURVE",
"375 -10 CURVE SMOOTH"
);
},
{
closed = 1;
nodes = (
"304 781 OFFCURVE",
"322 800 OFFCURVE",
"322 827 CURVE SMOOTH",
"322 855 OFFCURVE",
"304 875 OFFCURVE",
"275 875 CURVE SMOOTH",
"247 875 OFFCURVE",
"229 855 OFFCURVE",
"229 827 CURVE SMOOTH",
"229 800 OFFCURVE",
"247 781 OFFCURVE",
"275 781 CURVE SMOOTH"
);
},
{
closed = 1;
nodes = (
"520 781 OFFCURVE",
"538 800 OFFCURVE",
"538 827 CURVE SMOOTH",
"538 855 OFFCURVE",
"520 875 OFFCURVE",
"491 875 CURVE SMOOTH",
"462 875 OFFCURVE",
"444 855 OFFCURVE",
"444 827 CURVE SMOOTH",
"444 800 OFFCURVE",
"462 781 OFFCURVE",
"491 781 CURVE SMOOTH"
);
}
);
};
components = (
{
name = U;
},
{
name = dieresiscomb;
transform = "{1, 0, 0, 1, 386, 210}";
}
);
layerId = "0B1DFD06-3317-40CA-B510-4969A0718C16";
width = 772;
}
);
leftKerningGroup = U;
note = Udieresis;
rightKerningGroup = U;
unicode = 00DC;
},
{
color = 4;
glyphname = Udieresiscaron;
lastChange = "2018-02-06 16:55:03 +0000";
layers = (
{
background = {
paths = (
{
closed = 1;
nodes = (
"539 -10 OFFCURVE",
"636 51 OFFCURVE",
"636 204 CURVE SMOOTH",
"636 637 LINE SMOOTH",
"636 662 OFFCURVE",
"660 673 OFFCURVE",
"690 673 CURVE SMOOTH",
"713 673 LINE",
"713 700 LINE",
"510 700 LINE",
"510 673 LINE",
"532 673 LINE SMOOTH",
"564 673 OFFCURVE",
"586 662 OFFCURVE",
"586 637 CURVE SMOOTH",
"586 197 LINE SMOOTH",
"586 65 OFFCURVE",
"489 31 OFFCURVE",
"397 31 CURVE SMOOTH",
"290 31 OFFCURVE",
"203 63 OFFCURVE",
"203 197 CURVE SMOOTH",
"203 637 LINE SMOOTH",
"203 662 OFFCURVE",
"226 673 OFFCURVE",
"257 673 CURVE SMOOTH",
"280 673 LINE",
"280 700 LINE",
"28 700 LINE",
"28 673 LINE",
"51 673 LINE SMOOTH",
"82 673 OFFCURVE",
"105 662 OFFCURVE",
"105 637 CURVE SMOOTH",
"105 204 LINE SMOOTH",
"105 46 OFFCURVE",
"208 -10 OFFCURVE",
"375 -10 CURVE SMOOTH"
);
},
{
closed = 1;
nodes = (
"296 780 OFFCURVE",
"315 799 OFFCURVE",
"315 827 CURVE SMOOTH",
"315 855 OFFCURVE",
"296 875 OFFCURVE",
"267 875 CURVE SMOOTH",
"240 875 OFFCURVE",
"221 855 OFFCURVE",
"221 827 CURVE SMOOTH",
"221 799 OFFCURVE",
"240 780 OFFCURVE",
"267 780 CURVE SMOOTH"
);
},
{
closed = 1;
nodes = (
"512 780 OFFCURVE",
"531 799 OFFCURVE",
"531 827 CURVE SMOOTH",
"531 855 OFFCURVE",
"512 875 OFFCURVE",
"484 875 CURVE SMOOTH",
"456 875 OFFCURVE",
"437 855 OFFCURVE",
"437 827 CURVE SMOOTH",
"437 799 OFFCURVE",
"456 780 OFFCURVE",
"484 780 CURVE SMOOTH"
);
},
{
closed = 1;
nodes = (
"401 911 LINE",
"523 1035 LINE",
"505 1056 LINE",
"404 978 LINE",
"394 971 OFFCURVE",
"385 963 OFFCURVE",
"376 963 CURVE SMOOTH",
"369 963 OFFCURVE",
"357 971 OFFCURVE",
"347 978 CURVE",
"246 1056 LINE",
"228 1035 LINE",
"350 911 LINE"
);
}
);
};
components = (
{
name = U;
},
{
name = dieresis_caron;
transform = "{1, 0, 0, 1, 136, 210}";
}
);
layerId = "0B1DFD06-3317-40CA-B510-4969A0718C16";
width = 772;
}
);
leftKerningGroup = U;
note = Udieresiscaron;
rightKerningGroup = U;
unicode = 01D9;
},
{
color = 4;
glyphname = Udieresisgrave;
lastChange = "2018-02-06 16:55:14 +0000";
layers = (
{
background = {
paths = (
{
closed = 1;
nodes = (
"539 -10 OFFCURVE",
"636 51 OFFCURVE",
"636 204 CURVE SMOOTH",
"636 637 LINE SMOOTH",
"636 662 OFFCURVE",
"660 673 OFFCURVE",
"690 673 CURVE SMOOTH",
"713 673 LINE",
"713 700 LINE",
"510 700 LINE",
"510 673 LINE",
"532 673 LINE SMOOTH",
"564 673 OFFCURVE",
"586 662 OFFCURVE",
"586 637 CURVE SMOOTH",
"586 197 LINE SMOOTH",
"586 65 OFFCURVE",
"489 31 OFFCURVE",
"397 31 CURVE SMOOTH",
"290 31 OFFCURVE",
"203 63 OFFCURVE",
"203 197 CURVE SMOOTH",
"203 637 LINE SMOOTH",
"203 662 OFFCURVE",
"226 673 OFFCURVE",
"257 673 CURVE SMOOTH",
"280 673 LINE",
"280 700 LINE",
"28 700 LINE",
"28 673 LINE",
"51 673 LINE SMOOTH",
"82 673 OFFCURVE",
"105 662 OFFCURVE",
"105 637 CURVE SMOOTH",
"105 204 LINE SMOOTH",
"105 46 OFFCURVE",
"208 -10 OFFCURVE",
"375 -10 CURVE SMOOTH"
);
},
{
closed = 1;
nodes = (
"296 780 OFFCURVE",
"315 799 OFFCURVE",
"315 827 CURVE SMOOTH",
"315 855 OFFCURVE",
"296 875 OFFCURVE",
"267 875 CURVE SMOOTH",
"240 875 OFFCURVE",
"221 855 OFFCURVE",
"221 827 CURVE SMOOTH",
"221 799 OFFCURVE",
"240 780 OFFCURVE",
"267 780 CURVE SMOOTH"
);
},
{
closed = 1;
nodes = (
"403 924 LINE",
"312 1013 LINE SMOOTH",
"305 1020 OFFCURVE",
"288 1036 OFFCURVE",
"267 1036 CURVE SMOOTH",
"245 1036 OFFCURVE",
"235 1024 OFFCURVE",
"235 1009 CURVE SMOOTH",
"235 993 OFFCURVE",
"245 981 OFFCURVE",
"266 969 CURVE SMOOTH",
"385 899 LINE"
);
},
{
closed = 1;
nodes = (
"512 780 OFFCURVE",
"531 799 OFFCURVE",
"531 827 CURVE SMOOTH",
"531 855 OFFCURVE",
"512 875 OFFCURVE",
"484 875 CURVE SMOOTH",
"456 875 OFFCURVE",
"437 855 OFFCURVE",
"437 827 CURVE SMOOTH",
"437 799 OFFCURVE",
"456 780 OFFCURVE",
"484 780 CURVE SMOOTH"
);
}
);
};
components = (
{
name = U;
},
{
name = dieresis_grave;
transform = "{1, 0, 0, 1, 136, 210}";
}
);
layerId = "0B1DFD06-3317-40CA-B510-4969A0718C16";
width = 772;
}
);
leftKerningGroup = U;
note = Udieresisgrave;
rightKerningGroup = U;
unicode = 01DB;
},
{
color = 4;
glyphname = Udieresismacron;
lastChange = "2018-02-06 16:55:14 +0000";
layers = (
{
background = {
paths = (
{
closed = 1;
nodes = (
"539 -10 OFFCURVE",
"636 51 OFFCURVE",
"636 204 CURVE SMOOTH",
"636 637 LINE SMOOTH",
"636 662 OFFCURVE",
"660 673 OFFCURVE",
"690 673 CURVE SMOOTH",
"713 673 LINE",
"713 700 LINE",
"510 700 LINE",
"510 673 LINE",
"532 673 LINE SMOOTH",
"564 673 OFFCURVE",
"586 662 OFFCURVE",
"586 637 CURVE SMOOTH",
"586 197 LINE SMOOTH",
"586 65 OFFCURVE",
"489 31 OFFCURVE",
"397 31 CURVE SMOOTH",
"290 31 OFFCURVE",
"203 63 OFFCURVE",
"203 197 CURVE SMOOTH",
"203 637 LINE SMOOTH",
"203 662 OFFCURVE",
"226 673 OFFCURVE",
"257 673 CURVE SMOOTH",
"280 673 LINE",
"280 700 LINE",
"28 700 LINE",
"28 673 LINE",
"51 673 LINE SMOOTH",
"82 673 OFFCURVE",
"105 662 OFFCURVE",
"105 637 CURVE SMOOTH",
"105 204 LINE SMOOTH",
"105 46 OFFCURVE",
"208 -10 OFFCURVE",
"375 -10 CURVE SMOOTH"
);
},
{
closed = 1;
nodes = (
"291 781 OFFCURVE",
"309 800 OFFCURVE",
"309 827 CURVE SMOOTH",
"309 855 OFFCURVE",
"291 875 OFFCURVE",
"262 875 CURVE SMOOTH",
"234 875 OFFCURVE",
"216 855 OFFCURVE",
"216 827 CURVE SMOOTH",
"216 800 OFFCURVE",
"234 781 OFFCURVE",
"262 781 CURVE SMOOTH"
);
},
{
closed = 1;
nodes = (
"507 781 OFFCURVE",
"525 800 OFFCURVE",
"525 827 CURVE SMOOTH",
"525 855 OFFCURVE",
"507 875 OFFCURVE",
"478 875 CURVE SMOOTH",
"449 875 OFFCURVE",
"431 855 OFFCURVE",
"431 827 CURVE SMOOTH",
"431 800 OFFCURVE",
"449 781 OFFCURVE",
"478 781 CURVE SMOOTH"
);
},
{
closed = 1;
nodes = (
"537 928 LINE",
"537 970 LINE",
"204 970 LINE",
"204 928 LINE"
);
}
);
};
components = (
{
name = U;
},
{
name = dieresiscomb;
transform = "{1, 0, 0, 1, 386, 210}";
},
{
name = macroncomb;
transform = "{1, 0, 0, 1, 386, 360}";
}
);
layerId = "0B1DFD06-3317-40CA-B510-4969A0718C16";
width = 772;
}
);
leftKerningGroup = U;
note = Udieresismacron;
rightKerningGroup = U;
unicode = 01D5;
},
{
color = 4;
glyphname = "alpha-latin";
lastChange = "2018-02-06 15:18:15 +0000";
layers = (
{
anchors = (
{
name = bottom;
position = "{315, 0}";
},
{
name = center;
position = "{315, 245}";
},
{
name = top;
position = "{315, 490}";
}
);
layerId = "0B1DFD06-3317-40CA-B510-4969A0718C16";
paths = (
{
closed = 1;
nodes = (
"400 -10 OFFCURVE",
"472 35 OFFCURVE",
"506 99 CURVE",
"506 0 LINE",
"560 0 LINE",
"560 490 LINE",
"506 490 LINE",
"506 393 LINE",
"467 459 OFFCURVE",
"392 500 OFFCURVE",
"296 500 CURVE SMOOTH",
"156 500 OFFCURVE",
"50 401 OFFCURVE",
"50 244 CURVE SMOOTH",
"50 89 OFFCURVE",
"156 -10 OFFCURVE",
"300 -10 CURVE SMOOTH"
);
},
{
closed = 1;
nodes = (
"189 24 OFFCURVE",
"104 111 OFFCURVE",
"104 247 CURVE SMOOTH",
"104 381 OFFCURVE",
"188 466 OFFCURVE",
"302 466 CURVE SMOOTH",
"420 466 OFFCURVE",
"506 379 OFFCURVE",
"506 242 CURVE SMOOTH",
"506 109 OFFCURVE",
"421 24 OFFCURVE",
"305 24 CURVE SMOOTH"
);
}
);
width = 630;
}
);
leftKerningGroup = a;
note = ascript;
rightKerningGroup = a;
unicode = 0251;
},
{
color = 4;
glyphname = ae;
lastChange = "2018-02-06 14:32:06 +0000";
layers = (
{
anchors = (
{
name = bottom;
position = "{478, 0}";
},
{
name = top;
position = "{478, 490}";
}
);
layerId = "0B1DFD06-3317-40CA-B510-4969A0718C16";
paths = (
{
closed = 1;
nodes = (
"365 -10 OFFCURVE",
"429 45 OFFCURVE",
"461 120 CURVE",
"491 44 OFFCURVE",
"569 -10 OFFCURVE",
"674 -10 CURVE SMOOTH",
"800 -10 OFFCURVE",
"874 56 OFFCURVE",
"899 149 CURVE",
"847 149 LINE",
"828 73 OFFCURVE",
"761 24 OFFCURVE",
"671 24 CURVE SMOOTH",
"552 24 OFFCURVE",
"479 110 OFFCURVE",
"479 247 CURVE SMOOTH",
"479 252 LINE",
"906 252 LINE",
"901 409 OFFCURVE",
"818 500 OFFCURVE",
"673 500 CURVE SMOOTH",
"579 500 OFFCURVE",
"504 456 OFFCURVE",
"468 384 CURVE",
"451 450 OFFCURVE",
"397 500 OFFCURVE",
"285 500 CURVE SMOOTH",
"165 500 OFFCURVE",
"89 449 OFFCURVE",
"75 348 CURVE",
"122 348 LINE",
"132 424 OFFCURVE",
"184 466 OFFCURVE",
"281 466 CURVE SMOOTH",
"385 466 OFFCURVE",
"433 418 OFFCURVE",
"433 335 CURVE SMOOTH",
"433 285 LINE",
"283 285 LINE SMOOTH",
"126 285 OFFCURVE",
"58 240 OFFCURVE",
"58 138 CURVE SMOOTH",
"58 46 OFFCURVE",
"114 -10 OFFCURVE",
"235 -10 CURVE SMOOTH"
);
},
{
closed = 1;
nodes = (
"161 22 OFFCURVE",
"112 61 OFFCURVE",
"112 143 CURVE SMOOTH",
"112 224 OFFCURVE",
"161 251 OFFCURVE",
"297 251 CURVE SMOOTH",
"433 251 LINE",
"433 197 LINE SMOOTH",
"433 114 OFFCURVE",
"372 22 OFFCURVE",
"243 22 CURVE SMOOTH"
);
},
{
closed = 1;
nodes = (
"495 399 OFFCURVE",
"559 466 OFFCURVE",
"671 466 CURVE SMOOTH",
"781 466 OFFCURVE",
"841 402 OFFCURVE",
"857 286 CURVE",
"481 286 LINE"
);
}
);
width = 956;
}
);
note = ae;
unicode = 00E6;
},
{
color = 4;
glyphname = eth;
lastChange = "2018-02-06 16:22:18 +0000";
layers = (
{
components = (
{
name = o;
}
);
layerId = "0B1DFD06-3317-40CA-B510-4969A0718C16";
paths = (
{
closed = 1;
nodes = (
"586 515 OFFCURVE",
"407 662 OFFCURVE",
"174 750 CURVE",
"158 713 LINE",
"338 657 OFFCURVE",
"489 534 OFFCURVE",
"524 391 CURVE",
"586 245 LINE"
);
},
{
closed = 1;
nodes = (
"464 693 LINE",
"464 734 LINE",
"161 598 LINE",
"161 557 LINE"
);
}
);
width = 636;
}
);
note = eth;
unicode = 00F0;
},
{
color = 4;
glyphname = dcroat;
lastChange = "2018-02-06 15:00:15 +0000";
layers = (
{
components = (
{
name = d;
}
);
layerId = "0B1DFD06-3317-40CA-B510-4969A0718C16";
paths = (
{
closed = 1;
nodes = (
"620 587 LINE",
"620 623 LINE",
"336 623 LINE",
"336 587 LINE"
);
}
);
width = 630;
}
);
note = dslash;
unicode = 0111;
},
{
color = 4;
glyphname = hbar;
lastChange = "2018-02-06 15:05:11 +0000";
layers = (
{
components = (
{
name = h;
}
);
layerId = "0B1DFD06-3317-40CA-B510-4969A0718C16";
paths = (
{
closed = 1;
nodes = (
"294 587 LINE",
"294 623 LINE",
"10 623 LINE",
"10 587 LINE"
);
}
);
width = 622;
}
);
note = hbar;
rightKerningGroup = h;
unicode = 0127;
},
{
color = 4;
glyphname = idotless;
lastChange = "2018-02-06 15:18:48 +0000";
layers = (
{
anchors = (
{
name = bottom;
position = "{127, 0}";
},
{
name = ogonek;
position = "{121, 7}";
},
{
name = top;
position = "{127, 490}";
}
);
layerId = "0B1DFD06-3317-40CA-B510-4969A0718C16";
paths = (
{
closed = 1;
nodes = (
"154 0 LINE",
"154 490 LINE",
"100 490 LINE",
"100 0 LINE"
);
}
);
width = 254;
}
);
note = dotlessi;
unicode = 0131;
},
{
color = 4;
glyphname = jdotless;
lastChange = "2018-02-06 15:23:06 +0000";
layers = (
{
anchors = (
{
name = bottom;
position = "{22, -184}";
},
{
name = top;
position = "{141, 490}";
}
);
layerId = "0B1DFD06-3317-40CA-B510-4969A0718C16";
paths = (
{
closed = 1;
nodes = (
"151 -184 OFFCURVE",
"168 -52 OFFCURVE",
"168 50 CURVE SMOOTH",
"168 490 LINE",
"114 490 LINE",
"114 35 LINE SMOOTH",
"114 -37 OFFCURVE",
"105 -139 OFFCURVE",
"21 -139 CURVE SMOOTH",
"-5 -139 OFFCURVE",
"-24 -129 OFFCURVE",
"-44 -105 CURVE",
"-69 -147 LINE",
"-50 -167 OFFCURVE",
"-24 -184 OFFCURVE",
"22 -184 CURVE SMOOTH"
);
}
);
width = 282;
}
);
leftKerningGroup = j;
note = dotlessj;
unicode = 0237;
},
{
color = 4;
glyphname = kgreenlandic;
lastChange = "2018-02-06 15:23:30 +0000";
layers = (
{
layerId = "0B1DFD06-3317-40CA-B510-4969A0718C16";
paths = (
{
closed = 1;
nodes = (
"124 0 LINE",
"124 184 LINE",
"471 490 LINE",
"431 490 LINE",
"124 223 LINE",
"124 490 LINE",
"70 490 LINE",
"70 0 LINE"
);
},
{
closed = 1;
nodes = (
"524 0 LINE",
"271 319 LINE",
"231 284 LINE",
"457 0 LINE"
);
}
);
width = 542;
}
);
note = kgreenlandic;
rightKerningGroup = k;
unicode = 0138;
},
{
color = 4;
glyphname = ldot;
lastChange = "2018-02-15 16:23:48 +0000";
layers = (
{
anchors = (
{
name = _center;
position = "{250, 245}";
}
);
components = (
{
name = l;
}
);
layerId = "0B1DFD06-3317-40CA-B510-4969A0718C16";
paths = (
{
closed = 1;
nodes = (
"280 189 OFFCURVE",
"304 213 OFFCURVE",
"304 243 CURVE SMOOTH",
"304 273 OFFCURVE",
"280 298 OFFCURVE",
"249 298 CURVE SMOOTH",
"219 298 OFFCURVE",
"195 273 OFFCURVE",
"195 243 CURVE SMOOTH",
"195 213 OFFCURVE",
"219 189 OFFCURVE",
"249 189 CURVE SMOOTH"
);
}
);
width = 324;
}
);
note = ldot;
unicode = 0140;
},
{
color = 4;
glyphname = lslash;
lastChange = "2018-02-06 15:27:20 +0000";
layers = (
{
components = (
{
name = l;
}
);
layerId = "0B1DFD06-3317-40CA-B510-4969A0718C16";
paths = (
{
closed = 1;
nodes = (
"235 377 LINE",
"235 418 LINE",
"28 328 LINE",
"28 287 LINE"
);
}
);
width = 263;
}
);
note = lslash;
unicode = 0142;
},
{
color = 4;
glyphname = eng;
lastChange = "2018-02-06 15:27:20 +0000";
layers = (
{
components = (
{
name = n;
}
);
layerId = "0B1DFD06-3317-40CA-B510-4969A0718C16";
paths = (
{
closed = 1;
nodes = (
"512 -184 OFFCURVE",
"528 -88 OFFCURVE",
"528 -4 CURVE SMOOTH",
"528 0 LINE",
"474 0 LINE",
"474 -19 LINE SMOOTH",
"474 -74 OFFCURVE",
"462 -139 OFFCURVE",
"392 -139 CURVE SMOOTH",
"364 -139 OFFCURVE",
"340 -129 OFFCURVE",
"316 -101 CURVE",
"291 -143 LINE",
"312 -164 OFFCURVE",
"339 -184 OFFCURVE",
"393 -184 CURVE SMOOTH"
);
}
);
width = 588;
}
);
leftKerningGroup = m;
note = eng;
rightKerningGroup = m;
unicode = 014B;
},
{
color = 4;
glyphname = ohorn;
lastChange = "2018-02-06 15:34:00 +0000";
layers = (
{
anchors = (
{
name = _topright;
position = "{542.754, 325}";
}
);
components = (
{
name = o;
}
);
layerId = "0B1DFD06-3317-40CA-B510-4969A0718C16";
paths = (
{
closed = 1;
nodes = (
"610 328 OFFCURVE",
"660 393 OFFCURVE",
"660 500 CURVE",
"614 500 LINE",
"614 433 OFFCURVE",
"591 355 OFFCURVE",
"534 339 CURVE",
"534 315 LINE"
);
}
);
width = 636;
}
);
note = ohorn;
unicode = 01A1;
},
{
color = 4;
glyphname = oslash;
lastChange = "2018-02-06 15:34:00 +0000";
layers = (
{
components = (
{
name = o;
}
);
layerId = "0B1DFD06-3317-40CA-B510-4969A0718C16";
paths = (
{
closed = 1;
nodes = (
"583 528 LINE",
"536 528 LINE",
"118 -50 LINE",
"165 -50 LINE"
);
}
);
width = 636;
}
);
note = oslash;
unicode = 00F8;
},
{
color = 4;
glyphname = oe;
lastChange = "2018-02-06 15:34:00 +0000";
layers = (
{
anchors = (
{
name = center;
position = "{293, 245}";
}
);
layerId = "0B1DFD06-3317-40CA-B510-4969A0718C16";
paths = (
{
closed = 1;
nodes = (
"391 -10 OFFCURVE",
"468 46 OFFCURVE",
"504 133 CURVE",
"504 128 LINE",
"534 45 OFFCURVE",
"622 -10 OFFCURVE",
"727 -10 CURVE SMOOTH",
"853 -10 OFFCURVE",
"927 56 OFFCURVE",
"952 149 CURVE",
"900 149 LINE",
"881 73 OFFCURVE",
"814 24 OFFCURVE",
"724 24 CURVE SMOOTH",
"605 24 OFFCURVE",
"532 110 OFFCURVE",
"532 247 CURVE SMOOTH",
"532 252 LINE",
"959 252 LINE",
"954 409 OFFCURVE",
"871 500 OFFCURVE",
"726 500 CURVE SMOOTH",
"632 500 OFFCURVE",
"545 454 OFFCURVE",
"505 355 CURVE",
"469 443 OFFCURVE",
"391 500 OFFCURVE",
"293 500 CURVE SMOOTH",
"142 500 OFFCURVE",
"50 393 OFFCURVE",
"50 245 CURVE SMOOTH",
"50 97 OFFCURVE",
"142 -10 OFFCURVE",
"293 -10 CURVE SMOOTH"
);
},
{
closed = 1;
nodes = (
"178 24 OFFCURVE",
"105 110 OFFCURVE",
"105 245 CURVE SMOOTH",
"105 380 OFFCURVE",
"178 466 OFFCURVE",
"293 466 CURVE SMOOTH",
"407 466 OFFCURVE",
"480 380 OFFCURVE",
"480 245 CURVE SMOOTH",
"480 110 OFFCURVE",
"407 24 OFFCURVE",
"293 24 CURVE SMOOTH"
);
},
{
closed = 1;
nodes = (
"548 399 OFFCURVE",
"612 466 OFFCURVE",
"724 466 CURVE SMOOTH",
"834 466 OFFCURVE",
"894 402 OFFCURVE",
"910 286 CURVE",
"534 286 LINE"
);
}
);
width = 1009;
}
);
leftMetricsKey = o;
note = oe;
rightMetricsKey = e;
unicode = 0153;
},
{
color = 4;
glyphname = thorn;
lastChange = "2018-02-06 16:14:48 +0000";
layers = (
{
anchors = (
{
name = bottom;
position = "{315, 0}";
},
{
name = top;
position = "{315, 490}";
}
);
layerId = "0B1DFD06-3317-40CA-B510-4969A0718C16";
paths = (
{
closed = 1;
nodes = (
"124 -193 LINE",
"124 103 LINE",
"157 45 OFFCURVE",
"222 -10 OFFCURVE",
"337 -10 CURVE SMOOTH",
"485 -10 OFFCURVE",
"580 82 OFFCURVE",
"580 244 CURVE SMOOTH",
"580 410 OFFCURVE",
"481 500 OFFCURVE",
"338 500 CURVE SMOOTH",
"240 500 OFFCURVE",
"161 457 OFFCURVE",
"124 389 CURVE",
"124 700 LINE",
"70 700 LINE",
"70 -193 LINE"
);
},
{
closed = 1;
nodes = (
"210 24 OFFCURVE",
"124 109 OFFCURVE",
"124 243 CURVE SMOOTH",
"124 379 OFFCURVE",
"212 466 OFFCURVE",
"329 466 CURVE SMOOTH",
"445 466 OFFCURVE",
"526 381 OFFCURVE",
"526 247 CURVE SMOOTH",
"526 111 OFFCURVE",
"443 24 OFFCURVE",
"326 24 CURVE SMOOTH"
);
}
);
width = 630;
}
);
note = thorn;
unicode = 00FE;
},
{
color = 4;
glyphname = germandbls;
lastChange = "2018-02-06 16:48:16 +0000";
layers = (
{
layerId = "0B1DFD06-3317-40CA-B510-4969A0718C16";
paths = (
{
closed = 1;
nodes = (
"518 -10 OFFCURVE",
"599 82 OFFCURVE",
"599 205 CURVE SMOOTH",
"599 317 OFFCURVE",
"523 393 OFFCURVE",
"419 402 CURVE",
"527 426 OFFCURVE",
"549 508 OFFCURVE",
"549 572 CURVE SMOOTH",
"549 706 OFFCURVE",
"451 760 OFFCURVE",
"334 760 CURVE SMOOTH",
"181 760 OFFCURVE",
"100 669 OFFCURVE",
"100 497 CURVE SMOOTH",
"100 0 LINE",
"154 0 LINE",
"154 500 LINE SMOOTH",
"154 653 OFFCURVE",
"212 726 OFFCURVE",
"333 726 CURVE SMOOTH",
"422 726 OFFCURVE",
"497 687 OFFCURVE",
"497 574 CURVE SMOOTH",
"497 492 OFFCURVE",
"457 416 OFFCURVE",
"383 416 CURVE SMOOTH",
"325 416 LINE",
"325 382 LINE",
"386 382 LINE SMOOTH",
"478 382 OFFCURVE",
"545 311 OFFCURVE",
"545 204 CURVE SMOOTH",
"545 126 OFFCURVE",
"515 24 OFFCURVE",
"374 24 CURVE SMOOTH",
"321 24 OFFCURVE",
"274 45 OFFCURVE",
"249 69 CURVE",
"231 35 LINE",
"262 9 OFFCURVE",
"301 -10 OFFCURVE",
"382 -10 CURVE SMOOTH"
);
}
);
width = 649;
}
);
note = uni00DF;
unicode = 00DF;
},
{
color = 4;
glyphname = tbar;
lastChange = "2018-02-06 15:35:37 +0000";
layers = (
{
components = (
{
name = t;
}
);
layerId = "0B1DFD06-3317-40CA-B510-4969A0718C16";
paths = (
{
closed = 1;
nodes = (
"306 261 LINE",
"306 297 LINE",
"18 297 LINE",
"18 261 LINE"
);
}
);
width = 397;
}
);
leftKerningGroup = t;
note = tbar;
rightKerningGroup = t;
unicode = 0167;
},
{
color = 4;
glyphname = fi;
lastChange = "2018-02-06 16:17:01 +0000";
layers = (
{
components = (
{
name = i;
transform = "{1, 0, 0, 1, 312, 0}";
}
);
layerId = "0B1DFD06-3317-40CA-B510-4969A0718C16";
paths = (
{
closed = 1;
nodes = (
"173 0 LINE",
"173 456 LINE",
"462 456 LINE",
"462 490 LINE",
"173 490 LINE",
"173 561 LINE SMOOTH",
"173 618 OFFCURVE",
"209 645 OFFCURVE",
"252 645 CURVE SMOOTH",
"273 645 OFFCURVE",
"292 638 OFFCURVE",
"305 626 CURVE",
"318 661 LINE",
"302 673 OFFCURVE",
"275 679 OFFCURVE",
"246 679 CURVE SMOOTH",
"172 679 OFFCURVE",
"119 640 OFFCURVE",
"119 543 CURVE SMOOTH",
"119 490 LINE",
"28 490 LINE",
"16 456 LINE",
"119 456 LINE",
"119 0 LINE"
);
}
);
width = 558;
}
);
note = fi;
unicode = FB01;
},
{
color = 4;
glyphname = fl;
lastChange = "2018-02-06 16:17:01 +0000";
layers = (
{
layerId = "0B1DFD06-3317-40CA-B510-4969A0718C16";
paths = (
{
closed = 1;
nodes = (
"119 456 LINE",
"119 0 LINE",
"173 0 LINE",
"173 456 LINE",
"301 456 LINE",
"312 490 LINE",
"173 490 LINE",
"173 561 LINE SMOOTH",
"173 616 OFFCURVE",
"244 644 OFFCURVE",
"322 644 CURVE SMOOTH",
"352 644 OFFCURVE",
"383 640 OFFCURVE",
"412 631.82 CURVE",
"412 0 LINE",
"466 0 LINE",
"466 654 LINE",
"422 671 OFFCURVE",
"371 680 OFFCURVE",
"322 680 CURVE SMOOTH",
"216 680 OFFCURVE",
"119 638 OFFCURVE",
"119 546 CURVE SMOOTH",
"119 490 LINE",
"28 490 LINE",
"16 456 LINE"
);
}
);
width = 566;
}
);
note = fl;
unicode = FB02;
},
{
color = 4;
glyphname = ordfeminine;
lastChange = "2018-02-06 17:28:11 +0000";
layers = (
{
layerId = "0B1DFD06-3317-40CA-B510-4969A0718C16";
paths = (
{
closed = 1;
nodes = (
"243 346 OFFCURVE",
"287 382 OFFCURVE",
"311 424 CURVE",
"313 404 OFFCURVE",
"317 374 OFFCURVE",
"321 354 CURVE",
"363 354 LINE",
"356 394 OFFCURVE",
"353 425 OFFCURVE",
"353 468 CURVE SMOOTH",
"353 586 LINE SMOOTH",
"353 665 OFFCURVE",
"297 710 OFFCURVE",
"201 710 CURVE SMOOTH",
"118 710 OFFCURVE",
"58 676 OFFCURVE",
"47 602 CURVE",
"88 602 LINE",
"96 653 OFFCURVE",
"140 677 OFFCURVE",
"200 678 CURVE SMOOTH",
"268 679 OFFCURVE",
"305 652 OFFCURVE",
"305 593 CURVE SMOOTH",
"305 567 LINE",
"203 567 LINE SMOOTH",
"90 567 OFFCURVE",
"33 526 OFFCURVE",
"33 451 CURVE SMOOTH",
"33 393 OFFCURVE",
"71 346 OFFCURVE",
"160 346 CURVE SMOOTH"
);
},
{
closed = 1;
nodes = (
"117 378 OFFCURVE",
"81 408 OFFCURVE",
"81 454 CURVE SMOOTH",
"81 505 OFFCURVE",
"124 537 OFFCURVE",
"204 537 CURVE SMOOTH",
"305 537 LINE",
"305 500 LINE SMOOTH",
"305 429 OFFCURVE",
"250 378 OFFCURVE",
"174 378 CURVE SMOOTH"
);
}
);
width = 392;
}
);
note = ordfeminine;
unicode = 00AA;
},
{
color = 4;
glyphname = ordmasculine;
lastChange = "2018-02-06 17:28:22 +0000";
layers = (
{
layerId = "0B1DFD06-3317-40CA-B510-4969A0718C16";
paths = (
{
closed = 1;
nodes = (
"347 346 OFFCURVE",
"424 422 OFFCURVE",
"424 528 CURVE SMOOTH",
"424 634 OFFCURVE",
"347 710 OFFCURVE",
"231 710 CURVE SMOOTH",
"115 710 OFFCURVE",
"38 634 OFFCURVE",
"38 528 CURVE SMOOTH",
"38 422 OFFCURVE",
"115 346 OFFCURVE",
"231 346 CURVE SMOOTH"
);
},
{
closed = 1;
nodes = (
"136 377 OFFCURVE",
"86 436 OFFCURVE",
"86 528 CURVE SMOOTH",
"86 620 OFFCURVE",
"136 679 OFFCURVE",
"231 679 CURVE SMOOTH",
"326 679 OFFCURVE",
"376 620 OFFCURVE",
"376 528 CURVE SMOOTH",
"376 436 OFFCURVE",
"326 377 OFFCURVE",
"231 377 CURVE SMOOTH"
);
}
);
width = 462;
}
);
note = ordmasculine;
unicode = 00BA;
},
{
color = 4;
glyphname = nmod;
lastChange = "2018-02-06 17:28:30 +0000";
layers = (
{
anchors = (
{
name = bottom;
position = "{232, 346}";
}
);
guideLines = (
{
position = "{604, 657}";
}
);
layerId = "0B1DFD06-3317-40CA-B510-4969A0718C16";
paths = (
{
closed = 1;
nodes = (
"108 354 LINE",
"108 545 LINE SMOOTH",
"108 620 OFFCURVE",
"152 679 OFFCURVE",
"241 679 CURVE SMOOTH",
"302 679 OFFCURVE",
"343 646 OFFCURVE",
"343 576 CURVE SMOOTH",
"343 354 LINE",
"391 354 LINE",
"391 574 LINE SMOOTH",
"391 664 OFFCURVE",
"326 710 OFFCURVE",
"245 710 CURVE SMOOTH",
"170 710 OFFCURVE",
"128 675 OFFCURVE",
"108 638 CURVE",
"108 700 LINE",
"60 700 LINE",
"60 354 LINE"
);
}
);
width = 451;
}
);
note = uni207F;
unicode = 207F;
},
{
color = 4;
glyphname = Delta;
lastChange = "2018-02-19 12:10:24 +0000";
layers = (
{
layerId = "0B1DFD06-3317-40CA-B510-4969A0718C16";
paths = (
{
closed = 1;
nodes = (
"623 0 LINE",
"294 718 LINE",
"0 0 LINE"
);
},
{
closed = 1;
nodes = (
"283 602 LINE",
"526 54 LINE",
"63 54 LINE"
);
}
);
width = 623;
}
);
note = Delta;
unicode = 0394;
},
{
color = 4;
glyphname = Omega;
lastChange = "2018-02-19 12:09:39 +0000";
layers = (
{
layerId = "0B1DFD06-3317-40CA-B510-4969A0718C16";
paths = (
{
closed = 1;
nodes = (
"342 0 LINE",
"351 16 LINE",
"240 124 OFFCURVE",
"158 241 OFFCURVE",
"158 386 CURVE SMOOTH",
"158 555 OFFCURVE",
"270 675 OFFCURVE",
"438 675 CURVE SMOOTH",
"606 675 OFFCURVE",
"718 555 OFFCURVE",
"718 386 CURVE SMOOTH",
"718 241 OFFCURVE",
"636 124 OFFCURVE",
"525 16 CURVE",
"534 0 LINE",
"806 0 LINE",
"816 44 LINE",
"592 44 LINE",
"701 110 OFFCURVE",
"773 251 OFFCURVE",
"773 384 CURVE SMOOTH",
"773 573 OFFCURVE",
"639 710 OFFCURVE",
"438 710 CURVE SMOOTH",
"237 710 OFFCURVE",
"103 573 OFFCURVE",
"103 384 CURVE SMOOTH",
"103 251 OFFCURVE",
"175 110 OFFCURVE",
"284 44 CURVE",
"60 44 LINE",
"70 0 LINE"
);
}
);
width = 876;
}
);
note = Omega;
unicode = 03A9;
},
{
color = 4;
glyphname = mu;
lastChange = "2018-02-19 12:09:39 +0000";
layers = (
{
layerId = "0B1DFD06-3317-40CA-B510-4969A0718C16";
paths = (
{
closed = 1;
nodes = (
"592 0 LINE",
"592 560 LINE",
"538 560 LINE",
"538 247 LINE SMOOTH",
"538 127 OFFCURVE",
"446 24 OFFCURVE",
"307 24 CURVE SMOOTH",
"126 24 OFFCURVE",
"126 197 OFFCURVE",
"126 237 CURVE SMOOTH",
"126 560 LINE",
"72 560 LINE",
"72 -205 LINE",
"124 -205 LINE",
"124 81 LINE",
"158 17 OFFCURVE",
"238 -10 OFFCURVE",
"305 -10 CURVE SMOOTH",
"399 -10 OFFCURVE",
"497 41 OFFCURVE",
"538 124 CURVE",
"552 0 LINE"
);
}
);
width = 664;
}
);
note = mu;
unicode = 03BC;
},
{
color = 4;
glyphname = pi;
lastChange = "2018-02-19 12:09:39 +0000";
layers = (
{
layerId = "0B1DFD06-3317-40CA-B510-4969A0718C16";
paths = (
{
closed = 1;
nodes = (
"571 -10 OFFCURVE",
"589 -3 OFFCURVE",
"611 10 CURVE",
"611 47 LINE",
"587 39 OFFCURVE",
"574 36 OFFCURVE",
"563 36 CURVE SMOOTH",
"529 36 OFFCURVE",
"517 53 OFFCURVE",
"517 100 CURVE SMOOTH",
"517 451 LINE",
"635 451 LINE",
"635 490 LINE",
"24 490 LINE",
"24 451 LINE",
"142 451 LINE",
"142 0 LINE",
"200 0 LINE",
"200 451 LINE",
"459 451 LINE",
"459 96 LINE SMOOTH",
"459 18 OFFCURVE",
"481 -10 OFFCURVE",
"543 -10 CURVE SMOOTH"
);
}
);
width = 659;
}
);
note = pi;
unicode = 03C0;
},
{
color = 4;
glyphname = "koKai-thai";
lastChange = "2018-02-15 16:34:12 +0000";
layers = (
{
layerId = "0B1DFD06-3317-40CA-B510-4969A0718C16";
paths = (
{
closed = 1;
nodes = (
"143 0 LINE",
"143 241 LINE SMOOTH",
"143 291 OFFCURVE",
"163 332 OFFCURVE",
"237 353 CURVE",
"237 381 LINE",
"113 381 LINE",
"121 478 OFFCURVE",
"204 542 OFFCURVE",
"320 542 CURVE SMOOTH",
"434 542 OFFCURVE",
"511 480 OFFCURVE",
"511 386 CURVE SMOOTH",
"511 0 LINE",
"569 0 LINE",
"569 376 LINE SMOOTH",
"569 492 OFFCURVE",
"468 570 OFFCURVE",
"321 570 CURVE SMOOTH",
"165 570 OFFCURVE",
"64 482 OFFCURVE",
"54 358 CURVE",
"177 358 LINE",
"114 341 OFFCURVE",
"85 290 OFFCURVE",
"85 227 CURVE SMOOTH",
"85 0 LINE"
);
}
);
width = 653;
}
);
note = uni0E01;
unicode = 0E01;
},
{
color = 4;
glyphname = "thoThung-thai";
lastChange = "2018-02-19 14:07:53 +0000";
layers = (
{
background = {
paths = (
{
closed = 1;
nodes = (
"569 -1 LINE",
"569 372 LINE SMOOTH",
"569 516 OFFCURVE",
"443 566 OFFCURVE",
"319 566 CURVE SMOOTH",
"185 566 OFFCURVE",
"65 497 OFFCURVE",
"54 354 CURVE",
"177 354 LINE",
"114 337 OFFCURVE",
"85 286 OFFCURVE",
"85 223 CURVE SMOOTH",
"85 133 LINE SMOOTH",
"85 50 OFFCURVE",
"135 -8 OFFCURVE",
"221 -8 CURVE SMOOTH",
"288 -8 OFFCURVE",
"341 39 OFFCURVE",
"341 107 CURVE SMOOTH",
"341 170 OFFCURVE",
"291 222 OFFCURVE",
"228 222 CURVE SMOOTH",
"202 222 OFFCURVE",
"174 214 OFFCURVE",
"154 197 CURVE",
"154 259 OFFCURVE",
"152 318 OFFCURVE",
"217 349 CURVE",
"217 377 LINE",
"127 377 LINE",
"135 479 OFFCURVE",
"222 538 OFFCURVE",
"319 538 CURVE SMOOTH",
"413 538 OFFCURVE",
"499 485 OFFCURVE",
"499 382 CURVE SMOOTH",
"499 -1 LINE"
);
},
{
closed = 1;
nodes = (
"306 66 OFFCURVE",
"270 29 OFFCURVE",
"228 29 CURVE SMOOTH",
"186 29 OFFCURVE",
"149 64 OFFCURVE",
"149 107 CURVE SMOOTH",
"149 150 OFFCURVE",
"185 186 OFFCURVE",
"228 186 CURVE SMOOTH",
"272 186 OFFCURVE",
"306 149 OFFCURVE",
"306 107 CURVE SMOOTH"
);
}
);
};
layerId = "0B1DFD06-3317-40CA-B510-4969A0718C16";
paths = (
{
closed = 1;
nodes = (
"569 0 LINE",
"569 376 LINE SMOOTH",
"569 492 OFFCURVE",
"468 570 OFFCURVE",
"321 570 CURVE SMOOTH",
"165 570 OFFCURVE",
"64 482 OFFCURVE",
"54 358 CURVE",
"177 358 LINE",
"114 341 OFFCURVE",
"85 290 OFFCURVE",
"85 227 CURVE SMOOTH",
"85 129 LINE SMOOTH",
"85 30 OFFCURVE",
"140 -10 OFFCURVE",
"211 -10 CURVE SMOOTH",
"283 -10 OFFCURVE",
"332 31 OFFCURVE",
"332 98 CURVE SMOOTH",
"332 159 OFFCURVE",
"292 204 OFFCURVE",
"226 204 CURVE SMOOTH",
"192 204 OFFCURVE",
"158 190 OFFCURVE",
"143 167 CURVE",
"143 241 LINE SMOOTH",
"143 291 OFFCURVE",
"163 332 OFFCURVE",
"237 353 CURVE",
"237 381 LINE",
"113 381 LINE",
"121 478 OFFCURVE",
"204 542 OFFCURVE",
"320 542 CURVE SMOOTH",
"434 542 OFFCURVE",
"511 480 OFFCURVE",
"511 386 CURVE SMOOTH",
"511 0 LINE"
);
},
{
closed = 1;
nodes = (
"179 18 OFFCURVE",
"146 51 OFFCURVE",
"146 97 CURVE SMOOTH",
"146 143 OFFCURVE",
"179 176 OFFCURVE",
"225 176 CURVE SMOOTH",
"271 176 OFFCURVE",
"304 143 OFFCURVE",
"304 97 CURVE SMOOTH",
"304 51 OFFCURVE",
"271 18 OFFCURVE",
"225 18 CURVE SMOOTH"
);
}
);
width = 653;
}
);
note = uni0E16;
unicode = 0E16;
},
{
color = 4;
glyphname = "phoSamphao-thai";
lastChange = "2018-02-19 14:08:00 +0000";
layers = (
{
background = {
paths = (
{
closed = 1;
nodes = (
"714 -1 LINE",
"714 372 LINE SMOOTH",
"714 516 OFFCURVE",
"588 566 OFFCURVE",
"463 566 CURVE SMOOTH",
"330 566 OFFCURVE",
"210 497 OFFCURVE",
"199 354 CURVE",
"328 354 LINE",
"233 331 OFFCURVE",
"230 284 OFFCURVE",
"230 197 CURVE",
"210 214 OFFCURVE",
"182 222 OFFCURVE",
"155 222 CURVE SMOOTH",
"93 222 OFFCURVE",
"43 170 OFFCURVE",
"43 107 CURVE SMOOTH",
"43 39 OFFCURVE",
"96 -8 OFFCURVE",
"163 -8 CURVE SMOOTH",
"402 -8 OFFCURVE",
"213 289 OFFCURVE",
"362 349 CURVE",
"362 377 LINE",
"272 377 LINE",
"280 479 OFFCURVE",
"368 538 OFFCURVE",
"463 538 CURVE SMOOTH",
"558 538 OFFCURVE",
"645 485 OFFCURVE",
"645 382 CURVE SMOOTH",
"645 -1 LINE"
);
},
{
closed = 1;
nodes = (
"235 64 OFFCURVE",
"197 29 OFFCURVE",
"155 29 CURVE SMOOTH",
"114 29 OFFCURVE",
"77 66 OFFCURVE",
"77 107 CURVE SMOOTH",
"77 149 OFFCURVE",
"113 186 OFFCURVE",
"155 186 CURVE SMOOTH",
"199 186 OFFCURVE",
"235 150 OFFCURVE",
"235 107 CURVE SMOOTH"
);
}
);
};
guideLines = (
{
position = "{181, 105}";
showMeasurement = 1;
},
{
angle = 90;
position = "{116, 263}";
showMeasurement = 1;
}
);
layerId = "0B1DFD06-3317-40CA-B510-4969A0718C16";
paths = (
{
closed = 1;
nodes = (
"220 -10 OFFCURVE",
"257 48 OFFCURVE",
"257 129 CURVE SMOOTH",
"257 241 LINE SMOOTH",
"257 291 OFFCURVE",
"271 329 OFFCURVE",
"322 353 CURVE",
"322 381 LINE",
"188 381 LINE",
"196 478 OFFCURVE",
"279 542 OFFCURVE",
"395 542 CURVE SMOOTH",
"509 542 OFFCURVE",
"586 480 OFFCURVE",
"586 386 CURVE SMOOTH",
"586 0 LINE",
"644 0 LINE",
"644 376 LINE SMOOTH",
"644 492 OFFCURVE",
"543 570 OFFCURVE",
"396 570 CURVE SMOOTH",
"240 570 OFFCURVE",
"139 482 OFFCURVE",
"129 358 CURVE",
"262 358 LINE",
"222 338 OFFCURVE",
"199 299 OFFCURVE",
"199 235 CURVE SMOOTH",
"199 167 LINE",
"185 188 OFFCURVE",
"152 204 OFFCURVE",
"116 204 CURVE SMOOTH",
"55 204 OFFCURVE",
"10 164 OFFCURVE",
"10 99 CURVE SMOOTH",
"10 35 OFFCURVE",
"54 -10 OFFCURVE",
"132 -10 CURVE SMOOTH"
);
},
{
closed = 1;
nodes = (
"71 18 OFFCURVE",
"38 51 OFFCURVE",
"38 97 CURVE SMOOTH",
"38 143 OFFCURVE",
"71 176 OFFCURVE",
"117 176 CURVE SMOOTH",
"163 176 OFFCURVE",
"196 143 OFFCURVE",
"196 97 CURVE SMOOTH",
"196 51 OFFCURVE",
"163 18 OFFCURVE",
"117 18 CURVE SMOOTH"
);
}
);
width = 728;
}
);
note = uni0E20;
unicode = 0E20;
},
{
color = 4;
glyphname = "ru-thai";
lastChange = "2018-02-19 15:32:14 +0000";
layers = (
{
layerId = "0B1DFD06-3317-40CA-B510-4969A0718C16";
paths = (
{
closed = 1;
nodes = (
"569 -170 LINE",
"569 376 LINE SMOOTH",
"569 492 OFFCURVE",
"468 570 OFFCURVE",
"321 570 CURVE SMOOTH",
"165 570 OFFCURVE",
"64 482 OFFCURVE",
"54 358 CURVE",
"177 358 LINE",
"114 341 OFFCURVE",
"85 290 OFFCURVE",
"85 227 CURVE SMOOTH",
"85 129 LINE SMOOTH",
"85 30 OFFCURVE",
"140 -10 OFFCURVE",
"211 -10 CURVE SMOOTH",
"283 -10 OFFCURVE",
"332 31 OFFCURVE",
"332 98 CURVE SMOOTH",
"332 161 OFFCURVE",
"290 204 OFFCURVE",
"228 204 CURVE SMOOTH",
"192 204 OFFCURVE",
"158 190 OFFCURVE",
"143 167 CURVE",
"143 241 LINE SMOOTH",
"143 291 OFFCURVE",
"163 332 OFFCURVE",
"237 353 CURVE",
"237 381 LINE",
"113 381 LINE",
"121 478 OFFCURVE",
"204 542 OFFCURVE",
"320 542 CURVE SMOOTH",
"434 542 OFFCURVE",
"511 480 OFFCURVE",
"511 386 CURVE SMOOTH",
"511 -170 LINE"
);
},
{
closed = 1;
nodes = (
"179 18 OFFCURVE",
"146 51 OFFCURVE",
"146 97 CURVE SMOOTH",
"146 143 OFFCURVE",
"179 176 OFFCURVE",
"225 176 CURVE SMOOTH",
"271 176 OFFCURVE",
"304 143 OFFCURVE",
"304 97 CURVE SMOOTH",
"304 51 OFFCURVE",
"271 18 OFFCURVE",
"225 18 CURVE SMOOTH"
);
}
);
width = 653;
}
);
note = uni0E24;
unicode = 0E24;
},
{
color = 4;
glyphname = "lu-thai";
lastChange = "2018-02-19 15:32:19 +0000";
layers = (
{
layerId = "0B1DFD06-3317-40CA-B510-4969A0718C16";
paths = (
{
closed = 1;
nodes = (
"71 18 OFFCURVE",
"38 51 OFFCURVE",
"38 97 CURVE SMOOTH",
"38 143 OFFCURVE",
"71 176 OFFCURVE",
"117 176 CURVE SMOOTH",
"163 176 OFFCURVE",
"196 143 OFFCURVE",
"196 97 CURVE SMOOTH",
"196 51 OFFCURVE",
"163 18 OFFCURVE",
"117 18 CURVE SMOOTH"
);
},
{
closed = 1;
nodes = (
"219 -10 OFFCURVE",
"257 48 OFFCURVE",
"257 129 CURVE SMOOTH",
"257 241 LINE SMOOTH",
"257 291 OFFCURVE",
"271 329 OFFCURVE",
"322 353 CURVE",
"322 381 LINE",
"188 381 LINE",
"196 478 OFFCURVE",
"279 542 OFFCURVE",
"395 542 CURVE SMOOTH",
"509 542 OFFCURVE",
"586 480 OFFCURVE",
"586 386 CURVE SMOOTH",
"586 -170 LINE",
"644 -170 LINE",
"644 376 LINE SMOOTH",
"644 492 OFFCURVE",
"543 570 OFFCURVE",
"396 570 CURVE SMOOTH",
"240 570 OFFCURVE",
"139 482 OFFCURVE",
"129 358 CURVE",
"262 358 LINE",
"222 338 OFFCURVE",
"199 299 OFFCURVE",
"199 235 CURVE SMOOTH",
"199 167 LINE",
"185 188 OFFCURVE",
"152 204 OFFCURVE",
"116 204 CURVE SMOOTH",
"55 204 OFFCURVE",
"10 164 OFFCURVE",
"10 98 CURVE SMOOTH",
"10 34 OFFCURVE",
"53 -10 OFFCURVE",
"131 -10 CURVE SMOOTH"
);
}
);
width = 728;
}
);
note = uni0E26;
unicode = 0E26;
},
{
color = 4;
glyphname = "doChada-thai";
lastChange = "2018-02-19 14:08:27 +0000";
layers = (
{
layerId = "0B1DFD06-3317-40CA-B510-4969A0718C16";
paths = (
{
closed = 1;
nodes = (
"421 -235 OFFCURVE",
"462 -87 OFFCURVE",
"464 -17 CURVE",
"409 -17 LINE",
"409 -99 OFFCURVE",
"390 -199 OFFCURVE",
"273 -199 CURVE SMOOTH",
"214 -199 OFFCURVE",
"191 -174 OFFCURVE",
"191 -144 CURVE SMOOTH",
"191 -111 OFFCURVE",
"221 -84 OFFCURVE",
"299 -84 CURVE SMOOTH",
"395 -84 OFFCURVE",
"475 -125 OFFCURVE",
"586 -225 CURVE",
"644 -225 LINE",
"644 376 LINE SMOOTH",
"644 492 OFFCURVE",
"543 570 OFFCURVE",
"396 570 CURVE SMOOTH",
"240 570 OFFCURVE",
"139 482 OFFCURVE",
"129 358 CURVE",
"262 358 LINE",
"222 338 OFFCURVE",
"199 299 OFFCURVE",
"199 235 CURVE SMOOTH",
"199 167 LINE",
"185 188 OFFCURVE",
"153 204 OFFCURVE",
"116 204 CURVE SMOOTH",
"55 204 OFFCURVE",
"10 164 OFFCURVE",
"10 98 CURVE SMOOTH",
"10 35 OFFCURVE",
"53 -10 OFFCURVE",
"131 -10 CURVE SMOOTH",
"219 -10 OFFCURVE",
"257 48 OFFCURVE",
"257 129 CURVE SMOOTH",
"257 241 LINE SMOOTH",
"257 291 OFFCURVE",
"271 329 OFFCURVE",
"322 353 CURVE",
"322 381 LINE",
"188 381 LINE",
"196 478 OFFCURVE",
"279 542 OFFCURVE",
"395 542 CURVE SMOOTH",
"509 542 OFFCURVE",
"586 480 OFFCURVE",
"586 386 CURVE SMOOTH",
"586 -180 LINE",
"474 -85 OFFCURVE",
"394 -48 OFFCURVE",
"292 -48 CURVE SMOOTH",
"187 -48 OFFCURVE",
"141 -89 OFFCURVE",
"141 -143 CURVE SMOOTH",
"141 -195 OFFCURVE",
"183 -235 OFFCURVE",
"264 -235 CURVE SMOOTH"
);
},
{
closed = 1;
nodes = (
"71 18 OFFCURVE",
"38 51 OFFCURVE",
"38 97 CURVE SMOOTH",
"38 143 OFFCURVE",
"71 176 OFFCURVE",
"117 176 CURVE SMOOTH",
"163 176 OFFCURVE",
"196 143 OFFCURVE",
"196 97 CURVE SMOOTH",
"196 51 OFFCURVE",
"163 18 OFFCURVE",
"117 18 CURVE SMOOTH"
);
}
);
width = 728;
}
);
note = uni0E0E;
unicode = 0E0E;
},
{
color = 4;
glyphname = "toPatak-thai";
lastChange = "2018-02-19 14:09:04 +0000";
layers = (
{
layerId = "0B1DFD06-3317-40CA-B510-4969A0718C16";
paths = (
{
closed = 1;
nodes = (
"353 -235 OFFCURVE",
"411 -99 OFFCURVE",
"411 -33 CURVE",
"356 -33 LINE",
"356 -127 OFFCURVE",
"299 -198 OFFCURVE",
"215 -198 CURVE SMOOTH",
"168 -198 OFFCURVE",
"138 -176 OFFCURVE",
"138 -142 CURVE SMOOTH",
"138 -110 OFFCURVE",
"165 -83 OFFCURVE",
"217 -83 CURVE SMOOTH",
"296 -83 OFFCURVE",
"362 -144 OFFCURVE",
"430 -229 CURVE",
"501 -135 LINE",
"586 -225 LINE",
"644 -225 LINE",
"644 376 LINE SMOOTH",
"644 492 OFFCURVE",
"543 570 OFFCURVE",
"396 570 CURVE SMOOTH",
"240 570 OFFCURVE",
"139 482 OFFCURVE",
"129 358 CURVE",
"262 358 LINE",
"222 338 OFFCURVE",
"199 299 OFFCURVE",
"199 235 CURVE SMOOTH",
"199 167 LINE",
"185 188 OFFCURVE",
"153 204 OFFCURVE",
"116 204 CURVE SMOOTH",
"55 204 OFFCURVE",
"10 164 OFFCURVE",
"10 98 CURVE SMOOTH",
"10 35 OFFCURVE",
"53 -10 OFFCURVE",
"131 -10 CURVE SMOOTH",
"219 -10 OFFCURVE",
"257 48 OFFCURVE",
"257 129 CURVE SMOOTH",
"257 241 LINE SMOOTH",
"257 291 OFFCURVE",
"271 329 OFFCURVE",
"322 353 CURVE",
"322 381 LINE",
"188 381 LINE",
"196 478 OFFCURVE",
"279 542 OFFCURVE",
"395 542 CURVE SMOOTH",
"509 542 OFFCURVE",
"586 480 OFFCURVE",
"586 386 CURVE SMOOTH",
"586 -181 LINE",
"501 -95 LINE",
"435 -179 LINE",
"367 -108 OFFCURVE",
"307 -48 OFFCURVE",
"213 -48 CURVE SMOOTH",
"138 -48 OFFCURVE",
"90 -86 OFFCURVE",
"90 -143 CURVE SMOOTH",
"90 -199 OFFCURVE",
"137 -235 OFFCURVE",
"210 -235 CURVE SMOOTH"
);
},
{
closed = 1;
nodes = (
"71 18 OFFCURVE",
"38 51 OFFCURVE",
"38 97 CURVE SMOOTH",
"38 143 OFFCURVE",
"71 176 OFFCURVE",
"117 176 CURVE SMOOTH",
"163 176 OFFCURVE",
"196 143 OFFCURVE",
"196 97 CURVE SMOOTH",
"196 51 OFFCURVE",
"163 18 OFFCURVE",
"117 18 CURVE SMOOTH"
);
}
);
width = 728;
}
);
note = uni0E0F;
unicode = 0E0F;
},
{
color = 4;
glyphname = "ru_lakkhangyao-thai";
lastChange = "2018-02-19 15:32:31 +0000";
layers = (
{
components = (
{
name = "ru-thai";
}
);
layerId = "0B1DFD06-3317-40CA-B510-4969A0718C16";
paths = (
{
closed = 1;
nodes = (
"911 -170 LINE",
"911 377 LINE SMOOTH",
"911 493 OFFCURVE",
"812 570 OFFCURVE",
"685 570 CURVE SMOOTH",
"612 570 OFFCURVE",
"543 545 OFFCURVE",
"502 506 CURVE",
"532 469 LINE",
"561 518 OFFCURVE",
"623 542 OFFCURVE",
"683 542 CURVE SMOOTH",
"779 542 OFFCURVE",
"853 480 OFFCURVE",
"853 386 CURVE SMOOTH",
"853 -170 LINE"
);
}
);
width = 995;
}
);
note = "ru_lakkhangyao-thai";
},
{
color = 4;
glyphname = "lu_lakkhangyao-thai";
lastChange = "2018-02-19 15:32:33 +0000";
layers = (
{
components = (
{
name = "lu-thai";
}
);
layerId = "0B1DFD06-3317-40CA-B510-4969A0718C16";
paths = (
{
closed = 1;
nodes = (
"987 -170 LINE",
"987 377 LINE SMOOTH",
"987 493 OFFCURVE",
"888 570 OFFCURVE",
"761 570 CURVE SMOOTH",
"688 570 OFFCURVE",
"619 545 OFFCURVE",
"578 506 CURVE",
"608 469 LINE",
"637 518 OFFCURVE",
"699 542 OFFCURVE",
"759 542 CURVE SMOOTH",
"855 542 OFFCURVE",
"929 480 OFFCURVE",
"929 386 CURVE SMOOTH",
"929 -170 LINE"
);
}
);
width = 1071;
}
);
note = "lu_lakkhangyao-thai";
},
{
color = 4;
glyphname = "yoYing-thai";
lastChange = "2018-02-19 14:09:15 +0000";
layers = (
{
layerId = "0B1DFD06-3317-40CA-B510-4969A0718C16";
paths = (
{
closed = 1;
nodes = (
"283 -10 OFFCURVE",
"332 31 OFFCURVE",
"332 98 CURVE SMOOTH",
"332 161 OFFCURVE",
"290 204 OFFCURVE",
"228 204 CURVE SMOOTH",
"192 204 OFFCURVE",
"158 190 OFFCURVE",
"143 167 CURVE",
"143 241 LINE SMOOTH",
"143 291 OFFCURVE",
"163 332 OFFCURVE",
"237 353 CURVE",
"237 381 LINE",
"113 381 LINE",
"121 478 OFFCURVE",
"199 542 OFFCURVE",
"315 542 CURVE SMOOTH",
"429 542 OFFCURVE",
"501 480 OFFCURVE",
"501 386 CURVE SMOOTH",
"501 0 LINE",
"888 0 LINE",
"888 560 LINE",
"830 560 LINE",
"830 34 LINE",
"559 34 LINE",
"559 376 LINE SMOOTH",
"559 492 OFFCURVE",
"463 570 OFFCURVE",
"317 570 CURVE SMOOTH",
"164 570 OFFCURVE",
"64 485 OFFCURVE",
"54 358 CURVE",
"177 358 LINE",
"114 341 OFFCURVE",
"85 290 OFFCURVE",
"85 227 CURVE SMOOTH",
"85 129 LINE SMOOTH",
"85 30 OFFCURVE",
"140 -10 OFFCURVE",
"211 -10 CURVE SMOOTH"
);
},
{
closed = 1;
nodes = (
"179 18 OFFCURVE",
"146 51 OFFCURVE",
"146 97 CURVE SMOOTH",
"146 143 OFFCURVE",
"179 176 OFFCURVE",
"225 176 CURVE SMOOTH",
"271 176 OFFCURVE",
"304 143 OFFCURVE",
"304 97 CURVE SMOOTH",
"304 51 OFFCURVE",
"271 18 OFFCURVE",
"225 18 CURVE SMOOTH"
);
},
{
closed = 1;
nodes = (
"560 -210 OFFCURVE",
"529 -179 OFFCURVE",
"529 -137 CURVE SMOOTH",
"529 -95 OFFCURVE",
"560 -65 OFFCURVE",
"602 -65 CURVE SMOOTH",
"644 -65 OFFCURVE",
"674 -95 OFFCURVE",
"674 -137 CURVE SMOOTH",
"674 -179 OFFCURVE",
"644 -210 OFFCURVE",
"602 -210 CURVE SMOOTH"
);
},
{
closed = 1;
nodes = (
"787 -252 OFFCURVE",
"878 -170 OFFCURVE",
"885 -45 CURVE",
"826 -45 LINE",
"826 -139 OFFCURVE",
"752 -218 OFFCURVE",
"659 -223 CURVE",
"689 -203 OFFCURVE",
"704 -171 OFFCURVE",
"704 -135 CURVE SMOOTH",
"704 -78 OFFCURVE",
"666 -37 OFFCURVE",
"602 -37 CURVE SMOOTH",
"541 -37 OFFCURVE",
"497 -75 OFFCURVE",
"497 -135 CURVE SMOOTH",
"497 -205 OFFCURVE",
"556 -252 OFFCURVE",
"656 -252 CURVE SMOOTH"
);
}
);
width = 972;
}
);
note = uni0E0D;
unicode = 0E0D;
},
{
color = 4;
glyphname = "yoYing-thai.less";
lastChange = "2018-02-19 14:09:25 +0000";
layers = (
{
layerId = "0B1DFD06-3317-40CA-B510-4969A0718C16";
paths = (
{
closed = 1;
nodes = (
"283 -10 OFFCURVE",
"332 31 OFFCURVE",
"332 98 CURVE SMOOTH",
"332 159 OFFCURVE",
"292 204 OFFCURVE",
"226 204 CURVE SMOOTH",
"189 204 OFFCURVE",
"157 188 OFFCURVE",
"143 167 CURVE",
"143 241 LINE SMOOTH",
"143 291 OFFCURVE",
"163 332 OFFCURVE",
"237 353 CURVE",
"237 381 LINE",
"113 381 LINE",
"121 478 OFFCURVE",
"199 542 OFFCURVE",
"315 542 CURVE SMOOTH",
"429 542 OFFCURVE",
"501 480 OFFCURVE",
"501 386 CURVE SMOOTH",
"501 0 LINE",
"888 0 LINE",
"888 560 LINE",
"830 560 LINE",
"830 34 LINE",
"559 34 LINE",
"559 376 LINE SMOOTH",
"559 492 OFFCURVE",
"463 570 OFFCURVE",
"317 570 CURVE SMOOTH",
"164 570 OFFCURVE",
"64 485 OFFCURVE",
"54 358 CURVE",
"177 358 LINE",
"114 341 OFFCURVE",
"85 290 OFFCURVE",
"85 227 CURVE SMOOTH",
"85 129 LINE SMOOTH",
"85 30 OFFCURVE",
"140 -10 OFFCURVE",
"211 -10 CURVE SMOOTH"
);
},
{
closed = 1;
nodes = (
"179 18 OFFCURVE",
"146 51 OFFCURVE",
"146 97 CURVE SMOOTH",
"146 143 OFFCURVE",
"179 176 OFFCURVE",
"225 176 CURVE SMOOTH",
"271 176 OFFCURVE",
"304 143 OFFCURVE",
"304 97 CURVE SMOOTH",
"304 51 OFFCURVE",
"271 18 OFFCURVE",
"225 18 CURVE SMOOTH"
);
}
);
width = 972;
}
);
note = "yoYing-thai.less";
},
{
color = 4;
glyphname = "khoKhai-thai";
lastChange = "2018-02-19 14:22:05 +0000";
layers = (
{
layerId = "0B1DFD06-3317-40CA-B510-4969A0718C16";
paths = (
{
closed = 1;
nodes = (
"565 0 LINE",
"565 560 LINE",
"507 560 LINE",
"507 34 LINE",
"201 34 LINE",
"201 193 LINE",
"319 233 OFFCURVE",
"380 303 OFFCURVE",
"380 398 CURVE SMOOTH",
"380 501 OFFCURVE",
"307 570 OFFCURVE",
"195 570 CURVE SMOOTH",
"85 570 OFFCURVE",
"14 504 OFFCURVE",
"14 412 CURVE SMOOTH",
"14 334 OFFCURVE",
"66 276 OFFCURVE",
"140 276 CURVE SMOOTH",
"205 276 OFFCURVE",
"249 321 OFFCURVE",
"249 383 CURVE SMOOTH",
"249 445 OFFCURVE",
"206 490 OFFCURVE",
"146 490 CURVE SMOOTH",
"119 490 OFFCURVE",
"86 480 OFFCURVE",
"70 463 CURVE",
"84 507 OFFCURVE",
"134 539 OFFCURVE",
"189 539 CURVE SMOOTH",
"266 539 OFFCURVE",
"322 478 OFFCURVE",
"322 393 CURVE SMOOTH",
"322 283 OFFCURVE",
"232 236 OFFCURVE",
"143 207 CURVE",
"143 0 LINE"
);
},
{
closed = 1;
nodes = (
"96 304 OFFCURVE",
"62 337 OFFCURVE",
"62 383 CURVE SMOOTH",
"62 429 OFFCURVE",
"96 462 OFFCURVE",
"142 462 CURVE SMOOTH",
"188 462 OFFCURVE",
"221 429 OFFCURVE",
"221 383 CURVE SMOOTH",
"221 337 OFFCURVE",
"188 304 OFFCURVE",
"142 304 CURVE SMOOTH"
);
}
);
width = 649;
}
);
note = uni0E02;
unicode = 0E02;
},
{
color = 4;
glyphname = "khoKhuat-thai";
lastChange = "2018-02-19 14:21:06 +0000";
layers = (
{
layerId = "0B1DFD06-3317-40CA-B510-4969A0718C16";
paths = (
{
closed = 1;
nodes = (
"593 0 LINE",
"593 560 LINE",
"535 560 LINE",
"535 34 LINE",
"229 34 LINE",
"229 193 LINE",
"356 228 OFFCURVE",
"428 326 OFFCURVE",
"428 427 CURVE SMOOTH",
"428 505 OFFCURVE",
"385 570 OFFCURVE",
"311 570 CURVE SMOOTH",
"275 570 OFFCURVE",
"250 555 OFFCURVE",
"233 532 CURVE",
"215 556 OFFCURVE",
"189 570 OFFCURVE",
"155 570 CURVE SMOOTH",
"69 570 OFFCURVE",
"14 479 OFFCURVE",
"14 397 CURVE SMOOTH",
"14 317 OFFCURVE",
"61 259 OFFCURVE",
"138 259 CURVE SMOOTH",
"201 259 OFFCURVE",
"247 299 OFFCURVE",
"247 366 CURVE SMOOTH",
"247 428 OFFCURVE",
"208 473 OFFCURVE",
"144 473 CURVE SMOOTH",
"115 473 OFFCURVE",
"84 463 OFFCURVE",
"69 447 CURVE",
"79 501 OFFCURVE",
"123 539 OFFCURVE",
"165 539 CURVE SMOOTH",
"192 539 OFFCURVE",
"218 522 OFFCURVE",
"229 497 CURVE",
"239 497 LINE",
"248 522 OFFCURVE",
"270 539 OFFCURVE",
"294 539 CURVE SMOOTH",
"340 539 OFFCURVE",
"370 493 OFFCURVE",
"370 423 CURVE SMOOTH",
"370 305 OFFCURVE",
"285 244 OFFCURVE",
"171 207 CURVE",
"171 0 LINE"
);
},
{
closed = 1;
nodes = (
"94 287 OFFCURVE",
"60 320 OFFCURVE",
"60 366 CURVE SMOOTH",
"60 412 OFFCURVE",
"94 445 OFFCURVE",
"140 445 CURVE SMOOTH",
"186 445 OFFCURVE",
"219 412 OFFCURVE",
"219 366 CURVE SMOOTH",
"219 320 OFFCURVE",
"186 287 OFFCURVE",
"140 287 CURVE SMOOTH"
);
}
);
width = 677;
}
);
note = uni0E03;
unicode = 0E03;
},
{
color = 4;
glyphname = "choChang-thai";
lastChange = "2018-02-19 14:22:21 +0000";
layers = (
{
layerId = "0B1DFD06-3317-40CA-B510-4969A0718C16";
paths = (
{
closed = 1;
nodes = (
"565 0 LINE",
"565 322 LINE SMOOTH",
"565 362 OFFCURVE",
"536 397 OFFCURVE",
"479 416 CURVE",
"547 436 OFFCURVE",
"581 488 OFFCURVE",
"587 570 CURVE",
"506 570 LINE",
"506 523 OFFCURVE",
"497 451 OFFCURVE",
"433 422 CURVE",
"433 406 LINE",
"481 392 OFFCURVE",
"507 355 OFFCURVE",
"507 320 CURVE SMOOTH",
"507 34 LINE",
"201 34 LINE",
"201 193 LINE",
"319 233 OFFCURVE",
"380 303 OFFCURVE",
"380 398 CURVE SMOOTH",
"380 501 OFFCURVE",
"307 570 OFFCURVE",
"195 570 CURVE SMOOTH",
"85 570 OFFCURVE",
"14 504 OFFCURVE",
"14 412 CURVE SMOOTH",
"14 334 OFFCURVE",
"66 276 OFFCURVE",
"140 276 CURVE SMOOTH",
"205 276 OFFCURVE",
"249 321 OFFCURVE",
"249 383 CURVE SMOOTH",
"249 445 OFFCURVE",
"206 490 OFFCURVE",
"146 490 CURVE SMOOTH",
"119 490 OFFCURVE",
"86 480 OFFCURVE",
"70 463 CURVE",
"84 507 OFFCURVE",
"134 539 OFFCURVE",
"189 539 CURVE SMOOTH",
"266 539 OFFCURVE",
"322 478 OFFCURVE",
"322 393 CURVE SMOOTH",
"322 283 OFFCURVE",
"232 236 OFFCURVE",
"143 207 CURVE",
"143 0 LINE"
);
},
{
closed = 1;
nodes = (
"96 304 OFFCURVE",
"62 337 OFFCURVE",
"62 383 CURVE SMOOTH",
"62 429 OFFCURVE",
"96 462 OFFCURVE",
"142 462 CURVE SMOOTH",
"188 462 OFFCURVE",
"221 429 OFFCURVE",
"221 383 CURVE SMOOTH",
"221 337 OFFCURVE",
"188 304 OFFCURVE",
"142 304 CURVE SMOOTH"
);
}
);
width = 649;
}
);
note = uni0E0A;
unicode = 0E0A;
},
{
color = 4;
glyphname = "soSo-thai";
lastChange = "2018-02-19 14:22:58 +0000";
layers = (
{
background = {
paths = (
{
closed = 0;
nodes = (
"229 193 LINE",
"355 226 OFFCURVE",
"428 332 OFFCURVE",
"428 418 CURVE SMOOTH",
"428 512 OFFCURVE",
"385 570 OFFCURVE",
"302 570 CURVE SMOOTH",
"276 570 OFFCURVE",
"248 557 OFFCURVE",
"233 536 CURVE",
"215 560 OFFCURVE",
"188 570 OFFCURVE",
"159 570 CURVE SMOOTH",
"68 570 OFFCURVE",
"14 487 OFFCURVE",
"14 403 CURVE SMOOTH",
"14 319 OFFCURVE",
"65 263 OFFCURVE",
"142 263 CURVE SMOOTH",
"211 263 OFFCURVE",
"257 309 OFFCURVE",
"257 377 CURVE SMOOTH",
"257 446 OFFCURVE",
"211 492 OFFCURVE",
"142 492 CURVE SMOOTH",
"120 492 OFFCURVE",
"98 484 OFFCURVE",
"79 470 CURVE",
"86 507 OFFCURVE",
"126 539 OFFCURVE",
"163 539 CURVE SMOOTH",
"195 539 OFFCURVE",
"213 531 OFFCURVE",
"234 507 CURVE",
"249 525 OFFCURVE",
"266 539 OFFCURVE",
"291 539 CURVE SMOOTH",
"343 539 OFFCURVE",
"370 493 OFFCURVE",
"370 429 CURVE SMOOTH",
"370 305 OFFCURVE",
"290 246 OFFCURVE",
"171 207 CURVE"
);
},
{
closed = 1;
nodes = (
"94 298 OFFCURVE",
"62 330 OFFCURVE",
"62 377 CURVE SMOOTH",
"62 424 OFFCURVE",
"94 456 OFFCURVE",
"142 456 CURVE SMOOTH",
"189 456 OFFCURVE",
"221 424 OFFCURVE",
"221 377 CURVE SMOOTH",
"221 330 OFFCURVE",
"189 298 OFFCURVE",
"142 298 CURVE SMOOTH"
);
}
);
};
layerId = "0B1DFD06-3317-40CA-B510-4969A0718C16";
paths = (
{
closed = 1;
nodes = (
"593 0 LINE",
"593 322 LINE SMOOTH",
"593 362 OFFCURVE",
"564 397 OFFCURVE",
"507 416 CURVE",
"575 436 OFFCURVE",
"609 488 OFFCURVE",
"615 570 CURVE",
"534 570 LINE",
"534 523 OFFCURVE",
"525 451 OFFCURVE",
"461 422 CURVE",
"461 406 LINE",
"509 392 OFFCURVE",
"535 355 OFFCURVE",
"535 320 CURVE SMOOTH",
"535 34 LINE",
"229 34 LINE",
"229 193 LINE",
"356 228 OFFCURVE",
"428 326 OFFCURVE",
"428 427 CURVE SMOOTH",
"428 505 OFFCURVE",
"385 570 OFFCURVE",
"311 570 CURVE SMOOTH",
"275 570 OFFCURVE",
"250 555 OFFCURVE",
"233 532 CURVE",
"215 556 OFFCURVE",
"189 570 OFFCURVE",
"155 570 CURVE SMOOTH",
"69 570 OFFCURVE",
"14 479 OFFCURVE",
"14 397 CURVE SMOOTH",
"14 317 OFFCURVE",
"61 259 OFFCURVE",
"138 259 CURVE SMOOTH",
"201 259 OFFCURVE",
"247 299 OFFCURVE",
"247 366 CURVE SMOOTH",
"247 428 OFFCURVE",
"208 473 OFFCURVE",
"144 473 CURVE SMOOTH",
"115 473 OFFCURVE",
"84 463 OFFCURVE",
"69 447 CURVE",
"79 501 OFFCURVE",
"123 539 OFFCURVE",
"165 539 CURVE SMOOTH",
"192 539 OFFCURVE",
"218 522 OFFCURVE",
"229 497 CURVE",
"239 497 LINE",
"248 522 OFFCURVE",
"270 539 OFFCURVE",
"294 539 CURVE SMOOTH",
"340 539 OFFCURVE",
"370 493 OFFCURVE",
"370 423 CURVE SMOOTH",
"370 305 OFFCURVE",
"285 244 OFFCURVE",
"171 207 CURVE",
"171 0 LINE"
);
},
{
closed = 1;
nodes = (
"94 287 OFFCURVE",
"60 320 OFFCURVE",
"60 366 CURVE SMOOTH",
"60 412 OFFCURVE",
"94 445 OFFCURVE",
"140 445 CURVE SMOOTH",
"186 445 OFFCURVE",
"219 412 OFFCURVE",
"219 366 CURVE SMOOTH",
"219 320 OFFCURVE",
"186 287 OFFCURVE",
"140 287 CURVE SMOOTH"
);
}
);
width = 677;
}
);
note = uni0E0B;
unicode = 0E0B;
},
{
color = 4;
glyphname = "khoKhwai-thai";
lastChange = "2018-02-19 14:23:25 +0000";
layers = (
{
layerId = "0B1DFD06-3317-40CA-B510-4969A0718C16";
paths = (
{
closed = 1;
nodes = (
"144 0 LINE",
"240 267 LINE",
"253 229 OFFCURVE",
"294 200 OFFCURVE",
"345 200 CURVE SMOOTH",
"407 200 OFFCURVE",
"452 240 OFFCURVE",
"452 307 CURVE SMOOTH",
"452 369 OFFCURVE",
"411 414 OFFCURVE",
"343 414 CURVE SMOOTH",
"279 414 OFFCURVE",
"244 376 OFFCURVE",
"223 320 CURVE SMOOTH",
"140 99 LINE",
"142 179 OFFCURVE",
"128 300 OFFCURVE",
"128 350 CURVE SMOOTH",
"128 481 OFFCURVE",
"223 542 OFFCURVE",
"342 542 CURVE SMOOTH",
"461 542 OFFCURVE",
"548 480 OFFCURVE",
"548 386 CURVE SMOOTH",
"548 0 LINE",
"606 0 LINE",
"606 377 LINE SMOOTH",
"606 518 OFFCURVE",
"464 570 OFFCURVE",
"343 570 CURVE SMOOTH",
"221 570 OFFCURVE",
"70 517 OFFCURVE",
"70 343 CURVE SMOOTH",
"70 281 OFFCURVE",
"89 145 OFFCURVE",
"87 50 CURVE SMOOTH",
"86 0 LINE"
);
},
{
closed = 1;
nodes = (
"298 228 OFFCURVE",
"264 261 OFFCURVE",
"264 307 CURVE SMOOTH",
"264 353 OFFCURVE",
"298 386 OFFCURVE",
"344 386 CURVE SMOOTH",
"390 386 OFFCURVE",
"424 353 OFFCURVE",
"424 307 CURVE SMOOTH",
"424 261 OFFCURVE",
"390 228 OFFCURVE",
"344 228 CURVE SMOOTH"
);
}
);
width = 690;
}
);
note = uni0E04;
unicode = 0E04;
},
{
color = 4;
glyphname = "khoKhon-thai";
lastChange = "2018-02-19 14:23:43 +0000";
layers = (
{
layerId = "0B1DFD06-3317-40CA-B510-4969A0718C16";
paths = (
{
closed = 1;
nodes = (
"144 0 LINE",
"240 236 LINE",
"254 196 OFFCURVE",
"294 168 OFFCURVE",
"345 168 CURVE SMOOTH",
"409 168 OFFCURVE",
"452 210 OFFCURVE",
"452 274 CURVE SMOOTH",
"452 337 OFFCURVE",
"411 382 OFFCURVE",
"342 382 CURVE SMOOTH",
"267 382 OFFCURVE",
"240 329 OFFCURVE",
"223 288 CURVE SMOOTH",
"140 94 LINE",
"142 175 OFFCURVE",
"127 310 OFFCURVE",
"127 369 CURVE SMOOTH",
"127 472 OFFCURVE",
"173 535 OFFCURVE",
"244 535 CURVE SMOOTH",
"288 535 OFFCURVE",
"322 510 OFFCURVE",
"340 468 CURVE",
"355 468 LINE",
"379 513 OFFCURVE",
"414 535 OFFCURVE",
"453 535 CURVE SMOOTH",
"511 535 OFFCURVE",
"548 488 OFFCURVE",
"548 408 CURVE SMOOTH",
"548 0 LINE",
"606 0 LINE",
"606 419 LINE SMOOTH",
"606 514 OFFCURVE",
"553 570 OFFCURVE",
"472 570 CURVE SMOOTH",
"418 570 OFFCURVE",
"378 545 OFFCURVE",
"349 506 CURVE",
"328 546 OFFCURVE",
"285 570 OFFCURVE",
"229 570 CURVE SMOOTH",
"129 570 OFFCURVE",
"65 494 OFFCURVE",
"65 371 CURVE SMOOTH",
"65 295 OFFCURVE",
"89 150 OFFCURVE",
"87 50 CURVE SMOOTH",
"86 0 LINE"
);
},
{
closed = 1;
nodes = (
"298 196 OFFCURVE",
"264 229 OFFCURVE",
"264 275 CURVE SMOOTH",
"264 321 OFFCURVE",
"298 354 OFFCURVE",
"344 354 CURVE SMOOTH",
"390 354 OFFCURVE",
"424 321 OFFCURVE",
"424 275 CURVE SMOOTH",
"424 229 OFFCURVE",
"390 196 OFFCURVE",
"344 196 CURVE SMOOTH"
);
}
);
width = 690;
}
);
note = uni0E05;
unicode = 0E05;
},
{
color = 4;
glyphname = "soSala-thai";
lastChange = "2018-02-19 14:23:34 +0000";
layers = (
{
layerId = "0B1DFD06-3317-40CA-B510-4969A0718C16";
paths = (
{
closed = 1;
nodes = (
"144 0 LINE",
"240 267 LINE",
"253 229 OFFCURVE",
"294 200 OFFCURVE",
"345 200 CURVE SMOOTH",
"407 200 OFFCURVE",
"452 240 OFFCURVE",
"452 307 CURVE SMOOTH",
"452 369 OFFCURVE",
"411 414 OFFCURVE",
"343 414 CURVE SMOOTH",
"279 414 OFFCURVE",
"244 376 OFFCURVE",
"223 320 CURVE SMOOTH",
"140 99 LINE",
"142 179 OFFCURVE",
"128 300 OFFCURVE",
"128 350 CURVE SMOOTH",
"128 481 OFFCURVE",
"223 542 OFFCURVE",
"342 542 CURVE SMOOTH",
"461 542 OFFCURVE",
"548 480 OFFCURVE",
"548 386 CURVE SMOOTH",
"548 0 LINE",
"606 0 LINE",
"606 377 LINE SMOOTH",
"606 518 OFFCURVE",
"464 570 OFFCURVE",
"343 570 CURVE SMOOTH",
"221 570 OFFCURVE",
"70 517 OFFCURVE",
"70 343 CURVE SMOOTH",
"70 281 OFFCURVE",
"89 145 OFFCURVE",
"87 50 CURVE SMOOTH",
"86 0 LINE"
);
},
{
closed = 1;
nodes = (
"298 228 OFFCURVE",
"264 261 OFFCURVE",
"264 307 CURVE SMOOTH",
"264 353 OFFCURVE",
"298 386 OFFCURVE",
"344 386 CURVE SMOOTH",
"390 386 OFFCURVE",
"424 353 OFFCURVE",
"424 307 CURVE SMOOTH",
"424 261 OFFCURVE",
"390 228 OFFCURVE",
"344 228 CURVE SMOOTH"
);
},
{
closed = 1;
nodes = (
"361 395 LINE",
"501 467 OFFCURVE",
"601 554 OFFCURVE",
"610 612 CURVE",
"535 612 LINE",
"518 538 OFFCURVE",
"432 452 OFFCURVE",
"321 395 CURVE"
);
}
);
width = 690;
}
);
note = uni0E28;
unicode = 0E28;
},
{
color = 4;
glyphname = "doDek-thai";
lastChange = "2018-02-19 14:06:43 +0000";
layers = (
{
layerId = "0B1DFD06-3317-40CA-B510-4969A0718C16";
paths = (
{
closed = 1;
nodes = (
"144 0 LINE",
"272 47 OFFCURVE",
"448 165 OFFCURVE",
"448 304 CURVE SMOOTH",
"448 380 OFFCURVE",
"403 420 OFFCURVE",
"340 420 CURVE SMOOTH",
"277 420 OFFCURVE",
"232 375 OFFCURVE",
"232 313 CURVE SMOOTH",
"232 251 OFFCURVE",
"277 206 OFFCURVE",
"338 206 CURVE SMOOTH",
"358 206 OFFCURVE",
"376 211 OFFCURVE",
"392 220 CURVE",
"358 156 OFFCURVE",
"257 77 OFFCURVE",
"140 33 CURVE",
"142 113 OFFCURVE",
"128 300 OFFCURVE",
"128 350 CURVE SMOOTH",
"128 481 OFFCURVE",
"223 542 OFFCURVE",
"342 542 CURVE SMOOTH",
"461 542 OFFCURVE",
"548 480 OFFCURVE",
"548 386 CURVE SMOOTH",
"548 0 LINE",
"606 0 LINE",
"606 377 LINE SMOOTH",
"606 518 OFFCURVE",
"464 570 OFFCURVE",
"343 570 CURVE SMOOTH",
"221 570 OFFCURVE",
"70 517 OFFCURVE",
"70 343 CURVE SMOOTH",
"70 281 OFFCURVE",
"89 145 OFFCURVE",
"87 50 CURVE SMOOTH",
"86 0 LINE"
);
},
{
closed = 1;
nodes = (
"294 234 OFFCURVE",
"260 267 OFFCURVE",
"260 313 CURVE SMOOTH",
"260 359 OFFCURVE",
"294 392 OFFCURVE",
"340 392 CURVE SMOOTH",
"386 392 OFFCURVE",
"420 359 OFFCURVE",
"420 313 CURVE SMOOTH",
"420 267 OFFCURVE",
"386 234 OFFCURVE",
"340 234 CURVE SMOOTH"
);
}
);
width = 690;
}
);
note = uni0E14;
unicode = 0E14;
},
{
color = 4;
glyphname = "toTao-thai";
lastChange = "2018-02-19 14:24:26 +0000";
layers = (
{
layerId = "0B1DFD06-3317-40CA-B510-4969A0718C16";
paths = (
{
closed = 1;
nodes = (
"144 0 LINE",
"265 45 OFFCURVE",
"448 137 OFFCURVE",
"448 284 CURVE SMOOTH",
"448 355 OFFCURVE",
"403 398 OFFCURVE",
"340 398 CURVE SMOOTH",
"273 398 OFFCURVE",
"232 353 OFFCURVE",
"232 292 CURVE SMOOTH",
"232 225 OFFCURVE",
"280 184 OFFCURVE",
"338 184 CURVE SMOOTH",
"358 184 OFFCURVE",
"376 189 OFFCURVE",
"392 198 CURVE",
"357 136 OFFCURVE",
"257 77 OFFCURVE",
"140 33 CURVE",
"142 114 OFFCURVE",
"129 303 OFFCURVE",
"129 358 CURVE SMOOTH",
"129 469 OFFCURVE",
"181 535 OFFCURVE",
"257 535 CURVE SMOOTH",
"298 535 OFFCURVE",
"329 516 OFFCURVE",
"343 481 CURVE",
"361 481 LINE",
"375 516 OFFCURVE",
"406 535 OFFCURVE",
"446 535 CURVE SMOOTH",
"508 535 OFFCURVE",
"546 491 OFFCURVE",
"546 408 CURVE SMOOTH",
"546 0 LINE",
"604 0 LINE",
"604 419 LINE SMOOTH",
"604 518 OFFCURVE",
"553 570 OFFCURVE",
"468 570 CURVE SMOOTH",
"416 570 OFFCURVE",
"374 551 OFFCURVE",
"352 516 CURVE",
"331 550 OFFCURVE",
"288 570 OFFCURVE",
"238 570 CURVE SMOOTH",
"138 570 OFFCURVE",
"70 490 OFFCURVE",
"70 355 CURVE SMOOTH",
"70 284 OFFCURVE",
"89 147 OFFCURVE",
"87 50 CURVE SMOOTH",
"86 0 LINE"
);
},
{
closed = 1;
nodes = (
"294 212 OFFCURVE",
"260 245 OFFCURVE",
"260 291 CURVE SMOOTH",
"260 337 OFFCURVE",
"294 370 OFFCURVE",
"340 370 CURVE SMOOTH",
"386 370 OFFCURVE",
"420 337 OFFCURVE",
"420 291 CURVE SMOOTH",
"420 245 OFFCURVE",
"386 212 OFFCURVE",
"340 212 CURVE SMOOTH"
);
}
);
width = 688;
}
);
note = uni0E15;
unicode = 0E15;
},
{
color = 4;
glyphname = "thoThahan-thai";
lastChange = "2018-02-19 14:07:32 +0000";
layers = (
{
layerId = "0B1DFD06-3317-40CA-B510-4969A0718C16";
paths = (
{
closed = 1;
nodes = (
"262 0 LINE",
"503 512 LINE",
"553 512 LINE SMOOTH",
"579 512 OFFCURVE",
"597 500 OFFCURVE",
"597 469 CURVE SMOOTH",
"597 0 LINE",
"655 0 LINE",
"655 459 LINE SMOOTH",
"655 520 OFFCURVE",
"623 560 OFFCURVE",
"574 560 CURVE SMOOTH",
"487 560 LINE",
"259 76 LINE",
"259 431 LINE SMOOTH",
"259 530 OFFCURVE",
"204 570 OFFCURVE",
"133 570 CURVE SMOOTH",
"61 570 OFFCURVE",
"12 529 OFFCURVE",
"12 462 CURVE SMOOTH",
"12 399 OFFCURVE",
"54 356 OFFCURVE",
"117 356 CURVE SMOOTH",
"155 356 OFFCURVE",
"187 372 OFFCURVE",
"201 393 CURVE",
"201 0 LINE"
);
},
{
closed = 1;
nodes = (
"73 384 OFFCURVE",
"40 417 OFFCURVE",
"40 463 CURVE SMOOTH",
"40 509 OFFCURVE",
"73 542 OFFCURVE",
"119 542 CURVE SMOOTH",
"165 542 OFFCURVE",
"198 509 OFFCURVE",
"198 463 CURVE SMOOTH",
"198 417 OFFCURVE",
"165 384 OFFCURVE",
"119 384 CURVE SMOOTH"
);
}
);
width = 739;
}
);
note = uni0E17;
unicode = 0E17;
},
{
color = 4;
glyphname = "thoNangmontho-thai";
lastChange = "2018-02-19 14:26:17 +0000";
layers = (
{
background = {
paths = (
{
closed = 1;
nodes = (
"691 0 LINE",
"691 497 LINE SMOOTH",
"691 542 OFFCURVE",
"655 564 OFFCURVE",
"613 564 CURVE",
"283 61 LINE",
"283 215 LINE SMOOTH",
"283 288 OFFCURVE",
"428 321 OFFCURVE",
"428 436 CURVE SMOOTH",
"428 509 OFFCURVE",
"390 567 OFFCURVE",
"311 567 CURVE SMOOTH",
"283 567 OFFCURVE",
"251 557 OFFCURVE",
"233 533 CURVE",
"215 557 OFFCURVE",
"188 567 OFFCURVE",
"159 567 CURVE SMOOTH",
"68 567 OFFCURVE",
"14 484 OFFCURVE",
"14 400 CURVE SMOOTH",
"14 326 OFFCURVE",
"62 260 OFFCURVE",
"142 260 CURVE SMOOTH",
"205 260 OFFCURVE",
"257 312 OFFCURVE",
"257 374 CURVE SMOOTH",
"257 437 OFFCURVE",
"205 489 OFFCURVE",
"142 489 CURVE SMOOTH",
"120 489 OFFCURVE",
"98 481 OFFCURVE",
"79 469 CURVE",
"86 506 OFFCURVE",
"126 536 OFFCURVE",
"163 536 CURVE SMOOTH",
"195 536 OFFCURVE",
"213 528 OFFCURVE",
"234 504 CURVE",
"249 522 OFFCURVE",
"266 536 OFFCURVE",
"291 536 CURVE SMOOTH",
"349 536 OFFCURVE",
"365 481 OFFCURVE",
"365 434 CURVE SMOOTH",
"365 309 OFFCURVE",
"213 276 OFFCURVE",
"213 199 CURVE SMOOTH",
"213 0 LINE",
"285 0 LINE",
"601 478 LINE",
"618 469 LINE",
"627 453 OFFCURVE",
"621 48 OFFCURVE",
"621 0 CURVE"
);
},
{
closed = 1;
nodes = (
"221 332 OFFCURVE",
"185 295 OFFCURVE",
"142 295 CURVE SMOOTH",
"99 295 OFFCURVE",
"62 332 OFFCURVE",
"62 374 CURVE SMOOTH",
"62 417 OFFCURVE",
"99 453 OFFCURVE",
"142 453 CURVE SMOOTH",
"185 453 OFFCURVE",
"221 417 OFFCURVE",
"221 374 CURVE SMOOTH"
);
}
);
};
layerId = "0B1DFD06-3317-40CA-B510-4969A0718C16";
paths = (
{
closed = 1;
nodes = (
"286 0 LINE",
"579 512 LINE",
"594 512 LINE SMOOTH",
"617 512 OFFCURVE",
"633 503 OFFCURVE",
"633 472 CURVE SMOOTH",
"633 0 LINE",
"691 0 LINE",
"691 462 LINE SMOOTH",
"691 523 OFFCURVE",
"661 560 OFFCURVE",
"612 560 CURVE SMOOTH",
"563 560 LINE",
"283 76 LINE",
"283 203 LINE SMOOTH",
"283 287 OFFCURVE",
"418 315 OFFCURVE",
"418 450 CURVE SMOOTH",
"418 521 OFFCURVE",
"385 570 OFFCURVE",
"311 570 CURVE SMOOTH",
"275 570 OFFCURVE",
"250 555 OFFCURVE",
"233 532 CURVE",
"215 556 OFFCURVE",
"189 570 OFFCURVE",
"155 570 CURVE SMOOTH",
"69 570 OFFCURVE",
"14 479 OFFCURVE",
"14 397 CURVE SMOOTH",
"14 317 OFFCURVE",
"61 259 OFFCURVE",
"138 259 CURVE SMOOTH",
"201 259 OFFCURVE",
"247 299 OFFCURVE",
"247 366 CURVE SMOOTH",
"247 428 OFFCURVE",
"208 473 OFFCURVE",
"144 473 CURVE SMOOTH",
"115 473 OFFCURVE",
"84 463 OFFCURVE",
"69 447 CURVE",
"79 501 OFFCURVE",
"123 539 OFFCURVE",
"165 539 CURVE SMOOTH",
"192 539 OFFCURVE",
"218 522 OFFCURVE",
"229 497 CURVE",
"239 497 LINE",
"248 522 OFFCURVE",
"270 539 OFFCURVE",
"294 539 CURVE SMOOTH",
"340 539 OFFCURVE",
"360 502 OFFCURVE",
"360 448 CURVE SMOOTH",
"360 318 OFFCURVE",
"225 307 OFFCURVE",
"225 181 CURVE SMOOTH",
"225 0 LINE"
);
},
{
closed = 1;
nodes = (
"94 287 OFFCURVE",
"60 320 OFFCURVE",
"60 366 CURVE SMOOTH",
"60 412 OFFCURVE",
"94 445 OFFCURVE",
"140 445 CURVE SMOOTH",
"186 445 OFFCURVE",
"219 412 OFFCURVE",
"219 366 CURVE SMOOTH",
"219 320 OFFCURVE",
"186 287 OFFCURVE",
"140 287 CURVE SMOOTH"
);
}
);
width = 775;
}
);
note = uni0E11;
unicode = 0E11;
},
{
color = 4;
glyphname = "noNu-thai";
lastChange = "2018-02-19 15:16:33 +0000";
layers = (
{
layerId = "0B1DFD06-3317-40CA-B510-4969A0718C16";
paths = (
{
closed = 1;
nodes = (
"266 0 LINE",
"342 99 OFFCURVE",
"504 190 OFFCURVE",
"648 216 CURVE",
"648 560 LINE",
"590 560 LINE",
"590 236 LINE",
"458 204 OFFCURVE",
"315 115 OFFCURVE",
"259 51 CURVE",
"259 431 LINE SMOOTH",
"259 518 OFFCURVE",
"211 570 OFFCURVE",
"130 570 CURVE SMOOTH",
"56 570 OFFCURVE",
"12 525 OFFCURVE",
"12 462 CURVE SMOOTH",
"12 396 OFFCURVE",
"57 356 OFFCURVE",
"118 356 CURVE SMOOTH",
"154 356 OFFCURVE",
"187 372 OFFCURVE",
"201 393 CURVE",
"201 0 LINE"
);
},
{
closed = 1;
nodes = (
"73 384 OFFCURVE",
"40 417 OFFCURVE",
"40 463 CURVE SMOOTH",
"40 509 OFFCURVE",
"73 542 OFFCURVE",
"119 542 CURVE SMOOTH",
"165 542 OFFCURVE",
"198 509 OFFCURVE",
"198 463 CURVE SMOOTH",
"198 417 OFFCURVE",
"165 384 OFFCURVE",
"119 384 CURVE SMOOTH"
);
},
{
closed = 1;
nodes = (
"621 -10 OFFCURVE",
"666 35 OFFCURVE",
"666 97 CURVE SMOOTH",
"666 159 OFFCURVE",
"621 204 OFFCURVE",
"559 204 CURVE SMOOTH",
"497 204 OFFCURVE",
"452 159 OFFCURVE",
"452 97 CURVE SMOOTH",
"452 35 OFFCURVE",
"497 -10 OFFCURVE",
"559 -10 CURVE SMOOTH"
);
},
{
closed = 1;
nodes = (
"513 18 OFFCURVE",
"480 51 OFFCURVE",
"480 97 CURVE SMOOTH",
"480 143 OFFCURVE",
"513 176 OFFCURVE",
"559 176 CURVE SMOOTH",
"605 176 OFFCURVE",
"638 143 OFFCURVE",
"638 97 CURVE SMOOTH",
"638 51 OFFCURVE",
"605 18 OFFCURVE",
"559 18 CURVE SMOOTH"
);
}
);
width = 732;
}
);
note = uni0E19;
unicode = 0E19;
},
{
color = 4;
glyphname = "moMa-thai";
lastChange = "2018-02-19 15:16:44 +0000";
layers = (
{
layerId = "0B1DFD06-3317-40CA-B510-4969A0718C16";
paths = (
{
closed = 1;
nodes = (
"264 -10 OFFCURVE",
"299 44 OFFCURVE",
"299 104 CURVE SMOOTH",
"299 167 LINE",
"589 0 LINE",
"651 0 LINE",
"651 560 LINE",
"593 560 LINE",
"593 43 LINE",
"322 200 LINE SMOOTH",
"301 212 OFFCURVE",
"256 239 OFFCURVE",
"198 239 CURVE SMOOTH",
"117 239 OFFCURVE",
"62 187 OFFCURVE",
"62 109 CURVE SMOOTH",
"62 38 OFFCURVE",
"108 -10 OFFCURVE",
"184 -10 CURVE SMOOTH"
);
},
{
closed = 1;
nodes = (
"123 18 OFFCURVE",
"90 54 OFFCURVE",
"90 108 CURVE SMOOTH",
"90 166 OFFCURVE",
"129 205 OFFCURVE",
"188 205 CURVE SMOOTH",
"206 205 OFFCURVE",
"224 202 OFFCURVE",
"241 193 CURVE",
"241 94 LINE SMOOTH",
"241 51 OFFCURVE",
"223 18 OFFCURVE",
"173 18 CURVE SMOOTH"
);
},
{
closed = 1;
nodes = (
"299 431 LINE SMOOTH",
"299 530 OFFCURVE",
"245 570 OFFCURVE",
"172 570 CURVE SMOOTH",
"95 570 OFFCURVE",
"52 525 OFFCURVE",
"52 462 CURVE SMOOTH",
"52 396 OFFCURVE",
"97 356 OFFCURVE",
"158 356 CURVE SMOOTH",
"194 356 OFFCURVE",
"227 372 OFFCURVE",
"241 393 CURVE",
"241 209 LINE",
"299 208 LINE"
);
},
{
closed = 1;
nodes = (
"113 384 OFFCURVE",
"80 417 OFFCURVE",
"80 463 CURVE SMOOTH",
"80 509 OFFCURVE",
"113 542 OFFCURVE",
"159 542 CURVE SMOOTH",
"205 542 OFFCURVE",
"238 509 OFFCURVE",
"238 463 CURVE SMOOTH",
"238 417 OFFCURVE",
"205 384 OFFCURVE",
"159 384 CURVE SMOOTH"
);
}
);
width = 735;
}
);
note = uni0E21;
unicode = 0E21;
},
{
color = 4;
glyphname = "choChoe-thai";
lastChange = "2018-02-19 14:31:28 +0000";
layers = (
{
guideLines = (
{
position = "{370, 204}";
}
);
layerId = "0B1DFD06-3317-40CA-B510-4969A0718C16";
paths = (
{
closed = 1;
nodes = (
"282 -10 OFFCURVE",
"332 31 OFFCURVE",
"332 98 CURVE SMOOTH",
"332 159 OFFCURVE",
"292 204 OFFCURVE",
"226 204 CURVE SMOOTH",
"192 204 OFFCURVE",
"158 190 OFFCURVE",
"143 167 CURVE",
"143 241 LINE SMOOTH",
"143 291 OFFCURVE",
"163 332 OFFCURVE",
"237 353 CURVE",
"237 381 LINE",
"113 381 LINE",
"121 478 OFFCURVE",
"200 542 OFFCURVE",
"310 542 CURVE SMOOTH",
"419 542 OFFCURVE",
"491 480 OFFCURVE",
"491 386 CURVE SMOOTH",
"491 288 LINE SMOOTH",
"491 199 OFFCURVE",
"576 180 OFFCURVE",
"664 137 CURVE SMOOTH",
"724 108 OFFCURVE",
"777 73 OFFCURVE",
"806 0 CURVE",
"867 0 LINE",
"867 560 LINE",
"809 560 LINE",
"809 66 LINE",
"777 117 OFFCURVE",
"727 147 OFFCURVE",
"679 169 CURVE SMOOTH",
"612 201 OFFCURVE",
"549 222 OFFCURVE",
"549 285 CURVE SMOOTH",
"549 376 LINE SMOOTH",
"549 492 OFFCURVE",
"454 570 OFFCURVE",
"311 570 CURVE SMOOTH",
"167 570 OFFCURVE",
"64 485 OFFCURVE",
"54 358 CURVE",
"177 358 LINE",
"114 341 OFFCURVE",
"85 290 OFFCURVE",
"85 227 CURVE SMOOTH",
"85 129 LINE SMOOTH",
"85 30 OFFCURVE",
"139 -10 OFFCURVE",
"214 -10 CURVE SMOOTH"
);
},
{
closed = 1;
nodes = (
"179 18 OFFCURVE",
"146 51 OFFCURVE",
"146 97 CURVE SMOOTH",
"146 143 OFFCURVE",
"179 176 OFFCURVE",
"225 176 CURVE SMOOTH",
"271 176 OFFCURVE",
"304 143 OFFCURVE",
"304 97 CURVE SMOOTH",
"304 51 OFFCURVE",
"271 18 OFFCURVE",
"225 18 CURVE SMOOTH"
);
},
{
closed = 1;
nodes = (
"597 -10 OFFCURVE",
"642 35 OFFCURVE",
"642 97 CURVE SMOOTH",
"642 159 OFFCURVE",
"597 204 OFFCURVE",
"535 204 CURVE SMOOTH",
"473 204 OFFCURVE",
"428 159 OFFCURVE",
"428 97 CURVE SMOOTH",
"428 35 OFFCURVE",
"473 -10 OFFCURVE",
"535 -10 CURVE SMOOTH"
);
},
{
closed = 1;
nodes = (
"489 18 OFFCURVE",
"456 51 OFFCURVE",
"456 97 CURVE SMOOTH",
"456 143 OFFCURVE",
"489 176 OFFCURVE",
"535 176 CURVE SMOOTH",
"581 176 OFFCURVE",
"614 143 OFFCURVE",
"614 97 CURVE SMOOTH",
"614 51 OFFCURVE",
"581 18 OFFCURVE",
"535 18 CURVE SMOOTH"
);
}
);
width = 951;
}
);
note = uni0E0C;
unicode = 0E0C;
},
{
color = 4;
glyphname = "noNen-thai";
lastChange = "2018-02-19 14:32:18 +0000";
layers = (
{
layerId = "0B1DFD06-3317-40CA-B510-4969A0718C16";
paths = (
{
closed = 1;
nodes = (
"286 -10 OFFCURVE",
"332 33 OFFCURVE",
"332 98 CURVE SMOOTH",
"332 160 OFFCURVE",
"289 204 OFFCURVE",
"226 204 CURVE SMOOTH",
"189 204 OFFCURVE",
"157 188 OFFCURVE",
"143 167 CURVE",
"143 241 LINE SMOOTH",
"143 291 OFFCURVE",
"163 332 OFFCURVE",
"237 353 CURVE",
"237 381 LINE",
"113 381 LINE",
"121 478 OFFCURVE",
"200 542 OFFCURVE",
"310 542 CURVE SMOOTH",
"419 542 OFFCURVE",
"491 480 OFFCURVE",
"491 386 CURVE SMOOTH",
"491 0 LINE",
"556 0 LINE",
"645 111 OFFCURVE",
"786 196 OFFCURVE",
"896 216 CURVE",
"896 560 LINE",
"838 560 LINE",
"838 236 LINE",
"746 209 OFFCURVE",
"625 138 OFFCURVE",
"549 51 CURVE",
"549 376 LINE SMOOTH",
"549 492 OFFCURVE",
"454 570 OFFCURVE",
"311 570 CURVE SMOOTH",
"167 570 OFFCURVE",
"64 485 OFFCURVE",
"54 358 CURVE",
"177 358 LINE",
"114 341 OFFCURVE",
"85 290 OFFCURVE",
"85 227 CURVE SMOOTH",
"85 129 LINE SMOOTH",
"85 39 OFFCURVE",
"137 -10 OFFCURVE",
"214 -10 CURVE SMOOTH"
);
},
{
closed = 1;
nodes = (
"178 18 OFFCURVE",
"146 50 OFFCURVE",
"146 97 CURVE SMOOTH",
"146 144 OFFCURVE",
"178 176 OFFCURVE",
"225 176 CURVE SMOOTH",
"272 176 OFFCURVE",
"304 144 OFFCURVE",
"304 97 CURVE SMOOTH",
"304 50 OFFCURVE",
"272 18 OFFCURVE",
"225 18 CURVE SMOOTH"
);
},
{
closed = 1;
nodes = (
"869 -10 OFFCURVE",
"914 35 OFFCURVE",
"914 97 CURVE SMOOTH",
"914 159 OFFCURVE",
"869 204 OFFCURVE",
"807 204 CURVE SMOOTH",
"745 204 OFFCURVE",
"700 159 OFFCURVE",
"700 97 CURVE SMOOTH",
"700 35 OFFCURVE",
"745 -10 OFFCURVE",
"807 -10 CURVE SMOOTH"
);
},
{
closed = 1;
nodes = (
"761 18 OFFCURVE",
"728 51 OFFCURVE",
"728 97 CURVE SMOOTH",
"728 143 OFFCURVE",
"761 176 OFFCURVE",
"807 176 CURVE SMOOTH",
"853 176 OFFCURVE",
"886 143 OFFCURVE",
"886 97 CURVE SMOOTH",
"886 51 OFFCURVE",
"853 18 OFFCURVE",
"807 18 CURVE SMOOTH"
);
}
);
width = 980;
}
);
note = uni0E13;
unicode = 0E13;
},
{
color = 4;
glyphname = "thoPhuthao-thai";
lastChange = "2018-02-19 14:32:47 +0000";
layers = (
{
background = {
paths = (
{
closed = 1;
nodes = (
"911 0 LINE",
"911 557 LINE",
"842 557 LINE",
"842 59 LINE",
"769 132 OFFCURVE",
"684 199 OFFCURVE",
"592 245 CURVE",
"592 360 OFFCURVE",
"631 568 OFFCURVE",
"453 568 CURVE SMOOTH",
"405 568 OFFCURVE",
"369 553 OFFCURVE",
"341 514 CURVE",
"318 554 OFFCURVE",
"283 568 OFFCURVE",
"238 568 CURVE SMOOTH",
"126 568 OFFCURVE",
"70 459 OFFCURVE",
"70 359 CURVE SMOOTH",
"70 262 OFFCURVE",
"89 165 OFFCURVE",
"89 67 CURVE SMOOTH",
"89 45 OFFCURVE",
"87 22 OFFCURVE",
"86 0 CURVE",
"156 0 LINE",
"287 50 OFFCURVE",
"445 168 OFFCURVE",
"445 323 CURVE SMOOTH",
"445 388 OFFCURVE",
"390 437 OFFCURVE",
"326 437 CURVE SMOOTH",
"263 437 OFFCURVE",
"212 386 OFFCURVE",
"212 323 CURVE SMOOTH",
"212 260 OFFCURVE",
"263 209 OFFCURVE",
"326 209 CURVE SMOOTH",
"346 209 OFFCURVE",
"364 214 OFFCURVE",
"380 223 CURVE",
"347 137 OFFCURVE",
"237 65 OFFCURVE",
"154 34 CURVE",
"160 145 OFFCURVE",
"140 252 OFFCURVE",
"140 361 CURVE SMOOTH",
"140 433 OFFCURVE",
"171 533 OFFCURVE",
"258 533 CURVE SMOOTH",
"294 533 OFFCURVE",
"321 512 OFFCURVE",
"333 479 CURVE",
"349 479 LINE",
"367 511 OFFCURVE",
"394 533 OFFCURVE",
"433 533 CURVE SMOOTH",
"559 533 OFFCURVE",
"523 305 OFFCURVE",
"523 243 CURVE",
"565 218 LINE",
"510 209 OFFCURVE",
"464 161 OFFCURVE",
"464 104 CURVE SMOOTH",
"464 41 OFFCURVE",
"515 -10 OFFCURVE",
"578 -10 CURVE SMOOTH",
"641 -10 OFFCURVE",
"693 41 OFFCURVE",
"693 104 CURVE SMOOTH",
"693 117 OFFCURVE",
"691 129 OFFCURVE",
"687 142 CURVE",
"742 101 OFFCURVE",
"798 54 OFFCURVE",
"840 0 CURVE"
);
},
{
closed = 1;
nodes = (
"658 61 OFFCURVE",
"621 25 OFFCURVE",
"578 25 CURVE SMOOTH",
"535 25 OFFCURVE",
"498 61 OFFCURVE",
"498 104 CURVE SMOOTH",
"498 147 OFFCURVE",
"535 184 OFFCURVE",
"578 184 CURVE SMOOTH",
"621 184 OFFCURVE",
"658 147 OFFCURVE",
"658 104 CURVE SMOOTH"
);
},
{
closed = 1;
nodes = (
"405 280 OFFCURVE",
"369 243 OFFCURVE",
"326 243 CURVE SMOOTH",
"283 243 OFFCURVE",
"246 280 OFFCURVE",
"246 323 CURVE SMOOTH",
"246 366 OFFCURVE",
"283 402 OFFCURVE",
"326 402 CURVE SMOOTH",
"369 402 OFFCURVE",
"405 366 OFFCURVE",
"405 323 CURVE SMOOTH"
);
}
);
};
layerId = "0B1DFD06-3317-40CA-B510-4969A0718C16";
paths = (
{
closed = 1;
nodes = (
"144 0 LINE",
"268 46 OFFCURVE",
"429 139 OFFCURVE",
"429 283 CURVE SMOOTH",
"429 350 OFFCURVE",
"388 398 OFFCURVE",
"321 398 CURVE SMOOTH",
"258 398 OFFCURVE",
"213 358 OFFCURVE",
"213 291 CURVE SMOOTH",
"213 229 OFFCURVE",
"253 184 OFFCURVE",
"319 184 CURVE SMOOTH",
"339 184 OFFCURVE",
"357 189 OFFCURVE",
"373 198 CURVE",
"338 136 OFFCURVE",
"257 77 OFFCURVE",
"140 33 CURVE",
"142 114 OFFCURVE",
"129 302 OFFCURVE",
"129 360 CURVE SMOOTH",
"129 469 OFFCURVE",
"175 535 OFFCURVE",
"251 535 CURVE SMOOTH",
"294 535 OFFCURVE",
"318 514 OFFCURVE",
"331 481 CURVE",
"349 481 LINE",
"362 514 OFFCURVE",
"386 535 OFFCURVE",
"428 535 CURVE SMOOTH",
"522 535 OFFCURVE",
"522 433 OFFCURVE",
"522 408 CURVE SMOOTH",
"522 288 LINE SMOOTH",
"522 198 OFFCURVE",
"610 179 OFFCURVE",
"695 137 CURVE SMOOTH",
"753 108 OFFCURVE",
"808 73 OFFCURVE",
"837 0 CURVE",
"898 0 LINE",
"898 560 LINE",
"840 560 LINE",
"840 67 LINE",
"808 118 OFFCURVE",
"758 149 OFFCURVE",
"710 171 CURVE SMOOTH",
"643 202 OFFCURVE",
"580 224 OFFCURVE",
"580 289 CURVE SMOOTH",
"580 419 LINE SMOOTH",
"580 518 OFFCURVE",
"535 570 OFFCURVE",
"450 570 CURVE SMOOTH",
"394 570 OFFCURVE",
"360 548 OFFCURVE",
"340 516 CURVE",
"320 549 OFFCURVE",
"283 570 OFFCURVE",
"232 570 CURVE SMOOTH",
"129 570 OFFCURVE",
"70 486 OFFCURVE",
"70 356 CURVE SMOOTH",
"70 283 OFFCURVE",
"89 147 OFFCURVE",
"87 50 CURVE SMOOTH",
"86 0 LINE"
);
},
{
closed = 1;
nodes = (
"275 212 OFFCURVE",
"241 245 OFFCURVE",
"241 291 CURVE SMOOTH",
"241 337 OFFCURVE",
"275 370 OFFCURVE",
"321 370 CURVE SMOOTH",
"367 370 OFFCURVE",
"401 337 OFFCURVE",
"401 291 CURVE SMOOTH",
"401 245 OFFCURVE",
"367 212 OFFCURVE",
"321 212 CURVE SMOOTH"
);
},
{
closed = 1;
nodes = (
"628 -10 OFFCURVE",
"673 35 OFFCURVE",
"673 97 CURVE SMOOTH",
"673 159 OFFCURVE",
"628 204 OFFCURVE",
"566 204 CURVE SMOOTH",
"504 204 OFFCURVE",
"459 159 OFFCURVE",
"459 97 CURVE SMOOTH",
"459 35 OFFCURVE",
"504 -10 OFFCURVE",
"566 -10 CURVE SMOOTH"
);
},
{
closed = 1;
nodes = (
"520 18 OFFCURVE",
"487 51 OFFCURVE",
"487 97 CURVE SMOOTH",
"487 143 OFFCURVE",
"520 176 OFFCURVE",
"566 176 CURVE SMOOTH",
"612 176 OFFCURVE",
"645 143 OFFCURVE",
"645 97 CURVE SMOOTH",
"645 51 OFFCURVE",
"612 18 OFFCURVE",
"566 18 CURVE SMOOTH"
);
}
);
width = 982;
}
);
note = uni0E12;
unicode = 0E12;
},
{
color = 4;
glyphname = "khoRakhang-thai";
lastChange = "2018-02-19 14:43:51 +0000";
layers = (
{
background = {
paths = (
{
closed = 1;
nodes = (
"663 0 LINE",
"663 557 LINE",
"593 557 LINE",
"593 41 LINE",
"336 206 LINE",
"336 364 OFFCURVE",
"428 338 OFFCURVE",
"428 442 CURVE SMOOTH",
"428 517 OFFCURVE",
"383 567 OFFCURVE",
"308 567 CURVE SMOOTH",
"280 567 OFFCURVE",
"249 557 OFFCURVE",
"233 533 CURVE",
"215 557 OFFCURVE",
"188 567 OFFCURVE",
"159 567 CURVE SMOOTH",
"68 567 OFFCURVE",
"14 484 OFFCURVE",
"14 400 CURVE SMOOTH",
"14 326 OFFCURVE",
"62 260 OFFCURVE",
"142 260 CURVE SMOOTH",
"205 260 OFFCURVE",
"257 312 OFFCURVE",
"257 374 CURVE SMOOTH",
"257 437 OFFCURVE",
"205 489 OFFCURVE",
"142 489 CURVE SMOOTH",
"120 489 OFFCURVE",
"98 481 OFFCURVE",
"79 469 CURVE",
"86 506 OFFCURVE",
"126 536 OFFCURVE",
"163 536 CURVE SMOOTH",
"195 536 OFFCURVE",
"213 528 OFFCURVE",
"234 504 CURVE",
"249 522 OFFCURVE",
"266 536 OFFCURVE",
"291 536 CURVE SMOOTH",
"343 536 OFFCURVE",
"365 486 OFFCURVE",
"365 441 CURVE SMOOTH",
"365 334 OFFCURVE",
"266 330 OFFCURVE",
"266 226 CURVE",
"190 262 OFFCURVE",
"75 201 OFFCURVE",
"75 114 CURVE SMOOTH",
"75 40 OFFCURVE",
"132 -7 OFFCURVE",
"204 -7 CURVE SMOOTH",
"324 -7 OFFCURVE",
"336 67 OFFCURVE",
"336 167 CURVE",
"593 0 LINE"
);
},
{
closed = 1;
nodes = (
"221 332 OFFCURVE",
"185 295 OFFCURVE",
"142 295 CURVE SMOOTH",
"99 295 OFFCURVE",
"62 332 OFFCURVE",
"62 374 CURVE SMOOTH",
"62 417 OFFCURVE",
"99 453 OFFCURVE",
"142 453 CURVE SMOOTH",
"185 453 OFFCURVE",
"221 417 OFFCURVE",
"221 374 CURVE SMOOTH"
);
},
{
closed = 1;
nodes = (
"266 115 LINE SMOOTH",
"266 72 OFFCURVE",
"246 30 OFFCURVE",
"196 30 CURVE SMOOTH",
"148 30 OFFCURVE",
"114 65 OFFCURVE",
"114 114 CURVE SMOOTH",
"114 168 OFFCURVE",
"162 198 OFFCURVE",
"212 198 CURVE SMOOTH",
"230 198 OFFCURVE",
"249 198 OFFCURVE",
"266 190 CURVE"
);
}
);
};
layerId = "0B1DFD06-3317-40CA-B510-4969A0718C16";
paths = (
{
closed = 1;
nodes = (
"291 -10 OFFCURVE",
"326 44 OFFCURVE",
"326 104 CURVE SMOOTH",
"326 167 LINE",
"601 0 LINE",
"663 0 LINE",
"663 560 LINE",
"605 560 LINE",
"605 46 LINE",
"349 203 LINE SMOOTH",
"328 216 OFFCURVE",
"283 242 OFFCURVE",
"225 242 CURVE SMOOTH",
"145 242 OFFCURVE",
"89 187 OFFCURVE",
"89 109 CURVE SMOOTH",
"89 38 OFFCURVE",
"135 -10 OFFCURVE",
"211 -10 CURVE SMOOTH"
);
},
{
closed = 1;
nodes = (
"150 18 OFFCURVE",
"117 54 OFFCURVE",
"117 108 CURVE SMOOTH",
"117 166 OFFCURVE",
"156 205 OFFCURVE",
"215 205 CURVE SMOOTH",
"233 205 OFFCURVE",
"251 202 OFFCURVE",
"268 193 CURVE",
"268 94 LINE SMOOTH",
"268 51 OFFCURVE",
"250 18 OFFCURVE",
"200 18 CURVE SMOOTH"
);
},
{
closed = 1;
nodes = (
"94 287 OFFCURVE",
"60 320 OFFCURVE",
"60 366 CURVE SMOOTH",
"60 412 OFFCURVE",
"94 445 OFFCURVE",
"140 445 CURVE SMOOTH",
"186 445 OFFCURVE",
"219 412 OFFCURVE",
"219 366 CURVE SMOOTH",
"219 320 OFFCURVE",
"186 287 OFFCURVE",
"140 287 CURVE SMOOTH"
);
},
{
closed = 1;
nodes = (
"326 181 LINE",
"326 289 OFFCURVE",
"424 326 OFFCURVE",
"424 446 CURVE SMOOTH",
"424 521 OFFCURVE",
"385 570 OFFCURVE",
"314 570 CURVE SMOOTH",
"274 570 OFFCURVE",
"250 555 OFFCURVE",
"233 532 CURVE",
"215 556 OFFCURVE",
"189 570 OFFCURVE",
"155 570 CURVE SMOOTH",
"69 570 OFFCURVE",
"14 479 OFFCURVE",
"14 397 CURVE SMOOTH",
"14 317 OFFCURVE",
"61 259 OFFCURVE",
"138 259 CURVE SMOOTH",
"201 259 OFFCURVE",
"247 299 OFFCURVE",
"247 366 CURVE SMOOTH",
"247 428 OFFCURVE",
"208 473 OFFCURVE",
"144 473 CURVE SMOOTH",
"115 473 OFFCURVE",
"84 463 OFFCURVE",
"69 447 CURVE",
"79 501 OFFCURVE",
"123 539 OFFCURVE",
"165 539 CURVE SMOOTH",
"192 539 OFFCURVE",
"218 522 OFFCURVE",
"229 497 CURVE",
"239 497 LINE",
"250 525 OFFCURVE",
"270 539 OFFCURVE",
"297 539 CURVE SMOOTH",
"340 539 OFFCURVE",
"366 502 OFFCURVE",
"366 445 CURVE SMOOTH",
"366 334 OFFCURVE",
"268 301 OFFCURVE",
"268 181 CURVE"
);
}
);
width = 747;
}
);
note = uni0E06;
unicode = 0E06;
},
{
color = 4;
glyphname = "thoThong-thai";
lastChange = "2018-02-19 12:05:06 +0000";
layers = (
{
layerId = "0B1DFD06-3317-40CA-B510-4969A0718C16";
paths = (
{
closed = 1;
nodes = (
"532 0 LINE",
"532 382 LINE",
"106 382 LINE",
"109 479 OFFCURVE",
"156 531 OFFCURVE",
"239 531 CURVE SMOOTH",
"327 531 OFFCURVE",
"368 472 OFFCURVE",
"451 472 CURVE SMOOTH",
"511 472 OFFCURVE",
"549 502 OFFCURVE",
"554 563 CURVE",
"490 563 LINE",
"487 532 OFFCURVE",
"467 512 OFFCURVE",
"426 512 CURVE SMOOTH",
"356 512 OFFCURVE",
"325 570 OFFCURVE",
"225 570 CURVE SMOOTH",
"113 570 OFFCURVE",
"49 497 OFFCURVE",
"46 354 CURVE",
"474 354 LINE",
"474 28 LINE",
"142 28 LINE",
"142 269 LINE",
"84 269 LINE",
"84 0 LINE"
);
}
);
width = 616;
}
);
note = uni0E18;
unicode = 0E18;
},
{
color = 4;
glyphname = "roRua-thai";
lastChange = "2018-02-19 14:45:12 +0000";
layers = (
{
layerId = "0B1DFD06-3317-40CA-B510-4969A0718C16";
paths = (
{
closed = 1;
nodes = (
"463 -10 OFFCURVE",
"501 48 OFFCURVE",
"501 129 CURVE SMOOTH",
"501 382 LINE",
"91 382 LINE",
"94 479 OFFCURVE",
"141 531 OFFCURVE",
"224 531 CURVE SMOOTH",
"312 531 OFFCURVE",
"353 472 OFFCURVE",
"436 472 CURVE SMOOTH",
"496 472 OFFCURVE",
"534 502 OFFCURVE",
"539 563 CURVE",
"475 563 LINE",
"472 532 OFFCURVE",
"452 512 OFFCURVE",
"411 512 CURVE SMOOTH",
"341 512 OFFCURVE",
"310 570 OFFCURVE",
"210 570 CURVE SMOOTH",
"98 570 OFFCURVE",
"34 497 OFFCURVE",
"31 354 CURVE",
"443 354 LINE",
"443 167 LINE",
"429 188 OFFCURVE",
"396 204 OFFCURVE",
"360 204 CURVE SMOOTH",
"299 204 OFFCURVE",
"254 164 OFFCURVE",
"254 98 CURVE SMOOTH",
"254 34 OFFCURVE",
"297 -10 OFFCURVE",
"375 -10 CURVE SMOOTH"
);
},
{
closed = 1;
nodes = (
"315 18 OFFCURVE",
"282 51 OFFCURVE",
"282 97 CURVE SMOOTH",
"282 143 OFFCURVE",
"315 176 OFFCURVE",
"361 176 CURVE SMOOTH",
"407 176 OFFCURVE",
"440 143 OFFCURVE",
"440 97 CURVE SMOOTH",
"440 51 OFFCURVE",
"407 18 OFFCURVE",
"361 18 CURVE SMOOTH"
);
}
);
width = 585;
}
);
note = uni0E23;
unicode = 0E23;
},
{
color = 4;
glyphname = "choChan-thai";
lastChange = "2018-02-19 15:24:36 +0000";
layers = (
{
layerId = "0B1DFD06-3317-40CA-B510-4969A0718C16";
paths = (
{
closed = 1;
nodes = (
"520 0 LINE",
"519 50 LINE SMOOTH",
"517 145 OFFCURVE",
"536 282 OFFCURVE",
"536 342 CURVE SMOOTH",
"536 482 OFFCURVE",
"435 570 OFFCURVE",
"263 570 CURVE SMOOTH",
"106 570 OFFCURVE",
"3 495 OFFCURVE",
"-2 377 CURVE",
"62 377 LINE",
"67 478 OFFCURVE",
"147 542 OFFCURVE",
"268 542 CURVE SMOOTH",
"399 542 OFFCURVE",
"478 467 OFFCURVE",
"478 350 CURVE SMOOTH",
"478 300 OFFCURVE",
"464 160 OFFCURVE",
"466 80 CURVE",
"359 278 LINE SMOOTH",
"342 310 OFFCURVE",
"309 364 OFFCURVE",
"235 364 CURVE SMOOTH",
"169 364 OFFCURVE",
"122 323 OFFCURVE",
"122 256 CURVE SMOOTH",
"122 197 OFFCURVE",
"164 150 OFFCURVE",
"228 150 CURVE SMOOTH",
"282 150 OFFCURVE",
"327 182 OFFCURVE",
"337 234 CURVE",
"462 0 LINE"
);
},
{
closed = 1;
nodes = (
"184 178 OFFCURVE",
"150 211 OFFCURVE",
"150 257 CURVE SMOOTH",
"150 303 OFFCURVE",
"184 336 OFFCURVE",
"230 336 CURVE SMOOTH",
"276 336 OFFCURVE",
"310 303 OFFCURVE",
"310 257 CURVE SMOOTH",
"310 211 OFFCURVE",
"276 178 OFFCURVE",
"230 178 CURVE SMOOTH"
);
}
);
width = 591;
}
);
note = uni0E08;
unicode = 0E08;
},
{
color = 4;
glyphname = "woWaen-thai";
lastChange = "2018-02-19 15:24:30 +0000";
layers = (
{
background = {
paths = (
{
closed = 0;
nodes = (
"495 377 LINE SMOOTH",
"495 520 OFFCURVE",
"379 570 OFFCURVE",
"254 570 CURVE SMOOTH",
"143 570 OFFCURVE",
"20 520 OFFCURVE",
"0 400 CURVE",
"64 400 LINE",
"79 489 OFFCURVE",
"167 542 OFFCURVE",
"254 542 CURVE SMOOTH",
"349 542 OFFCURVE",
"437 486 OFFCURVE",
"437 386 CURVE SMOOTH"
);
}
);
};
layerId = "0B1DFD06-3317-40CA-B510-4969A0718C16";
paths = (
{
closed = 1;
nodes = (
"299 18 OFFCURVE",
"266 51 OFFCURVE",
"266 97 CURVE SMOOTH",
"266 143 OFFCURVE",
"299 176 OFFCURVE",
"345 176 CURVE SMOOTH",
"391 176 OFFCURVE",
"424 143 OFFCURVE",
"424 97 CURVE SMOOTH",
"424 51 OFFCURVE",
"391 18 OFFCURVE",
"345 18 CURVE SMOOTH"
);
},
{
closed = 1;
nodes = (
"427 167 LINE",
"413 188 OFFCURVE",
"380 204 OFFCURVE",
"344 204 CURVE SMOOTH",
"283 204 OFFCURVE",
"238 164 OFFCURVE",
"238 98 CURVE SMOOTH",
"238 34 OFFCURVE",
"281 -10 OFFCURVE",
"359 -10 CURVE SMOOTH",
"447 -10 OFFCURVE",
"485 48 OFFCURVE",
"485 129 CURVE SMOOTH",
"485 377 LINE",
"485 501 OFFCURVE",
"407 570 OFFCURVE",
"256 570 CURVE SMOOTH",
"99 570 OFFCURVE",
"13 495 OFFCURVE",
"6 377 CURVE",
"70 377 LINE",
"74 478 OFFCURVE",
"141 542 OFFCURVE",
"251 542 CURVE SMOOTH",
"364 542 OFFCURVE",
"427 481 OFFCURVE",
"427 386 CURVE"
);
}
);
width = 569;
}
);
note = uni0E27;
unicode = 0E27;
},
